<?xml version="1.0" encoding="utf-8"?>
<!-- Generator: Adobe Illustrator 25.2.3, SVG Export Plug-In . SVG Version: 6.00 Build 0)  -->
<svg version="1.1" id="Layer_1" xmlns="http://www.w3.org/2000/svg" xmlns:xlink="http://www.w3.org/1999/xlink" x="0px" y="0px"
	 viewBox="0 0 16 16" style="enable-background:new 0 0 16 16;" xml:space="preserve">
<style type="text/css">
	.st0{fill:#5E5E5E;}
	.st1{fill:none;}
    .st2{fill:#FFFFFF;}
</style>
<g>
	<rect class="st1" width="16" height="16"/>
    <circle class="st2" r="6" cx="8" cy="8"/>
	<path class="st0" d="M8,1C4.1,1,1,4.1,1,8c0,3.9,3.1,7,7,7s7-3.1,7-7C15,4.1,11.9,1,8,1z M11.2,9.8c0.4,0.4,0.4,1,0,1.4
		c-0.2,0.2-0.5,0.3-0.7,0.3s-0.5-0.1-0.7-0.3L8,9.4l-1.8,1.8c-0.2,0.2-0.5,0.3-0.7,0.3S5,11.4,4.8,11.2c-0.4-0.4-0.4-1,0-1.4L6.6,8
		L4.8,6.2c-0.4-0.4-0.4-1,0-1.4s1-0.4,1.4,0L8,6.6l1.8-1.8c0.4-0.4,1-0.4,1.4,0s0.4,1,0,1.4L9.4,8L11.2,9.8z"/>
</g>
</svg>
