<svg clip-rule="evenodd" fill-rule="evenodd" stroke-linejoin="round" stroke-miterlimit="2" viewBox="0 0 9 9" xmlns="http://www.w3.org/2000/svg"><path d="m90.1 71.3 16.1 16.1c4.7 4.7 4.7 12.1 0 16.6l-1 1c-4.7 4.7-12.1 4.7-16.6 0l-16.3-15.9c-4.7-4.7-12.1-4.7-16.6 0l-16.1 16.1c-4.7 4.7-12.1 4.7-16.6 0l-1-1c-4.7-4.7-4.7-12.1 0-16.6l16-16.2c4.7-4.7 4.7-12.1 0-16.6l-16-16.2c-4.7-4.7-4.7-12.1 0-16.6l1-1c4.7-4.7 12.1-4.7 16.6 0l16.1 16c4.7 4.7 12.1 4.7 16.6 0l16-16c4.7-4.7 12.1-4.7 16.6 0l1 1c4.7 4.7 4.7 12.1 0 16.6l-15.8 16.1c-4.7 4.5-4.7 12.1 0 16.6z" fill="#fff" fill-rule="nonzero" transform="matrix(.0767123 0 0 .0767123 -.41726 -.340548)"/></svg>