<?xml version="1.0" encoding="UTF-8" standalone="no"?><!DOCTYPE svg PUBLIC "-//W3C//DTD SVG 1.1//EN" "http://www.w3.org/Graphics/SVG/1.1/DTD/svg11.dtd"><svg width="100%" height="100%" viewBox="0 0 128 128" version="1.1" xmlns="http://www.w3.org/2000/svg" xmlns:xlink="http://www.w3.org/1999/xlink" xml:space="preserve" xmlns:serif="http://www.serif.com/" style="fill-rule:evenodd;clip-rule:evenodd;stroke-linejoin:round;stroke-miterlimit:1.41421;"><path id="close" d="M106.7,96.4l-10.3,10.3c-2.8,2.8 -7.4,2.8 -10.3,0l-22.1,-22.2l-22.2,22.2c-2.8,2.8 -7.4,2.8 -10.3,0l-10.2,-10.3c-2.8,-2.8 -2.8,-7.4 0,-10.3l22.2,-22.1l-22.2,-22.2c-2.8,-2.8 -2.8,-7.4 0,-10.3l10.3,-10.3c2.8,-2.8 7.4,-2.8 10.3,0l22.1,22.3l22.2,-22.2c2.8,-2.8 7.4,-2.8 10.3,0l10.3,10.3c2.8,2.8 2.8,7.4 0,10.3l-22.3,22.1l22.2,22.2c2.8,2.8 2.8,7.4 0,10.2Z" style="fill:#808080;fill-rule:nonzero;"/></svg>