<svg clip-rule="evenodd" fill-rule="evenodd" stroke-linejoin="round" stroke-miterlimit="2" viewBox="0 0 128 128" xmlns="http://www.w3.org/2000/svg"><path d="m91.991 89.982-2.101 2.1c-2.557 2.557-6.758 2.557-9.406 0l-16.53-16.621-16.621 16.621c-2.557 2.557-6.758 2.557-9.406 0l-2.009-2.1c-2.557-2.557-2.557-6.758 0-9.407l16.621-16.529-16.621-16.621c-2.557-2.557-2.557-6.758 0-9.407l2.1-2.1c2.557-2.557 6.758-2.557 9.407 0l16.529 16.712 16.621-16.621c2.557-2.557 6.758-2.557 9.407 0l2.1 2.101c2.557 2.557 2.557 6.758 0 9.406l-16.712 16.53 16.621 16.621c2.557 2.557 2.557 6.758 0 9.315z" fill="#808080" fill-rule="nonzero"/></svg>