<?xml version="1.0" encoding="UTF-8" standalone="no"?><!DOCTYPE svg PUBLIC "-//W3C//DTD SVG 1.1//EN" "http://www.w3.org/Graphics/SVG/1.1/DTD/svg11.dtd"><svg width="100%" height="100%" viewBox="0 0 128 128" version="1.1" xmlns="http://www.w3.org/2000/svg" xmlns:xlink="http://www.w3.org/1999/xlink" xml:space="preserve" xmlns:serif="http://www.serif.com/" style="fill-rule:evenodd;clip-rule:evenodd;stroke-linejoin:round;stroke-miterlimit:1.41421;"><path id="close" d="M125,110.33l-14.67,14.67c-4.031,3.991 -10.619,3.991 -14.65,0l-31.68,-31.69l-31.68,31.69c-4.031,3.991 -10.619,3.991 -14.65,0l-14.67,-14.67c-3.997,-4.028 -3.997,-10.622 0,-14.65l31.69,-31.68l-31.69,-31.68c-3.997,-4.028 -3.997,-10.622 0,-14.65l14.67,-14.67c4.028,-3.997 10.622,-3.997 14.65,0l31.68,31.69l31.68,-31.69c4.028,-3.997 10.622,-3.997 14.65,0l14.67,14.67c3.991,4.031 3.991,10.619 0,14.65l-31.69,31.68l31.69,31.68c3.997,4.028 3.997,10.622 0,14.65Z" style="fill:#808080;fill-rule:nonzero;"/></svg>