<svg clip-rule="evenodd" fill-rule="evenodd" stroke-linejoin="round" stroke-miterlimit="1.41421" viewBox="0 0 128 128" xmlns="http://www.w3.org/2000/svg"><path d="m125 110.33-14.67 14.67c-4.031 3.991-10.619 3.991-14.65 0l-31.68-31.69-31.68 31.69c-4.031 3.991-10.619 3.991-14.65 0l-14.67-14.67c-3.997-4.028-3.997-10.622 0-14.65l31.69-31.68-31.69-31.68c-3.997-4.028-3.997-10.622 0-14.65l14.67-14.67c4.028-3.997 10.622-3.997 14.65 0l31.68 31.69 31.68-31.69c4.028-3.997 10.622-3.997 14.65 0l14.67 14.67c3.991 4.031 3.991 10.619 0 14.65l-31.69 31.68 31.69 31.68c3.997 4.028 3.997 10.622 0 14.65z" fill="#b37979" fill-rule="nonzero"/></svg>