<svg clip-rule="evenodd" fill-rule="evenodd" stroke-linejoin="round" stroke-miterlimit="2" viewBox="0 0 128 128" xmlns="http://www.w3.org/2000/svg"><path d="m102.7 96.4-6.3 6.3c-2.8 2.8-7.4 2.8-10.3 0l-22.1-22.2-22.2 22.2c-2.8 2.8-7.4 2.8-10.3 0l-6.2-6.3c-2.8-2.8-2.8-7.4 0-10.3l22.2-22.1-22.2-22.2c-2.8-2.8-2.8-7.4 0-10.3l6.3-6.3c2.8-2.8 7.4-2.8 10.3 0l22.1 22.3 22.2-22.2c2.8-2.8 7.4-2.8 10.3 0l6.3 6.3c2.8 2.8 2.8 7.4 0 10.3l-22.3 22.1 22.2 22.2c2.8 2.8 2.8 7.4 0 10.2z" fill="#b37979" fill-rule="nonzero"/></svg>