<svg clip-rule="evenodd" fill-rule="evenodd" stroke-linejoin="round" stroke-miterlimit="2" viewBox="0 0 9 9" xmlns="http://www.w3.org/2000/svg"><path d="m90.1 71.3 29.136 29.136c4.7 4.7 4.7 12.1 0 16.6l-1 1c-4.7 4.7-12.1 4.7-16.6 0l-29.336-28.936c-4.7-4.7-12.1-4.7-16.6 0l-29.136 29.136c-4.7 4.7-12.1 4.7-16.6 0l-1-1c-4.7-4.7-4.7-12.1 0-16.6l29.036-29.236c4.7-4.7 4.7-12.1 0-16.6l-29.036-29.236c-4.7-4.7-4.7-12.1 0-16.6l1-1c4.7-4.7 12.1-4.7 16.6 0l29.136 29.036c4.7 4.7 12.1 4.7 16.6 0l29.036-29.036c4.7-4.7 12.1-4.7 16.6 0l1 1c4.7 4.7 4.7 12.1 0 16.6l-28.836 29.136c-4.7 4.5-4.7 12.1 0 16.6z" fill="#808080" fill-rule="nonzero" transform="matrix(.0767123 0 0 .0767123 -.41726 -.340548)"/></svg>