<svg clip-rule="evenodd" fill-rule="evenodd" stroke-linejoin="round" stroke-miterlimit="2" viewBox="0 0 8 8" xmlns="http://www.w3.org/2000/svg"><g fill="#808080"><path d="m5.217 1.744-.549-3.49c0-.444.362-.805.81-.805.404 0 .731.325.731.725l.55 4.185c0 .252-.118.478-.301.626-.148.184-.374.301-.626.301l-4.214.127c-.4 0-.725-.327-.725-.731 0-.448.361-.81.805-.81z" transform="matrix(.652513 -.56242 .556268 .645376 .125597 5.71905)"/><path d="m7.605 3.704-2.496 1.092h-.609c-.342 0-.621-.245-.621-.546v-1.092c0-.302.279-.546.621-.546h.596z" transform="matrix(.805222 0 0 .915743 -3.12369 .608433)"/></g></svg>