<?xml version="1.0" encoding="UTF-8" standalone="no"?>
<!DOCTYPE svg PUBLIC "-//W3C//DTD SVG 1.1//EN" "http://www.w3.org/Graphics/SVG/1.1/DTD/svg11.dtd">
<svg width="100%" height="100%" viewBox="0 0 48 48" version="1.1" xmlns="http://www.w3.org/2000/svg" xmlns:xlink="http://www.w3.org/1999/xlink" xml:space="preserve" xmlns:serif="http://www.serif.com/" style="fill-rule:evenodd;clip-rule:evenodd;stroke-linejoin:round;stroke-miterlimit:2;">
    <g transform="matrix(1.2273e-16,-2.00434,-2.00434,-1.2273e-16,47.9342,52.0911)">
        <path d="M18.23,20.475C19.388,21.305 21,20.477 21,19.053L21,4.83C21,3.446 19.47,2.609 18.305,3.357L7.835,10.572C6.795,11.24 6.756,12.747 7.761,13.467L18.23,20.475ZM19.5,19.053C19.5,19.256 19.27,19.374 19.104,19.256L8.635,12.248C8.491,12.145 8.497,11.93 8.645,11.835L19.115,4.619C19.281,4.512 19.5,4.632 19.5,4.83L19.5,19.053Z" style="fill:rgb(26,188,156);fill-rule:nonzero;"/>
    </g>
</svg>
