<svg clip-rule="evenodd" fill-rule="evenodd" stroke-linejoin="round" stroke-miterlimit="2" viewBox="0 0 16 16" xmlns="http://www.w3.org/2000/svg"><g fill="#1abc9c"><path d="m13.141 10.131v4.526c0 .171.068.294.177.379.096.076.205.114.327.114.123 0 .232-.038.328-.114h.001c.107-.086.176-.208.176-.379v-6.324c0-.155-.055-.265-.13-.343-.081-.083-.195-.14-.356-.14-.18 0-.303.065-.384.152-.043.046-.084.101-.122.166l-.622 1.163c-.015.024-.035.059-.06.104-.059.107-.078.198-.078.27 0 .133.048.248.146.344.093.089.21.139.358.139.084 0 .165-.017.239-.057z" fill-rule="nonzero" transform="matrix(1 0 0 .964567 -.15 .386809)"/><path d="m11.784 1c-.112 0-.222.033-.315.095l-1.469 1.405v-.932c0-.312-.175-.568-.487-.568-.311 0-.513.256-.513.568l.011 1.426-4.596.078.008.927 4.577.02v1.413c0 .312.202.568.513.568.312 0 .487-.256.487-.568v-.932l1.469 1.405c.093.062.203.095.315.095h2.716c.311 0 .5-.189.5-.5s-.189-.473-.5-.473h-2.544l-1.419-1.527 1.463-1.507h2.476c.312 0 .524-.182.524-.493s-.256-.5-.568-.5z" fill-rule="nonzero"/><path d="m1.05 3.972.006-.001c-.037-.151-.056-.309-.056-.471 0-1.104.896-2 2-2 1.03 0 1.879.78 1.988 1.781l1.679 6.267c.414.319.72.769.872 1.29h.191c1.147 0 1.27 2.838 1.27 2.838 0 .73-.594 1.324-1.324 1.324h-5.352c-.73 0-1.324-.594-1.324-1.324 0 0 .123-2.838 1.27-2.838h.191l.275-.575zm4.343 4.683.011-.003.418 1.51c.362.206.637.545.758.957.096.328.349.577.677.63l.241.088.072.001c.046.081.122.223.158.326.21.608.262 1.349.271 1.519-.009.182-.151.317-.323.317h-5.352c-.171 0-.311-.133-.323-.301.008-.164.058-.918.271-1.535.036-.103.112-.245.158-.326l.072-.001c.224-.009.433-.093.592-.237l.326-.481c.076-.259.213-.49.395-.676l-.279-1.056-.002.001-.1-.381-.958-3.576c.007.001.013.003.02.005l-.392-1.492c-.067-.134-.104-.284-.104-.444 0-.552.448-1 1-1 .514 0 .937.388.994.887l.81 3.072z"/></g></svg>