<svg clip-rule="evenodd" fill-rule="evenodd" stroke-linejoin="round" stroke-miterlimit="2" viewBox="0 0 16 16" xmlns="http://www.w3.org/2000/svg"><g fill="#1abc9c"><path d="m2.033 7.809.006-.001c-.037-.151-.056-.309-.056-.471 0-1.104.896-2 2-2 1.03 0 1.879.78 1.988 1.781l.696 2.43c.414.319.72.769.872 1.29h.191c1.147 0 1.27 2.838 1.27 2.838 0 .73-.594 1.324-1.324 1.324h-5.352c-.73 0-1.324-.594-1.324-1.324 0 0 .123-2.838 1.27-2.838h.191l.275-.575zm2.944-.585.845 2.938c.362.206.637.545.758.957.096.328.349.577.677.63l.241.088.072.001c.046.081.122.223.158.326.21.608.262 1.349.271 1.519-.009.182-.151.317-.323.317h-5.352c-.171 0-.311-.133-.323-.301.008-.164.058-.918.271-1.535.036-.103.112-.245.158-.326l.072-.001c.224-.009.433-.093.592-.237l.326-.481c.076-.259.213-.49.395-.676l-.728-2.662c-.067-.134-.104-.284-.104-.444 0-.552.448-1 1-1 .514 0 .937.388.994.887z" transform="matrix(-1 0 0 1 16.1602 0)"/><g fill-rule="nonzero"><path d="m11.656 14.137v-.371c0-.141.058-.268.164-.386.152-.17.344-.337.573-.502.248-.177.515-.356.8-.536h.001c.305-.193.591-.401.855-.625.279-.237.51-.495.695-.775.204-.308.307-.66.307-1.057 0-.269-.051-.527-.154-.774v-.001c-.103-.248-.253-.467-.448-.654-.191-.182-.422-.33-.694-.441-.269-.109-.567-.165-.897-.165-.298 0-.57.045-.815.133-.251.09-.466.212-.646.363-.188.158-.335.344-.441.558-.109.219-.164.456-.164.71 0 .22.072.366.16.454.088.09.204.142.351.142.187 0 .315-.07.399-.165.093-.104.131-.217.131-.332 0-.271.077-.482.253-.621.199-.157.451-.23.752-.23.204 0 .382.03.534.095.145.061.266.14.36.239.092.095.161.203.207.326.047.125.071.249.071.372 0 .215-.062.409-.186.582-.15.208-.339.402-.565.584-.244.194-.505.379-.786.556-.3.189-.58.382-.84.577-.278.209-.509.431-.693.663-.218.276-.325.579-.325.91v.877c0 .16.063.291.193.391.109.083.22.116.327.116h3.504c.141 0 .262-.05.362-.152.102-.103.149-.223.149-.355 0-.152-.056-.274-.16-.37l-.001-.001c-.097-.088-.213-.135-.35-.135z" transform="matrix(1 0 0 .97216 -9.615 .271779)"/><path d="m11.784 1c-.112 0-.222.033-.315.095l-1.469 1.405v-.932c0-.312-.175-.568-.487-.568-.311 0-.513.256-.513.568l.011 1.426-2.553.073-.07.948 2.612.004v1.413c0 .312.202.568.513.568.312 0 .487-.256.487-.568v-.932l1.469 1.405c.093.062.203.095.315.095h1.716c.311 0 .5-.189.5-.5s-.189-.473-.5-.473h-1.544l-1.419-1.527 1.463-1.507h1.476c.312 0 .524-.182.524-.493s-.256-.5-.568-.5z" transform="matrix(-.866025 -.5 -.5 .866025 18.2027 6.9746)"/></g></g></svg>