<svg clip-rule="evenodd" fill-rule="evenodd" stroke-linejoin="round" stroke-miterlimit="2" viewBox="0 0 16 16" xmlns="http://www.w3.org/2000/svg"><g fill="#1abc9c"><path d="m14.115 12.959c0 .407-.086.712-.3.902-.222.197-.539.282-.941.282-.265 0-.482-.03-.65-.1-.147-.061-.264-.132-.346-.222v-.001c-.075-.083-.129-.167-.157-.256v-.001c-.03-.09-.047-.165-.047-.227 0-.118-.033-.224-.097-.32-.079-.119-.213-.21-.431-.21-.175 0-.299.068-.386.178-.054.069-.112.203-.112.415 0 .209.048.422.15.635v.001c.098.205.246.395.449.567v.001c.192.161.426.294.705.396.27.099.591.151.962.151.293 0 .57-.038.83-.112h.001c.281-.08.524-.21.731-.389.206-.179.372-.411.496-.699.116-.274.178-.603.178-.991v-.171c0-.504-.125-.896-.351-1.185-.105-.134-.224-.251-.357-.353l.23-.287c.194-.288.303-.69.303-1.209 0-.337-.05-.621-.141-.853h-.001c-.1-.255-.246-.459-.435-.617-.183-.152-.4-.266-.656-.337-.232-.064-.489-.097-.77-.097-.435 0-.787.066-1.057.187-.285.126-.506.284-.668.466-.171.192-.283.39-.341.589-.057.194-.083.357-.083.491 0 .211.061.349.129.431.101.119.23.18.389.18.138 0 .246-.043.329-.111.107-.087.189-.228.189-.446 0-.07.015-.154.042-.251.022-.083.067-.159.131-.231.072-.082.177-.147.31-.206.151-.065.352-.092.601-.092.36 0 .625.058.778.225.156.171.218.425.218.752 0 .345-.054.596-.22.735-.178.15-.453.208-.815.208-.175 0-.299.065-.387.163h-.001c-.088.1-.13.214-.13.34s.042.241.131.34c.083.094.21.163.397.163.383 0 .689.08.912.261.202.164.289.416.289.744z" fill-rule="nonzero" transform="matrix(1 0 0 .956974 -9.648 .50184)"/><path d="m2.033 7.809.006-.001c-.037-.151-.056-.309-.056-.471 0-1.104.896-2 2-2 1.03 0 1.879.78 1.988 1.781l.696 2.43c.414.319.72.769.872 1.29h.191c1.147 0 1.27 2.838 1.27 2.838 0 .73-.594 1.324-1.324 1.324h-5.352c-.73 0-1.324-.594-1.324-1.324 0 0 .123-2.838 1.27-2.838h.191l.275-.575zm2.944-.585.845 2.938c.362.206.637.545.758.957.096.328.349.577.677.63l.241.088.072.001c.046.081.122.223.158.326.21.608.262 1.349.271 1.519-.009.182-.151.317-.323.317h-5.352c-.171 0-.311-.133-.323-.301.008-.164.058-.918.271-1.535.036-.103.112-.245.158-.326l.072-.001c.224-.009.433-.093.592-.237l.326-.481c.076-.259.213-.49.395-.676l-.728-2.662c-.067-.134-.104-.284-.104-.444 0-.552.448-1 1-1 .514 0 .937.388.994.887z" transform="matrix(-1 0 0 1 16.1602 0)"/><path d="m11.784 1c-.112 0-.222.033-.315.095l-1.469 1.405v-.932c0-.312-.175-.568-.487-.568-.311 0-.513.256-.513.568l.011 1.426-2.553.073-.07.948 2.612.004v1.413c0 .312.202.568.513.568.312 0 .487-.256.487-.568v-.932l1.469 1.405c.093.062.203.095.315.095h1.716c.311 0 .5-.189.5-.5s-.189-.473-.5-.473h-1.544l-1.419-1.527 1.463-1.507h1.476c.312 0 .524-.182.524-.493s-.256-.5-.568-.5z" fill-rule="nonzero" transform="matrix(-.866025 -.5 -.5 .866025 18.2027 6.9746)"/></g></svg>