<svg clip-rule="evenodd" fill-rule="evenodd" stroke-linejoin="round" stroke-miterlimit="2" viewBox="0 0 16 16" xmlns="http://www.w3.org/2000/svg"><path d="m9.16 16.869c.204.186.52.172.706-.032.187-.204.172-.52-.032-.706l-6.168-5.631h13.831c.276 0 .5-.224.5-.5s-.224-.5-.5-.5h-13.828l6.165-5.628c.204-.186.219-.503.032-.706-.186-.204-.502-.219-.706-.033l-6.916 6.314c-.14.128-.22.296-.24.469-.005.027-.007.055-.007.084 0 .027.002.053.006.079.018.176.099.347.241.476z" fill="#1abc9c" fill-rule="nonzero" transform="translate(-1.99708 -2.50264)"/></svg>