<svg clip-rule="evenodd" fill-rule="evenodd" stroke-linejoin="round" stroke-miterlimit="2" viewBox="0 0 16 16" xmlns="http://www.w3.org/2000/svg"><path d="m3 3.5c0-1.381 1.119-2.5 2.5-2.5h5c1.381 0 2.5 1.119 2.5 2.5v11c0 .188-.105.36-.273.446-.168.085-.369.069-.521-.041l-4.206-3.787-4.206 3.787c-.152.11-.353.126-.521.041-.167-.086-.273-.258-.273-.446zm2.5-1.5c-.828 0-1.5.672-1.5 1.5v10.018l3.706-3.422c.175-.128.413-.128.588 0l3.706 3.422v-10.018c0-.828-.672-1.5-1.5-1.5z" fill="#1abc9c" fill-rule="nonzero"/></svg>