<svg clip-rule="evenodd" fill-rule="evenodd" stroke-linejoin="round" stroke-miterlimit="2" viewBox="0 0 16 16" xmlns="http://www.w3.org/2000/svg"><g fill="#1abc9c" fill-rule="nonzero"><path d="m1.015 13.503 3.437-10.362c.075-.243.241-.366.501-.366.252 0 .422.117.512.352.001.003.002.007.004.01l3.411 10.378c.003.011.006.023.008.034.011.03.019.066.019.11 0 .137-.057.258-.182.356-.103.08-.223.121-.361.121-.232 0-.39-.112-.467-.346l-.758-2.274h-4.402l-.743 2.273c-.075.227-.238.347-.499.347-.122 0-.23-.033-.325-.098-.12-.081-.186-.201-.186-.364 0-.072.013-.129.031-.171zm7.87.04c-.006-.023-.016-.041-.027-.054-.012-.014-.023-.024-.031-.031.018.016.041.043.058.085zm-5.825-3.01h3.756l-1.864-5.689z"/><path d="m13.993 9.866v-.189c0-.256-.037-.511-.11-.767-.072-.25-.181-.475-.33-.676-.144-.195-.333-.353-.565-.475-.236-.123-.524-.181-.864-.181-.225 0-.424.017-.595.054-.17.036-.316.079-.438.129-.13.053-.239.099-.328.138-.13.057-.228.079-.289.079-.159 0-.29-.067-.389-.206-.089-.124-.121-.233-.121-.316 0-.122.072-.273.278-.404.13-.083.298-.159.505-.225.194-.062.413-.114.657-.155.245-.042.496-.063.752-.063.525 0 .967.088 1.326.259.367.174.664.409.891.702.224.29.386.62.484.991.094.359.142.731.142 1.116v3.968c0 .143-.048.259-.135.348-.087.091-.205.143-.36.143-.148 0-.267-.048-.36-.134-.098-.092-.151-.21-.151-.357v-.257c-.199.162-.418.315-.659.458-.424.251-.922.379-1.495.379-.33 0-.639-.043-.928-.127-.3-.088-.561-.223-.785-.404-.228-.185-.405-.414-.531-.688-.123-.268-.187-.588-.187-.96 0-.449.108-.815.312-1.101.201-.282.481-.507.843-.673.341-.157.752-.265 1.233-.323.463-.055.974-.083 1.534-.083zm0 .969h-.647c-.406 0-.795.014-1.164.044-.356.028-.674.088-.954.181-.257.086-.462.207-.613.369-.139.15-.201.357-.201.617 0 .417.117.725.375.913.276.201.622.298 1.034.298.269 0 .533-.05.792-.149.267-.101.506-.227.719-.379.205-.147.371-.307.495-.481.104-.146.164-.275.164-.395z"/></g></svg>