<svg clip-rule="evenodd" fill-rule="evenodd" stroke-linejoin="round" stroke-miterlimit="2" viewBox="0 0 48 48" xmlns="http://www.w3.org/2000/svg"><path d="m0 0h48v48h-48z" fill="none" stroke-width="3"/><path d="m24 25.659-7.767 7.767c-.348.348-.887.386-1.277.116l-.137-.115c-.348-.347-.386-.888-.115-1.277l.114-.138s6.665-6.665 8.413-8.413c.425-.424 1.113-.424 1.538 0 1.748 1.748 8.413 8.413 8.413 8.413.348.348.385.886.115 1.276l-.114.137c-.347.349-.889.387-1.278.116l-.138-.115zm0-9-7.767 7.767c-.348.348-.887.386-1.277.116l-.137-.115c-.348-.347-.386-.888-.115-1.277l.114-.138s6.665-6.665 8.413-8.413c.425-.424 1.113-.424 1.538 0 1.748 1.748 8.413 8.413 8.413 8.413.348.348.385.886.115 1.276l-.114.137c-.347.349-.889.387-1.278.116l-.138-.115z" fill="#878787" fill-rule="nonzero" transform="matrix(1 0 0 -1 0 48)"/></svg>