<svg clip-rule="evenodd" fill-rule="evenodd" stroke-linejoin="round" stroke-miterlimit="2" viewBox="0 0 48 48" xmlns="http://www.w3.org/2000/svg"><path d="m0 0h16.000008v16.000008h-16.000008z" fill="none" stroke-width=".666667"/><path d="m25.419 34.074-.582.581c-.459.46-1.204.46-1.663.001l-8.571-8.571c-.157-.157-.246-.371-.246-.594 0-.222.089-.436.246-.593l1.641-1.64c.157-.158.37-.246.593-.246.222 0 .436.088.593.246l6.575 6.575 6.576-6.575c.157-.158.37-.246.593-.246s.436.089.593.246l1.641 1.64c.157.158.246.371.246.594 0 .222-.089.435-.246.593zm1.414-11.41-1.989 1.989c-.222.222-.524.347-.838.347-.315 0-.617-.125-.839-.347l-8.592-8.591c-.15-.151-.234-.354-.234-.566s.084-.416.234-.566l1.697-1.696c.149-.15.353-.234.565-.234s.415.084.566.234l6.602 6.603 6.585-6.584c.155-.155.365-.242.584-.242s.429.087.584.242l1.659 1.659c.155.155.242.365.242.584s-.087.429-.242.584z" fill="#878787"/></svg>