<svg clip-rule="evenodd" fill-rule="evenodd" stroke-linejoin="round" stroke-miterlimit="2" viewBox="0 0 16 16" xmlns="http://www.w3.org/2000/svg"><g fill="#1abc9c"><path d="m5.952 1.417-2.119 13.011c-.053.327.169.636.496.689s.636-.169.689-.496l2.118-13.012c.053-.326-.169-.635-.496-.688s-.635.169-.688.496z"/><path d="m10.952 1.417-2.119 13.011c-.053.327.169.636.496.689s.636-.169.689-.496l2.118-13.012c.053-.326-.169-.635-.496-.688s-.635.169-.688.496z"/><path d="m2.248 7.1h12.088c.331 0 .6-.269.6-.6s-.269-.6-.6-.6h-12.088c-.331 0-.6.269-.6.6s.269.6.6.6z" transform="translate(0 -.9)"/><path d="m1.721 11.1h12.142c.331 0 .6-.269.6-.6s-.269-.6-.6-.6h-12.142c-.331 0-.6.269-.6.6s.269.6.6.6z" transform="translate(0 .1)"/></g></svg>