<svg clip-rule="evenodd" fill-rule="evenodd" stroke-linejoin="round" stroke-miterlimit="2" viewBox="0 0 16 16" xmlns="http://www.w3.org/2000/svg"><path d="m14.513 11.025c.269 0 .487.218.487.488 0 .246-.183.45-.421.483l-.066.004h-2.513v2.513c0 .269-.218.487-.488.487-.246 0-.45-.183-.483-.421l-.004-.066v-2.513h-4.912c-1.126 0-2.047-.882-2.109-1.993l-.003-.119-.001-4.913h-2.513c-.269 0-.487-.218-.487-.487 0-.247.183-.451.421-.484l.067-.004h2.512l.001-2.513c0-.269.218-.487.487-.487.247 0 .451.183.483.421l.005.066-.001 2.513h.001v.975h-.001l.001 4.913c0 .596.459 1.086 1.044 1.133l.093.004zm-8.513-7.025h3.887c1.127 0 2.048.882 2.11 1.993l.003.12-.046 3.983h-.929v-3.983c0-.597-.46-1.087-1.044-1.134l-.094-.004h-3.887z" fill="#1abc9c" fill-rule="nonzero"/></svg>