<svg clip-rule="evenodd" fill-rule="evenodd" stroke-linejoin="round" stroke-miterlimit="2" viewBox="0 0 16 16" xmlns="http://www.w3.org/2000/svg"><g fill="#1abc9c" fill-rule="nonzero"><path d="m12.721 11.845h-11.057l-.154.154c-.204.203-.204.538 0 .742l2.098 2.098c.099.103.236.161.378.161.288 0 .525-.237.525-.525 0-.142-.058-.279-.161-.378l-1.203-1.203h9.574c1.059 0 1.923-.863 1.923-1.923v-5.644l-1.049 1.049v4.595c0 .483-.392.874-.874.874z"/><g transform="matrix(.4924 0 0 .4924 -4.71636 -2.58765)"><path d="m20.431 25.798c-1.344 0-2.338-.35-2.982-1.05s-.966-1.79-.966-3.27c0-2.848 1.336-4.272 4.008-4.272.4 0 .808.042 1.224.126s.74.194.972.33c.208.12.312.248.312.384 0 .112-.044.258-.132.438s-.194.34-.318.48-.234.21-.33.21c-.024 0-.12-.036-.288-.108s-.372-.136-.612-.192-.528-.084-.864-.084c-.704 0-1.226.224-1.566.672s-.51 1.124-.51 2.028c0 1.824.684 2.736 2.052 2.736.36 0 .672-.036.936-.108s.52-.164.768-.276c.128-.064.216-.096.264-.096.12 0 .234.068.342.204s.196.29.264.462.102.298.102.378c0 .208-.14.392-.42.552-.264.152-.612.266-1.044.342s-.836.114-1.212.114z"/><path d="m26.455 25.798c-.568 0-1.064-.056-1.488-.168s-.756-.256-.996-.432c-.224-.152-.336-.304-.336-.456 0-.12.044-.264.132-.432s.192-.316.312-.444.22-.192.3-.192c.048 0 .16.048.336.144.256.128.488.228.696.3s.452.108.732.108c.312 0 .578-.062.798-.186s.33-.342.33-.654c0-.256-.102-.458-.306-.606s-.534-.314-.99-.498l-.552-.24c-.504-.24-.9-.538-1.188-.894s-.432-.862-.432-1.518c0-.544.134-.998.402-1.362s.618-.632 1.05-.804.896-.258 1.392-.258c.408 0 .778.042 1.11.126s.594.194.786.33c.176.128.264.256.264.384 0 .112-.036.252-.108.42s-.16.314-.264.438-.2.186-.288.186c-.04 0-.106-.02-.198-.06s-.17-.072-.234-.096c-.288-.096-.588-.144-.9-.144-.416 0-.706.068-.87.204s-.246.292-.246.468c0 .208.056.38.168.516s.248.246.408.33.396.194.708.33c.456.192.828.374 1.116.546s.538.42.75.744.318.738.318 1.242c0 .616-.13 1.12-.39 1.512s-.594.676-1.002.852-.848.264-1.32.264z"/><path d="m32.455 25.798c-.568 0-1.064-.056-1.488-.168s-.756-.256-.996-.432c-.224-.152-.336-.304-.336-.456 0-.12.044-.264.132-.432s.192-.316.312-.444.22-.192.3-.192c.048 0 .16.048.336.144.256.128.488.228.696.3s.452.108.732.108c.312 0 .578-.062.798-.186s.33-.342.33-.654c0-.256-.102-.458-.306-.606s-.534-.314-.99-.498l-.552-.24c-.504-.24-.9-.538-1.188-.894s-.432-.862-.432-1.518c0-.544.134-.998.402-1.362s.618-.632 1.05-.804.896-.258 1.392-.258c.408 0 .778.042 1.11.126s.594.194.786.33c.176.128.264.256.264.384 0 .112-.036.252-.108.42s-.16.314-.264.438-.2.186-.288.186c-.04 0-.106-.02-.198-.06s-.17-.072-.234-.096c-.288-.096-.588-.144-.9-.144-.416 0-.706.068-.87.204s-.246.292-.246.468c0 .208.056.38.168.516s.248.246.408.33.396.194.708.33c.456.192.828.374 1.116.546s.538.42.75.744.318.738.318 1.242c0 .616-.13 1.12-.39 1.512s-.594.676-1.002.852-.848.264-1.32.264z"/></g><path d="m3.279 4.153 11.056.001.155-.155c.204-.204.204-.538 0-.742l-2.098-2.098c-.099-.102-.234-.159-.376-.159-.288 0-.525.237-.525.525 0 .141.058.277.159.376l1.203 1.203h-9.574c-1.059 0-1.923.863-1.923 1.923v5.644l1.049-1.049v-4.595c0-.483.392-.874.874-.874z"/></g></svg>