<?xml version="1.0" encoding="UTF-8" standalone="no"?>
<!DOCTYPE svg PUBLIC "-//W3C//DTD SVG 1.1//EN" "http://www.w3.org/Graphics/SVG/1.1/DTD/svg11.dtd">
<svg width="100%" height="100%" viewBox="0 0 16 16" version="1.1" xmlns="http://www.w3.org/2000/svg" xmlns:xlink="http://www.w3.org/1999/xlink" xml:space="preserve" xmlns:serif="http://www.serif.com/" style="fill-rule:evenodd;clip-rule:evenodd;stroke-linejoin:round;stroke-miterlimit:2;">
    <g transform="matrix(0.9375,0,0,0.9375,-1.875,-1.875)">
        <path d="M10,2C14.418,2 18,5.582 18,10C18,14.418 14.418,18 10,18C5.582,18 2,14.418 2,10C2,5.582 5.582,2 10,2ZM10,3.067C6.134,3.067 3.067,6.134 3.067,10C3.067,13.866 6.134,16.933 10,16.933C13.866,16.933 16.933,13.866 16.933,10C16.933,6.134 13.866,3.067 10,3.067ZM10,6C10.276,6 10.533,6.224 10.533,6.5L10.533,9.467L13.5,9.467C13.776,9.467 14,9.724 14,10C14,10.276 13.776,10.533 13.5,10.533L10.533,10.533L10.533,13.5C10.533,13.776 10.276,14 10,14C9.724,14 9.467,13.776 9.467,13.5L9.467,10.533L6.5,10.533C6.224,10.533 6,10.276 6,10C6,9.724 6.224,9.467 6.5,9.467L9.467,9.467L9.467,6.5C9.467,6.224 9.724,6 10,6Z" style="fill:rgb(26,188,156);fill-rule:nonzero;"/>
    </g>
</svg>
