<?xml version="1.0" encoding="UTF-8" standalone="no"?>
<!DOCTYPE svg PUBLIC "-//W3C//DTD SVG 1.1//EN" "http://www.w3.org/Graphics/SVG/1.1/DTD/svg11.dtd">
<svg width="100%" height="100%" viewBox="0 0 16 16" version="1.1" xmlns="http://www.w3.org/2000/svg" xmlns:xlink="http://www.w3.org/1999/xlink" xml:space="preserve" xmlns:serif="http://www.serif.com/" style="fill-rule:evenodd;clip-rule:evenodd;stroke-linejoin:round;stroke-miterlimit:2;">
    <g transform="matrix(1,0,0,1,-2,-2)">
        <path d="M3,5C3,3.895 3.895,3 5,3L13.379,3C13.909,3 14.418,3.211 14.793,3.586L16.414,5.207C16.789,5.582 17,6.091 17,6.621L17,15C17,16.105 16.105,17 15,17L5,17C3.895,17 3,16.105 3,15L3,5ZM5,4C4.448,4 4,4.448 4,5L4,15C4,15.552 4.448,16 5,16L5,11.5C5,10.672 5.672,10 6.5,10L13.5,10C14.328,10 15,10.672 15,11.5L15,16C15.552,16 16,15.552 16,15L16,6.621C16,6.356 15.895,6.102 15.707,5.914L14.086,4.293C13.898,4.105 13.644,4 13.379,4L13,4L13,6.5C13,7.328 12.328,8 11.5,8L7.5,8C6.672,8 6,7.328 6,6.5L6,4L5,4ZM7,4L7,6.5C7,6.776 7.224,7 7.5,7L11.5,7C11.776,7 12,6.776 12,6.5L12,4L7,4ZM14,16L14,11.5C14,11.224 13.776,11 13.5,11L6.5,11C6.224,11 6,11.224 6,11.5L6,16L14,16Z" style="fill:rgb(26,188,156);fill-rule:nonzero;"/>
    </g>
</svg>
