<svg clip-rule="evenodd" fill-rule="evenodd" stroke-linejoin="round" stroke-miterlimit="2" viewBox="0 0 16 16" xmlns="http://www.w3.org/2000/svg"><path d="m16.996 7.073v-.073c0-1.381-1.119-2.5-2.5-2.5h-4.832l-1.6-1.2c-.259-.195-.575-.3-.9-.3h-2.664c-1.381 0-2.5 1.119-2.5 2.5l.001 8.998c.001 1.279.962 2.334 2.202 2.482.084.015.171.022.26.022h10.717c.718 0 1.336-.509 1.473-1.214l1.357-7c.149-.768-.314-1.491-1.014-1.715zm-12.496-3.073h2.664c.108 0 .214.035.3.1l1.734 1.3c.086.065.192.1.3.1h4.998c.828 0 1.5.672 1.5 1.5v.002h-10.172c-.718 0-1.335.509-1.472 1.214l-1.298 6.676c-.034-.126-.053-.258-.053-.394l-.001-8.998c0-.828.672-1.5 1.5-1.5zm.833 4.407c.046-.235.252-.405.491-.405h10.713c.315 0 .551.287.491.595l-1.357 7c-.046.235-.252.405-.491.405h-10.717c-.314 0-.551-.287-.491-.595z" fill="#1abc9c" fill-rule="nonzero" transform="translate(-2.0379 -2.0021)"/></svg>