<svg clip-rule="evenodd" fill-rule="evenodd" stroke-linejoin="round" stroke-miterlimit="2" viewBox="0 0 16 16" xmlns="http://www.w3.org/2000/svg"><path d="m3 5c0-1.105.895-2 2-2h8.379c.53 0 1.039.211 1.414.586l1.621 1.621c.375.375.586.884.586 1.414v8.379c0 1.105-.895 2-2 2h-10c-1.105 0-2-.895-2-2zm2-1c-.552 0-1 .448-1 1v10c0 .552.448 1 1 1v-4.5c0-.828.672-1.5 1.5-1.5h7c.828 0 1.5.672 1.5 1.5v4.5c.552 0 1-.448 1-1v-8.379c0-.265-.105-.519-.293-.707l-1.621-1.621c-.188-.188-.442-.293-.707-.293h-.379v2.5c0 .828-.672 1.5-1.5 1.5h-4c-.828 0-1.5-.672-1.5-1.5v-2.5zm2 0v2.5c0 .276.224.5.5.5h4c.276 0 .5-.224.5-.5v-2.5zm7 12v-4.5c0-.276-.224-.5-.5-.5h-7c-.276 0-.5.224-.5.5v4.5z" fill="#1abc9c" fill-rule="nonzero" transform="translate(-2 -2)"/></svg>