<svg clip-rule="evenodd" fill-rule="evenodd" stroke-linejoin="round" stroke-miterlimit="2" viewBox="0 0 16 16" xmlns="http://www.w3.org/2000/svg"><g fill="#1abc9c" fill-rule="nonzero" transform="translate(-2 -2)"><path d="m4.943 3c.209.003.394.136.464.333l1.774 5c.092.26-.044.546-.304.638-.26.093-.546-.044-.638-.304l-.259-.728v.061h-2.25l-.264.681c-.099.257-.389.385-.646.285-.258-.099-.386-.389-.286-.646l1.935-5c.076-.195.265-.323.474-.32zm-.028 1.938-.798 2.062h1.53z"/><path d="m17.408 4.529c-.246-.686-.604-1.106-1.053-1.328-.41-.202-.833-.201-1.109-.201h-.027c-.554 0-.994.19-1.327.487-.322.288-.521.656-.646.99-.125.336-.186.665-.215.905-.015.121-.023.223-.027.296-.002.036-.003.066-.003.087l-.001.038v.022c0 .383 0 1.085.249 1.724.131.335.335.669.657.936.325.268.742.445 1.257.503.417.046 1.663.013 2.23-1.246.114-.252.002-.548-.25-.661s-.548-.001-.661.25c-.293.649-.93.694-1.208.663-.344-.039-.571-.149-.73-.28-.162-.134-.279-.313-.363-.529-.176-.449-.181-.981-.181-1.382v-.013c.001-.013.001-.033.003-.059.003-.053.008-.131.02-.226.024-.192.071-.439.16-.679.091-.241.214-.449.375-.593.151-.135.355-.233.661-.233.303 0 .509.008.694.098.157.078.37.257.554.769.093.26.379.395.639.301.26-.093.395-.379.302-.639z"/><path d="m11.473 5.836c.196-.267.32-.622.32-1.077 0-.376-.074-.696-.218-.961-.147-.267-.35-.449-.564-.57-.406-.228-.846-.228-1.008-.228h-1.503c-.276 0-.5.224-.5.5v5c0 .276.224.5.5.5h1.75c.218 0 .663-.035 1.07-.271.446-.26.798-.736.798-1.488 0-.383-.084-.71-.246-.977-.111-.183-.25-.322-.399-.428zm-.952-1.736c.069.039.13.093.176.178.049.089.096.236.096.481 0 .397-.15.543-.275.619-.164.099-.374.122-.495.122h-1.023v-1.5h1c.158 0 .361.01.521.1zm-1.157 2.4h.007.815c.187 0 .433.007.628.103.087.043.154.1.204.181.049.082.1.22.1.457 0 .384-.152.537-.301.623-.187.109-.427.136-.567.136h-1.25v-1.5z"/><path d="m13.751 10.817c.175-.214.143-.529-.071-.704-.213-.175-.528-.143-.703.07l-3.741 4.573-1.882-1.882c-.196-.195-.512-.195-.708 0-.195.195-.195.512 0 .707l2.273 2.273c.1.1.238.152.379.145s.272-.073.362-.182z"/></g></svg>