<svg clip-rule="evenodd" fill-rule="evenodd" stroke-linejoin="round" stroke-miterlimit="2" viewBox="0 0 16 16" xmlns="http://www.w3.org/2000/svg"><path d="m10.586 2c.398 0 .779.158 1.06.439l3.915 3.915c.281.281.439.662.439 1.06v8.586c0 1.105-.895 2-2 2h-8c-1.105 0-2-.895-2-2v-12c0-1.105.895-2 2-2zm-.586 1h-4c-.552 0-1 .448-1 1v12c0 .552.448 1 1 1h8c.552 0 1-.448 1-1v-8h-3.5c-.828 0-1.5-.672-1.5-1.5zm1 .207v3.293c0 .276.224.5.5.5h3.293z" fill="#1abc9c" fill-rule="nonzero" transform="translate(-2 -2)"/></svg>