<svg clip-rule="evenodd" fill-rule="evenodd" stroke-linejoin="round" stroke-miterlimit="2" viewBox="0 0 16 16" xmlns="http://www.w3.org/2000/svg"><g fill="#1abc9c" fill-rule="nonzero"><path d="m16 8.003-4.5-.003c-.828 0-1.5-.672-1.5-1.5v-3.5h-4c-.552 0-1 .448-1 1v12c0 .552.448 1 1 1l3 .002v1l-3-.002c-1.105 0-2-.895-2-2v-12c0-1.105.895-2 2-2h4.586c.141 0 .281.02.414.058.242.07.465.2.646.381l3.915 3.915c.181.181.311.404.381.646l.001.005c.005.017.01.034.014.052.028.116.043.236.043.357zm-1.207-1.003-3.793-3.793v3.293c0 .276.224.5.5.5z" transform="translate(-2 -2)"/><path d="m7.586 13c-.613 0-1.093.555-1.093 1.136 0 .277-.224.5-.5.5s-.5-.223-.5-.5c0-1.054.852-2.136 2.093-2.136.73 0 1.429.343 1.817.944.404.624.423 1.442-.057 2.263-.244.417-.58.735-.913 1-.167.133-.34.256-.504.373-.023.017-.047.033-.07.05-.141.1-.274.194-.403.291-.439.333-.757.648-.891 1.079h2.595c.277 0 .5.224.5.5s-.223.5-.5.5h-3.152-.015c-.276 0-.5-.224-.5-.5 0-1.195.691-1.87 1.36-2.376.142-.107.289-.212.429-.311.023-.016.046-.032.068-.048.163-.116.316-.227.461-.341.289-.23.517-.457.671-.722.318-.542.252-.952.082-1.214-.185-.286-.549-.488-.978-.488z" transform="matrix(1.28244 0 0 1.28244 1.55274 -8.39762)"/></g></svg>