<svg clip-rule="evenodd" fill-rule="evenodd" stroke-linejoin="round" stroke-miterlimit="2" viewBox="0 0 16 16" xmlns="http://www.w3.org/2000/svg"><g fill="#1abc9c" fill-rule="nonzero"><path d="m16 8.003-4.5-.003c-.828 0-1.5-.672-1.5-1.5v-3.5h-4c-.552 0-1 .448-1 1v12c0 .552.448 1 1 1l3 .002v1l-3-.002c-1.105 0-2-.895-2-2v-12c0-1.105.895-2 2-2h4.586c.141 0 .281.02.414.058.242.07.465.2.646.381l3.915 3.915c.181.181.311.404.381.646l.001.005c.005.017.01.034.014.052.028.116.043.236.043.357zm-1.207-1.003-3.793-3.793v3.293c0 .276.224.5.5.5z" transform="translate(-2 -2)"/><path d="m12.069 13.27c-.164.145-.251.327-.288.457-.076.266-.352.42-.618.345-.265-.076-.42-.352-.344-.618.076-.269.248-.633.586-.933.348-.308.841-.521 1.501-.521 1.344 0 2.107.984 2.107 1.864 0 .352-.068.893-.431 1.353-.072.091-.153.175-.243.253.135.1.262.223.369.374.196.277.305.619.305 1.02 0 .73-.244 1.291-.678 1.659-.42.356-.951.477-1.429.477-.452 0-.894-.076-1.272-.317-.388-.247-.649-.628-.809-1.118-.086-.263.057-.545.319-.631.263-.086.545.057.631.32.107.327.248.492.396.586.157.099.385.16.735.16.326 0 .598-.084.781-.239.169-.143.326-.401.326-.897 0-.213-.055-.349-.121-.442-.07-.098-.174-.181-.316-.248-.298-.14-.677-.174-.937-.174-.276 0-.5-.224-.5-.5s.224-.5.5-.5c.705 0 1.011-.217 1.158-.403.165-.208.216-.486.216-.733 0-.321-.308-.864-1.107-.864-.43 0-.683.133-.837.27z" transform="matrix(1.28571 0 0 1.28571 -5.30243 -8.42857)"/></g></svg>