<?xml version="1.0" encoding="UTF-8" standalone="no"?>
<!DOCTYPE svg PUBLIC "-//W3C//DTD SVG 1.1//EN" "http://www.w3.org/Graphics/SVG/1.1/DTD/svg11.dtd">
<svg width="100%" height="100%" viewBox="0 0 16 16" version="1.1" xmlns="http://www.w3.org/2000/svg" xmlns:xlink="http://www.w3.org/1999/xlink" xml:space="preserve" xmlns:serif="http://www.serif.com/" style="fill-rule:evenodd;clip-rule:evenodd;stroke-linejoin:round;stroke-miterlimit:2;">
    <g id="Pencil" transform="matrix(1,0,0,1,-1.99579,-2.01519)">
        <path d="M13.245,2.817C14.332,1.731 16.094,1.731 17.181,2.817C18.222,3.859 18.266,5.521 17.311,6.614L17.181,6.753L7.575,16.359C7.37,16.564 7.123,16.722 6.852,16.821L6.687,16.874L2.632,17.98C2.285,18.075 1.965,17.786 2.003,17.446L2.018,17.366L3.124,13.311C3.2,13.031 3.336,12.772 3.522,12.551L3.639,12.423L13.245,2.817ZM12.385,5.092L4.346,13.13C4.254,13.223 4.181,13.332 4.131,13.451L4.089,13.574L3.212,16.785L6.424,15.909C6.508,15.887 6.588,15.853 6.663,15.81L6.77,15.738L6.868,15.652L14.906,7.613L12.385,5.092ZM16.474,3.525C15.816,2.867 14.772,2.83 14.072,3.415L13.952,3.525L13.092,4.385L15.613,6.906L16.474,6.046C17.131,5.388 17.168,4.345 16.583,3.644L16.474,3.525Z" style="fill:rgb(26,188,156);fill-rule:nonzero;"/>
    </g>
    <path d="M11.885,9.406L15.042,14.453C15.235,14.761 15.246,15.15 15.069,15.468C14.893,15.786 14.558,15.983 14.195,15.983C13.077,15.983 11.696,15.983 10.831,15.983C10.314,15.983 9.833,15.717 9.559,15.279L8.194,13.097L11.885,9.406ZM14.195,14.983L11.704,11.002L9.464,13.241L10.407,14.748C10.498,14.894 10.659,14.983 10.831,14.983L14.195,14.983ZM4.117,6.58L0.958,1.53C0.765,1.222 0.754,0.834 0.931,0.515C1.107,0.197 1.442,0 1.805,0C2.923,0 4.304,0 5.169,0C5.686,0 6.167,0.266 6.441,0.704L7.807,2.889L4.117,6.58ZM1.805,1L4.298,4.984L6.538,2.745L5.593,1.235C5.502,1.089 5.341,1 5.169,1L1.805,1Z" style="fill:rgb(26,188,156);"/>
</svg>
