<svg clip-rule="evenodd" fill-rule="evenodd" stroke-linejoin="round" stroke-miterlimit="2" viewBox="0 0 16 16" xmlns="http://www.w3.org/2000/svg"><path d="m10 2c4.418 0 8 3.582 8 8s-3.582 8-8 8-8-3.582-8-8 3.582-8 8-8zm0 1.067c-3.866 0-6.933 3.067-6.933 6.933s3.067 6.933 6.933 6.933 6.933-3.067 6.933-6.933-3.067-6.933-6.933-6.933zm0 2.933c.276 0 .533.224.533.5v2.967h2.967c.276 0 .5.257.5.533s-.224.533-.5.533h-2.967v2.967c0 .276-.257.5-.533.5s-.533-.224-.533-.5v-2.967h-2.967c-.276 0-.5-.257-.5-.533s.224-.533.5-.533h2.967v-2.967c0-.276.257-.5.533-.5z" fill="#1abc9c" fill-rule="nonzero" transform="matrix(.9375 0 0 .9375 -1.875 -1.875)"/></svg>