<svg clip-rule="evenodd" fill-rule="evenodd" stroke-linejoin="round" stroke-miterlimit="2" viewBox="0 0 16 16" xmlns="http://www.w3.org/2000/svg"><path d="m5.5 3c-1.381 0-2.5 1.119-2.5 2.5v9c0 1.381 1.119 2.5 2.5 2.5h9c1.381 0 2.5-1.119 2.5-2.5v-5.672c0-.663-.263-1.299-.732-1.767l-3.329-3.329c-.468-.469-1.104-.732-1.767-.732zm-1.5 2.5c0-.828.672-1.5 1.5-1.5h5.5v3.5c0 .828.672 1.5 1.5 1.5h3.5v5.5c0 .828-.672 1.5-1.5 1.5h-9c-.828 0-1.5-.672-1.5-1.5zm11.751 2.5h-3.251c-.276 0-.5-.224-.5-.5v-3.25c.083.054.161.118.232.189l3.329 3.329c.071.071.134.149.19.232z" fill="#1abc9c" fill-rule="nonzero" transform="translate(-2 -2)"/></svg>