<?xml version="1.0" encoding="UTF-8" standalone="no"?>
<!DOCTYPE svg PUBLIC "-//W3C//DTD SVG 1.1//EN" "http://www.w3.org/Graphics/SVG/1.1/DTD/svg11.dtd">
<svg width="100%" height="100%" viewBox="0 0 16 16" version="1.1" xmlns="http://www.w3.org/2000/svg" xmlns:xlink="http://www.w3.org/1999/xlink" xml:space="preserve" xmlns:serif="http://www.serif.com/" style="fill-rule:evenodd;clip-rule:evenodd;stroke-linejoin:round;stroke-miterlimit:2;">
    <g transform="matrix(1,0,0,1,-2,-2)">
        <path d="M5,4.5C5,3.672 5.672,3 6.5,3L13.5,3C14.328,3 15,3.672 15,4.5L15,5L15.5,5C16.881,5 18,6.119 18,7.5L18,12.5C18,13.328 17.328,14 16.5,14L15,14L15,15.5C15,16.328 14.328,17 13.5,17L6.5,17C5.672,17 5,16.328 5,15.5L5,14L3.5,14C2.672,14 2,13.328 2,12.5L2,7.5C2,6.119 3.119,5 4.5,5L5,5L5,4.5ZM6,5L14,5L14,4.5C14,4.224 13.776,4 13.5,4L6.5,4C6.224,4 6,4.224 6,4.5L6,5ZM5,13L5,11.5C5,10.672 5.672,10 6.5,10L13.5,10C14.328,10 15,10.672 15,11.5L15,13L16.5,13C16.776,13 17,12.776 17,12.5L17,7.5C17,6.672 16.328,6 15.5,6L4.5,6C3.672,6 3,6.672 3,7.5L3,12.5C3,12.776 3.224,13 3.5,13L5,13ZM6.5,11C6.224,11 6,11.224 6,11.5L6,15.5C6,15.776 6.224,16 6.5,16L13.5,16C13.776,16 14,15.776 14,15.5L14,11.5C14,11.224 13.776,11 13.5,11L6.5,11Z" style="fill:rgb(26,188,156);fill-rule:nonzero;"/>
    </g>
</svg>
