<svg clip-rule="evenodd" fill-rule="evenodd" stroke-linejoin="round" stroke-miterlimit="2" viewBox="0 0 16 16" xmlns="http://www.w3.org/2000/svg"><g fill="#1abc9c"><path d="m13.245 2.817c1.087-1.086 2.849-1.086 3.936 0 1.041 1.042 1.085 2.704.13 3.797l-.13.139-9.606 9.606c-.205.205-.452.363-.723.462l-.165.053-4.055 1.106c-.347.095-.667-.194-.629-.534l.015-.08 1.106-4.055c.076-.28.212-.539.398-.76l.117-.128zm-.86 2.275-8.039 8.038c-.092.093-.165.202-.215.321l-.042.123-.877 3.211 3.212-.876c.084-.022.164-.056.239-.099l.107-.072.098-.086 8.038-8.039zm4.089-1.567c-.658-.658-1.702-.695-2.402-.11l-.12.11-.86.86 2.521 2.521.861-.86c.657-.658.694-1.701.109-2.402z" fill-rule="nonzero" transform="translate(-1.99579 -2.01519)"/><path d="m11.885 9.406 3.157 5.047c.193.308.204.697.027 1.015-.176.318-.511.515-.874.515-1.118 0-2.499 0-3.364 0-.517 0-.998-.266-1.272-.704l-1.365-2.182zm2.31 5.577-2.491-3.981-2.24 2.239.943 1.507c.091.146.252.235.424.235zm-10.078-8.403-3.159-5.05c-.193-.308-.204-.696-.027-1.015.176-.318.511-.515.874-.515h3.364c.517 0 .998.266 1.272.704l1.366 2.185zm-2.312-5.58 2.493 3.984 2.24-2.239-.945-1.51c-.091-.146-.252-.235-.424-.235z"/></g></svg>