<svg clip-rule="evenodd" fill-rule="evenodd" stroke-linejoin="round" stroke-miterlimit="2" viewBox="0 0 16 16" xmlns="http://www.w3.org/2000/svg"><path d="m5 4.5c0-.828.672-1.5 1.5-1.5h7c.828 0 1.5.672 1.5 1.5v.5h.5c1.381 0 2.5 1.119 2.5 2.5v5c0 .828-.672 1.5-1.5 1.5h-1.5v1.5c0 .828-.672 1.5-1.5 1.5h-7c-.828 0-1.5-.672-1.5-1.5v-1.5h-1.5c-.828 0-1.5-.672-1.5-1.5v-5c0-1.381 1.119-2.5 2.5-2.5h.5zm1 .5h8v-.5c0-.276-.224-.5-.5-.5h-7c-.276 0-.5.224-.5.5zm-1 8v-1.5c0-.828.672-1.5 1.5-1.5h7c.828 0 1.5.672 1.5 1.5v1.5h1.5c.276 0 .5-.224.5-.5v-5c0-.828-.672-1.5-1.5-1.5h-11c-.828 0-1.5.672-1.5 1.5v5c0 .276.224.5.5.5zm1.5-2c-.276 0-.5.224-.5.5v4c0 .276.224.5.5.5h7c.276 0 .5-.224.5-.5v-4c0-.276-.224-.5-.5-.5z" fill="#1abc9c" fill-rule="nonzero" transform="translate(-2 -2)"/></svg>