<?xml version="1.0" encoding="UTF-8" standalone="no"?>
<!DOCTYPE svg PUBLIC "-//W3C//DTD SVG 1.1//EN" "http://www.w3.org/Graphics/SVG/1.1/DTD/svg11.dtd">
<svg width="100%" height="100%" viewBox="0 0 16 16" version="1.1" xmlns="http://www.w3.org/2000/svg" xmlns:xlink="http://www.w3.org/1999/xlink" xml:space="preserve" xmlns:serif="http://www.serif.com/" style="fill-rule:evenodd;clip-rule:evenodd;stroke-linejoin:round;stroke-miterlimit:2;">
    <g transform="matrix(1,0,0,1,-2.0379,-2.0021)">
        <path d="M16.996,7.073L16.996,7C16.996,5.619 15.877,4.5 14.496,4.5L9.664,4.5L8.064,3.3C7.805,3.105 7.489,3 7.164,3L4.5,3C3.119,3 2,4.119 2,5.5L2.001,14.498C2.002,15.777 2.963,16.832 4.203,16.98C4.287,16.995 4.374,17.002 4.463,17.002L15.18,17.002C15.898,17.002 16.516,16.493 16.653,15.788L18.01,8.788C18.159,8.02 17.696,7.297 16.996,7.073ZM4.5,4L7.164,4C7.272,4 7.378,4.035 7.464,4.1L9.198,5.4C9.284,5.465 9.39,5.5 9.498,5.5L14.496,5.5C15.324,5.5 15.996,6.172 15.996,7L15.996,7.002L5.824,7.002C5.106,7.002 4.489,7.511 4.352,8.216L3.054,14.892C3.02,14.766 3.001,14.634 3.001,14.498L3,5.5C3,4.672 3.672,4 4.5,4ZM5.333,8.407C5.379,8.172 5.585,8.002 5.824,8.002L16.537,8.002C16.852,8.002 17.088,8.289 17.028,8.597L15.671,15.597C15.625,15.832 15.419,16.002 15.18,16.002L4.463,16.002C4.149,16.002 3.912,15.715 3.972,15.407L5.333,8.407Z" style="fill:rgb(26,188,156);fill-rule:nonzero;"/>
    </g>
</svg>
