<svg clip-rule="evenodd" fill-rule="evenodd" stroke-linejoin="round" stroke-miterlimit="2" viewBox="0 0 16 16" xmlns="http://www.w3.org/2000/svg"><path d="m5.228 2.081c.206-.134.473-.097.636.076l.055.071 6.6 10.162c.437-.248.942-.39 1.481-.39 1.657 0 3 1.343 3 3s-1.343 3-3 3-3-1.343-3-3c0-.68.226-1.307.607-1.81l.133-.163-1.74-2.68-1.74 2.68c.461.527.74 1.218.74 1.973 0 1.657-1.343 3-3 3s-3-1.343-3-3 1.343-3 3-3c.462 0 .899.104 1.29.291l.191.099 1.923-2.961-4.323-6.657c-.151-.231-.085-.541.147-.691zm8.772 10.919c-1.105 0-2 .895-2 2s.895 2 2 2 2-.895 2-2-.895-2-2-2zm-8 0c-1.105 0-2 .895-2 2s.895 2 2 2 2-.895 2-2-.895-2-2-2zm8.772-10.919c.232.15.298.46.147.691l-3.727 5.739-.596-.918 3.485-5.365c.15-.232.46-.298.691-.147z" fill="#1abc9c" fill-rule="nonzero" transform="translate(-2 -2)"/></svg>