<svg clip-rule="evenodd" fill-rule="evenodd" stroke-linejoin="round" stroke-miterlimit="2" viewBox="0 0 16 16" xmlns="http://www.w3.org/2000/svg"><path d="m5 2.5c0-.276-.224-.5-.5-.5s-.5.224-.5.5v4.9c0 .331.269.6.6.6h4.9c.276 0 .5-.224.5-.5s-.224-.5-.5-.5h-3.594l3.473-3.019c1.667-1.449 4.194-1.272 5.643.395s1.272 4.194-.395 5.643l-8.172 7.104c-.208.181-.23.497-.049.705s.497.231.705.049l8.172-7.103c2.084-1.812 2.305-4.97.494-7.054-1.812-2.084-4.97-2.305-7.054-.493l-3.723 3.236z" fill="#1abc9c" fill-rule="nonzero" transform="translate(-2 -2)"/></svg>