<?xml version="1.0" encoding="UTF-8" standalone="no"?>
<!DOCTYPE svg PUBLIC "-//W3C//DTD SVG 1.1//EN" "http://www.w3.org/Graphics/SVG/1.1/DTD/svg11.dtd">
<svg width="100%" height="100%" viewBox="0 0 16 16" version="1.1" xmlns="http://www.w3.org/2000/svg" xmlns:xlink="http://www.w3.org/1999/xlink" xml:space="preserve" xmlns:serif="http://www.serif.com/" style="fill-rule:evenodd;clip-rule:evenodd;stroke-linejoin:round;stroke-miterlimit:2;">
    <g transform="matrix(0.7,0,0,0.7,-0.39786,-0.401752)">
        <path d="M2.747,17.5C3.127,17.5 3.44,17.782 3.49,18.148L3.497,18.25L3.497,19.252L3.503,19.38C3.563,19.968 4.031,20.436 4.619,20.496L4.747,20.502L5.747,20.502L5.849,20.509C6.215,20.559 6.497,20.873 6.497,21.252C6.497,21.632 6.215,21.946 5.849,21.995L5.747,22.002L4.747,22.002L4.579,21.997C3.196,21.914 2.089,20.809 2.002,19.427L1.997,19.252L1.997,18.25L2.004,18.148C2.053,17.782 2.367,17.5 2.747,17.5ZM21.247,17.5C21.627,17.5 21.94,17.782 21.99,18.148L21.997,18.25L21.997,19.252C21.997,20.715 20.855,21.911 19.414,21.997L19.247,22.002L18.247,22.002C17.833,22.002 17.497,21.667 17.497,21.252C17.497,20.873 17.779,20.559 18.145,20.509L18.247,20.502L19.247,20.502C19.894,20.502 20.426,20.01 20.49,19.38L20.497,19.252L20.497,18.25C20.497,17.836 20.833,17.5 21.247,17.5ZM17.038,14.86C17.452,14.86 17.788,15.195 17.788,15.61C17.788,15.989 17.505,16.303 17.139,16.353L17.038,16.36L7.033,16.36C6.618,16.36 6.283,16.024 6.283,15.61C6.283,15.23 6.565,14.916 6.931,14.866L7.033,14.86L17.038,14.86ZM14.28,11.288C14.694,11.288 15.03,11.624 15.03,12.038C15.03,12.418 14.747,12.732 14.381,12.781L14.28,12.788L7.033,12.788C6.618,12.788 6.283,12.452 6.283,12.038C6.283,11.659 6.565,11.345 6.931,11.295L7.033,11.288L14.28,11.288ZM5.747,2C6.161,2 6.497,2.336 6.497,2.75C6.497,3.13 6.215,3.443 5.849,3.493L5.747,3.5L4.747,3.5C4.1,3.5 3.567,3.992 3.503,4.622L3.497,4.75L3.497,5.752C3.497,6.167 3.161,6.502 2.747,6.502C2.367,6.502 2.053,6.22 2.004,5.854L1.997,5.752L1.997,4.75C1.997,3.287 3.139,2.092 4.579,2.005L4.747,2L5.747,2ZM19.247,2L19.414,2.005C20.798,2.088 21.905,3.194 21.992,4.576L21.997,4.75L21.997,5.752L21.99,5.854C21.94,6.22 21.627,6.502 21.247,6.502C20.867,6.502 20.553,6.22 20.504,5.854L20.497,5.752L20.497,4.75L20.49,4.622C20.431,4.034 19.963,3.566 19.375,3.506L19.247,3.5L18.247,3.5L18.145,3.493C17.779,3.443 17.497,3.13 17.497,2.75C17.497,2.37 17.779,2.057 18.145,2.007L18.247,2L19.247,2ZM17.033,7.717C17.447,7.717 17.783,8.053 17.783,8.467C17.783,8.846 17.501,9.16 17.134,9.21L17.033,9.217L7.033,9.217C6.618,9.217 6.283,8.881 6.283,8.467C6.283,8.087 6.565,7.773 6.931,7.724L7.033,7.717L17.033,7.717Z" style="fill:rgb(26,188,156);fill-rule:nonzero;"/>
    </g>
    <g transform="matrix(0.7,0,0,0.7,0.847229,6.07407)">
        <path d="M8.25,11.25C8.664,11.25 9,11.586 9,12C9,12.38 8.718,12.693 8.352,12.743L8.25,12.75L7.75,12.75C7.336,12.75 7,12.414 7,12C7,11.62 7.282,11.307 7.648,11.257L7.75,11.25L8.25,11.25Z" style="fill:rgb(26,188,156);fill-rule:nonzero;"/>
    </g>
    <g transform="matrix(0.7,0,0,0.7,0.847229,-6.87593)">
        <path d="M8.25,11.25C8.664,11.25 9,11.586 9,12C9,12.38 8.718,12.693 8.352,12.743L8.25,12.75L7.75,12.75C7.336,12.75 7,12.414 7,12C7,11.62 7.282,11.307 7.648,11.257L7.75,11.25L8.25,11.25Z" style="fill:rgb(26,188,156);fill-rule:nonzero;"/>
    </g>
    <g transform="matrix(4.28626e-17,-0.7,0.7,4.28626e-17,-6.875,15.1578)">
        <path d="M8.25,11.25C8.664,11.25 9,11.586 9,12C9,12.38 8.718,12.693 8.352,12.743L8.25,12.75L7.75,12.75C7.336,12.75 7,12.414 7,12C7,11.62 7.282,11.307 7.648,11.257L7.75,11.25L8.25,11.25Z" style="fill:rgb(26,188,156);fill-rule:nonzero;"/>
    </g>
    <g transform="matrix(4.28626e-17,-0.7,0.7,4.28626e-17,6.075,15.1578)">
        <path d="M8.25,11.25C8.664,11.25 9,11.586 9,12C9,12.38 8.718,12.693 8.352,12.743L8.25,12.75L7.75,12.75C7.336,12.75 7,12.414 7,12C7,11.62 7.282,11.307 7.648,11.257L7.75,11.25L8.25,11.25Z" style="fill:rgb(26,188,156);fill-rule:nonzero;"/>
    </g>
    <g transform="matrix(0.7,0,0,0.7,3.96465,6.07407)">
        <path d="M8.25,11.25C8.664,11.25 9,11.586 9,12C9,12.38 8.718,12.693 8.352,12.743L8.25,12.75L7.75,12.75C7.336,12.75 7,12.414 7,12C7,11.62 7.282,11.307 7.648,11.257L7.75,11.25L8.25,11.25Z" style="fill:rgb(26,188,156);fill-rule:nonzero;"/>
    </g>
    <g transform="matrix(0.7,0,0,0.7,3.96465,-6.87593)">
        <path d="M8.25,11.25C8.664,11.25 9,11.586 9,12C9,12.38 8.718,12.693 8.352,12.743L8.25,12.75L7.75,12.75C7.336,12.75 7,12.414 7,12C7,11.62 7.282,11.307 7.648,11.257L7.75,11.25L8.25,11.25Z" style="fill:rgb(26,188,156);fill-rule:nonzero;"/>
    </g>
    <g transform="matrix(4.28626e-17,-0.7,0.7,4.28626e-17,-6.875,12.0404)">
        <path d="M8.25,11.25C8.664,11.25 9,11.586 9,12C9,12.38 8.718,12.693 8.352,12.743L8.25,12.75L7.75,12.75C7.336,12.75 7,12.414 7,12C7,11.62 7.282,11.307 7.648,11.257L7.75,11.25L8.25,11.25Z" style="fill:rgb(26,188,156);fill-rule:nonzero;"/>
    </g>
    <g transform="matrix(4.28626e-17,-0.7,0.7,4.28626e-17,6.075,12.0404)">
        <path d="M8.25,11.25C8.664,11.25 9,11.586 9,12C9,12.38 8.718,12.693 8.352,12.743L8.25,12.75L7.75,12.75C7.336,12.75 7,12.414 7,12C7,11.62 7.282,11.307 7.648,11.257L7.75,11.25L8.25,11.25Z" style="fill:rgb(26,188,156);fill-rule:nonzero;"/>
    </g>
</svg>
