<svg clip-rule="evenodd" fill-rule="evenodd" stroke-linejoin="round" stroke-miterlimit="2" viewBox="0 0 16 16" xmlns="http://www.w3.org/2000/svg"><path d="m10.5 2c.603 0 1.123.356 1.361.869l.054.131h1.585c.78 0 1.42.595 1.493 1.356l.007.144v1c0 .276-.224.5-.5.5-.245 0-.45-.177-.492-.41l-.008-.09v-1c0-.245-.177-.45-.41-.492l-.09-.008h-1.585c-.19.538-.678.935-1.266.993l-.149.007h-3c-.603 0-1.123-.356-1.361-.869l-.054-.131h-1.585c-.245 0-.45.177-.492.41l-.008.09v12c0 .245.177.45.41.492l.09.008h3c.276 0 .5.224.5.5 0 .245-.177.45-.41.492l-.09.008h-3c-.78 0-1.42-.595-1.493-1.356l-.007-.144v-12c0-.78.595-1.42 1.356-1.493l.144-.007h1.585c.19-.538.678-.935 1.266-.993l.149-.007zm5 5c.78 0 1.42.595 1.493 1.356l.007.144v8c0 .78-.595 1.42-1.356 1.493l-.144.007h-5c-.78 0-1.42-.595-1.493-1.356l-.007-.144v-8c0-.78.595-1.42 1.356-1.493l.144-.007zm0 1h-5c-.245 0-.45.177-.492.41l-.008.09v8c0 .245.177.45.41.492l.09.008h5c.245 0 .45-.177.492-.41l.008-.09v-8c0-.245-.177-.45-.41-.492zm-5-5h-3c-.276 0-.5.224-.5.5 0 .245.177.45.41.492l.09.008h3c.276 0 .5-.224.5-.5 0-.245-.177-.45-.41-.492z" fill="#1abc9c" fill-rule="nonzero" transform="translate(-2 -2)"/></svg>