<svg clip-rule="evenodd" fill-rule="evenodd" stroke-linejoin="round" stroke-miterlimit="2" viewBox="0 0 16 16" xmlns="http://www.w3.org/2000/svg"><path d="m5 4.268v10.232c0 1.381 1.119 2.5 2.5 2.5h6.232c-.345.598-.992 1-1.732 1h-4.5c-1.933 0-3.5-1.567-3.5-3.5v-8.5c0-.74.402-1.387 1-1.732zm9-2.268c1.054 0 1.918.816 1.995 1.851l.005.149v10c0 1.054-.816 1.918-1.851 1.995l-.149.005h-6c-1.054 0-1.918-.816-1.995-1.851l-.005-.149v-10c0-1.054.816-1.918 1.851-1.995l.149-.005zm0 1h-6c-.513 0-.936.386-.993.883l-.007.117v10c0 .513.386.936.883.993l.117.007h6c.513 0 .936-.386.993-.883l.007-.117v-10c0-.513-.386-.936-.883-.993z" fill="#1abc9c" fill-rule="nonzero" transform="translate(-2 -2)"/></svg>