<svg clip-rule="evenodd" fill-rule="evenodd" stroke-linejoin="round" stroke-miterlimit="2" viewBox="0 0 16 16" xmlns="http://www.w3.org/2000/svg"><path d="m8.5 3c3.038 0 5.5 2.462 5.5 5.5 0 1.339-.478 2.566-1.273 3.52l4.127 4.126c.195.196.195.512 0 .708-.174.173-.443.192-.638.057l-.07-.057-4.126-4.127c-.954.795-2.181 1.273-3.52 1.273-3.038 0-5.5-2.462-5.5-5.5s2.462-5.5 5.5-5.5zm0 1c-2.485 0-4.5 2.015-4.5 4.5s2.015 4.5 4.5 4.5 4.5-2.015 4.5-4.5-2.015-4.5-4.5-4.5z" fill="#1abc9c" fill-rule="nonzero" transform="translate(-2 -2)"/></svg>