<svg clip-rule="evenodd" fill-rule="evenodd" stroke-linejoin="round" stroke-miterlimit="2" viewBox="0 0 16 16" xmlns="http://www.w3.org/2000/svg"><path d="m1.53 11.85c.27 0 .49.2.52.45l.01.07v.7.09c.04.41.37.74.78.78l.09.01h.7l.07.01c.26.04.45.25.45.52s-.2.49-.45.52h-.07-.7-.12c-.97-.06-1.75-.83-1.81-1.8v-.12-.7l.01-.07c.03-.26.25-.45.52-.45zm12.95 0c.27 0 .49.2.52.45v.07.7c0 1.02-.8 1.86-1.81 1.92l-.11.01h-.7c-.29 0-.53-.24-.53-.53 0-.27.2-.49.45-.52l.07-.01h.7c.45 0 .83-.35.87-.79l.01-.09v-.7c0-.29.24-.51.53-.51zm-7.85 2.1c.29 0 .53.24.53.53 0 .27-.2.49-.45.52l-.42.01c-.29 0-.53-.24-.53-.53 0-.27.2-.49.45-.52zm3.12 0c.29 0 .53.24.53.53 0 .27-.2.49-.45.52h-.44c-.29 0-.53-.24-.53-.53 0-.27.2-.49.45-.52zm1.78-3.95c.29 0 .47.21.47.5 0 .27-.14.51-.4.55l-.07.01h-7c-.29-.01-.53-.27-.53-.56 0-.27.2-.46.45-.5h.08zm-10.53-.62c0-.29.24-.53.53-.53.27 0 .49.2.52.45v.43c0 .29-.24.53-.53.53-.27 0-.49-.2-.52-.45zm12.95 0c0-.29.24-.53.53-.53.27 0 .49.2.52.45v.43c0 .29-.24.53-.53.53-.27 0-.49-.2-.52-.45zm-4.47-1.88c.29 0 .52.21.52.5 0 .27-.2.51-.45.55l-.07.01h-4.95c-.29-.01-.53-.27-.53-.56 0-.26.2-.46.45-.49l.08-.01zm-8.48-1.23c0-.29.24-.53.53-.53.27 0 .49.2.52.45v.43c0 .29-.23.52-.52.52-.27 0-.49-.2-.53-.45zm12.95 0c0-.29.24-.53.53-.53.27 0 .49.2.52.45v.43c0 .29-.24.53-.53.53-.27 0-.49-.2-.52-.45zm-2.42-1.27c.29 0 .47.21.47.5 0 .27-.15.51-.4.55h-.07-7c-.29 0-.53-.26-.53-.55 0-.27.2-.46.45-.49l.08-.01zm1.55-4h.12c.97.06 1.74.83 1.81 1.8l-.01.12v.71.07c-.04.25-.26.45-.52.45-.27 0-.49-.2-.52-.45l-.01-.07v-.71-.09c-.05-.41-.37-.74-.78-.78h-.09-.7l-.08-.01c-.25-.03-.45-.25-.45-.52s.2-.49.45-.52l.07-.01zm-9.45 0c.29 0 .53.24.53.53 0 .27-.2.49-.45.52h-.08-.7c-.45 0-.83.35-.87.79l-.01.08v.71c0 .29-.23.52-.52.52-.27 0-.49-.2-.53-.45v-.07-.71c0-1.02.8-1.86 1.81-1.92h.12zm3 0c.29 0 .53.24.53.53 0 .27-.2.49-.45.52h-.44c-.29 0-.53-.24-.53-.53 0-.27.2-.49.45-.52zm3.12 0c.29 0 .53.24.53.53 0 .27-.2.49-.45.52h-.44c-.29 0-.53-.24-.53-.53 0-.27.2-.49.45-.52z" fill="#1abc9c" fill-rule="nonzero"/></svg>