<svg clip-rule="evenodd" fill-rule="evenodd" stroke-linejoin="round" stroke-miterlimit="2" viewBox="0 0 16 16" xmlns="http://www.w3.org/2000/svg"><path d="m10.496 16.803 6.245-6.304c1.684-1.71 1.679-4.474-.017-6.187-1.663-1.679-4.328-1.722-6.026-.121-.037.034-.073.07-.109.106l-.596.603-.605-.61c-.033-.034-.066-.067-.1-.099-1.702-1.614-4.371-1.589-6.027.083-1.688 1.705-1.68 4.476.016 6.189l6.277 6.34c.26.263.682.263.942 0zm.804-11.803c1.296-1.309 3.403-1.308 4.713.016 1.312 1.325 1.314 3.461.016 4.781l-.001.001-6.003 6.06-6.038-6.099c-1.313-1.326-1.314-3.469-.015-4.782 1.293-1.306 3.398-1.305 4.706.016l.96.97c.196.198.515.198.711 0z" fill="#1abc9c" fill-rule="nonzero" transform="translate(-2.00001 -1.99997)"/></svg>