<svg clip-rule="evenodd" fill-rule="evenodd" stroke-linejoin="round" stroke-miterlimit="2" viewBox="0 0 16 16" xmlns="http://www.w3.org/2000/svg"><path d="m10 2.75c4.004 0 7.25 3.246 7.25 7.25 0 1.732-.607 3.322-1.62 4.569l4.9 4.901c.293.293.293.767 0 1.06-.266.267-.683.291-.976.073l-.084-.073-4.901-4.9c-1.247 1.013-2.837 1.62-4.569 1.62-4.004 0-7.25-3.246-7.25-7.25s3.246-7.25 7.25-7.25zm0 1.5c-3.176 0-5.75 2.574-5.75 5.75s2.574 5.75 5.75 5.75 5.75-2.574 5.75-5.75-2.574-5.75-5.75-5.75z" fill="#1dbc9c" fill-rule="nonzero" transform="matrix(.777778 0 0 .777778 -1.13889 -1.13889)"/></svg>