<svg clip-rule="evenodd" fill-rule="evenodd" stroke-linejoin="round" stroke-miterlimit="2" viewBox="0 0 16 16" xmlns="http://www.w3.org/2000/svg"><path d="m5.5 4.25c0-.69.56-1.25 1.25-1.25h3.501c2.403 0 3.999 1.988 3.999 4 0 .872-.3 1.738-.834 2.441.904.702 1.581 1.801 1.581 3.309 0 2.863-2.437 4.246-4.244 4.246h-4.003c-.69 0-1.25-.56-1.25-1.25zm2.5 6.75v3.496h2.753c.811 0 1.744-.619 1.744-1.746 0-1.129-.937-1.75-1.744-1.75zm0-2.5h2.248c.882 0 1.502-.721 1.502-1.5 0-.78-.62-1.5-1.499-1.5h-2.251z" fill="#1abc9c" fill-rule="nonzero" transform="translate(-2 -1.99775)"/></svg>