<?xml version="1.0" encoding="UTF-8" standalone="no"?>
<!DOCTYPE svg PUBLIC "-//W3C//DTD SVG 1.1//EN" "http://www.w3.org/Graphics/SVG/1.1/DTD/svg11.dtd">
<svg width="100%" height="100%" viewBox="0 0 16 16" version="1.1" xmlns="http://www.w3.org/2000/svg" xmlns:xlink="http://www.w3.org/1999/xlink" xml:space="preserve" xmlns:serif="http://www.serif.com/" style="fill-rule:evenodd;clip-rule:evenodd;stroke-linejoin:round;stroke-miterlimit:2;">
    <g transform="matrix(1,0,0,1,-2.28589,-2)">
        <path d="M13.54,4.12C13.75,4.3 13.774,4.616 13.594,4.825L9.159,10L13.244,14.766C13.057,15.06 12.903,15.403 12.819,15.807L8.5,10.768L4.166,15.825C3.986,16.035 3.67,16.059 3.461,15.879C3.251,15.7 3.227,15.384 3.406,15.174L7.842,10L3.406,4.825C3.227,4.616 3.251,4.3 3.461,4.12C3.67,3.94 3.986,3.965 4.166,4.174L8.5,9.231L12.835,4.174C13.015,3.965 13.33,3.94 13.54,4.12Z" style="fill:rgb(26,188,156);fill-rule:nonzero;"/>
    </g>
    <g transform="matrix(1,0,0,1,-2.28589,-2)">
        <path d="M15.585,12C15.12,12 14.75,12.421 14.75,12.864C14.75,13.14 14.526,13.364 14.25,13.364C13.974,13.364 13.75,13.14 13.75,12.864C13.75,11.943 14.497,11 15.585,11C16.22,11 16.832,11.297 17.175,11.824C17.533,12.374 17.545,13.091 17.129,13.799C16.917,14.159 16.626,14.432 16.344,14.655C16.202,14.767 16.056,14.871 15.919,14.969L15.859,15.011C15.741,15.094 15.631,15.171 15.524,15.252C15.202,15.495 14.969,15.718 14.847,16L16.943,16C17.219,16 17.443,16.224 17.443,16.5C17.443,16.776 17.219,17 16.943,17L14.301,17C14.293,17 14.284,17 14.276,16.999C14.267,17 14.259,17 14.25,17C13.974,17 13.75,16.776 13.75,16.5C13.75,15.463 14.357,14.879 14.923,14.453C15.043,14.362 15.167,14.275 15.284,14.192L15.341,14.152C15.478,14.055 15.605,13.964 15.724,13.87C15.963,13.682 16.145,13.5 16.267,13.292C16.519,12.864 16.459,12.558 16.337,12.369C16.199,12.158 15.921,12 15.585,12Z" style="fill:rgb(26,188,156);fill-rule:nonzero;"/>
    </g>
</svg>
