<svg clip-rule="evenodd" fill-rule="evenodd" stroke-linejoin="round" stroke-miterlimit="2" viewBox="0 0 16 16" xmlns="http://www.w3.org/2000/svg"><path d="m14.5 16c.276 0 .5.224.5.5s-.224.5-.5.5h-9c-.276 0-.5-.224-.5-.5s.224-.5.5-.5zm0-13c.245 0 .45.177.492.41l.008.09v6.455c0 2.781-2.234 5.045-5 5.045-2.693 0-4.882-2.146-4.995-4.827l-.005-.218v-6.455c0-.276.224-.5.5-.5.245 0 .45.177.492.41l.008.09v6.455c0 2.239 1.796 4.045 4 4.045 2.138 0 3.891-1.699 3.995-3.843l.005-.202v-6.455c0-.276.224-.5.5-.5z" fill="#1abc9c" fill-rule="nonzero" transform="translate(-2 -2)"/></svg>