<svg clip-rule="evenodd" fill-rule="evenodd" stroke-linejoin="round" stroke-miterlimit="2" viewBox="0 0 16 16" xmlns="http://www.w3.org/2000/svg"><path d="m16.5 10c.276 0 .5.224.5.5s-.224.5-.5.5h-2.73c.732.57 1.23 1.363 1.23 2.5 0 1.228-.721 2.12-1.677 2.681-.945.556-2.163.819-3.323.819-1.126 0-2.078-.128-2.893-.478-.827-.356-1.477-.925-2.023-1.745-.153-.229-.091-.54.139-.693.229-.153.54-.091.693.139.454.68.96 1.111 1.586 1.38.639.275 1.437.397 2.498.397 1.028 0 2.06-.237 2.817-.681.748-.439 1.183-1.047 1.183-1.819 0-.909-.432-1.484-1.167-1.933-.361-.221-.784-.403-1.248-.567h-8.085c-.276 0-.5-.224-.5-.5s.224-.5.5-.5zm-6.5-7c2.688 0 4.326 1.434 4.9 2.2.166.221.121.534-.1.7s-.534.121-.7-.1c-.426-.568-1.788-1.8-4.1-1.8-1.153 0-2.178.347-2.903.849-.738.51-1.097 1.127-1.097 1.651 0 .909.432 1.484 1.167 1.933.362.221.784.403 1.249.567h-2.186c-.732-.57-1.23-1.363-1.23-2.5 0-.976.641-1.859 1.528-2.474.9-.623 2.126-1.026 3.472-1.026z" fill="#1abc9c" fill-rule="nonzero" transform="translate(-2 -2)"/></svg>