<svg clip-rule="evenodd" fill-rule="evenodd" stroke-linejoin="round" stroke-miterlimit="2" viewBox="0 0 16 16" xmlns="http://www.w3.org/2000/svg"><g fill="#1abc9c" fill-rule="nonzero"><path d="m10.5 14c.276 0 .5.224.5.5 0 .245-.177.45-.41.492l-.09.008h-8c-.276 0-.5-.224-.5-.5 0-.245.177-.45.41-.492l.09-.008zm2-5c.276 0 .5.224.5.5s-.224.5-.5.5h-10c-.276 0-.5-.224-.5-.5s.224-.5.5-.5zm-2-5c.276 0 .5.224.5.5s-.224.5-.5.5h-8c-.276 0-.5-.224-.5-.5s.224-.5.5-.5z" transform="translate(3 -2)"/><path d="m2.72 9.22c.266-.267.683-.291.976-.073l.084.073 2 2c.267.266.291.683.073.976l-.073.084-2 2c-.293.293-.767.293-1.06 0-.267-.266-.291-.683-.073-.976l.073-.084 1.469-1.47-1.469-1.47c-.293-.293-.293-.767 0-1.06z" transform="matrix(-.839553 0 0 .839553 5.03732 -2.36474)"/></g></svg>