<svg clip-rule="evenodd" fill-rule="evenodd" stroke-linejoin="round" stroke-miterlimit="2" viewBox="0 0 16 16" xmlns="http://www.w3.org/2000/svg"><g fill="#1abc9c"><path d="m-.057 13.487 3.436-9.942c.087-.273.278-.416.583-.416.291 0 .487.134.591.395.002.005.004.01.005.015l3.411 9.962c.004.011.007.022.01.034.014.037.023.083.023.138 0 .161-.066.305-.221.421-.116.087-.252.133-.408.133-.274 0-.458-.13-.549-.395l-.736-2.121h-4.283l-.721 2.12c-.088.255-.275.396-.581.396-.138 0-.26-.037-.368-.108-.149-.097-.229-.238-.229-.432 0-.084.016-.149.037-.2zm8.032.038c-.01-.032-.025-.056-.041-.076-.016-.019-.032-.033-.044-.044.026.023.061.061.085.12zm-5.78-2.949h3.504l-1.739-5.096z" fill-rule="nonzero"/><path d="m10.047 13.703c-.01.131-.064.251-.171.356-.109.108-.25.168-.425.168-.184 0-.325-.067-.428-.18-.104-.114-.153-.244-.153-.388v-10.417c0-.187.067-.321.171-.414.092-.083.226-.14.41-.14.166 0 .298.05.402.133.126.102.196.24.196.421v4.174c.096-.077.201-.152.313-.223.394-.251.893-.383 1.501-.383.431 0 .836.073 1.215.22.38.146.713.349 1 .605.289.259.519.563.69.912.175.356.262.734.262 1.133v1.733c0 .39-.087.761-.263 1.113-.169.341-.398.646-.685.913-.286.267-.615.479-.988.635-.376.158-.776.238-1.2.238-.542 0-1.029-.121-1.459-.359-.142-.078-.271-.162-.388-.25zm3.804-4.023v1.733c0 .219-.051.432-.151.639-.106.218-.246.411-.42.58-.175.168-.382.304-.62.407-.236.101-.48.152-.734.152-.271 0-.519-.05-.745-.151-.236-.105-.441-.231-.616-.379-.169-.143-.302-.29-.398-.441-.071-.112-.118-.202-.118-.281v-2.259c0-.271.051-.514.157-.729.108-.217.247-.401.418-.55.172-.15.37-.266.592-.347.225-.082.456-.123.694-.123.264 0 .513.05.75.152.241.104.453.239.634.405.175.161.313.349.412.562.096.208.145.418.145.63z"/><path d="m8 15.5c0-.276-.224-.5-.5-.5h-7c-.276 0-.5.224-.5.5s.224.5.5.5h7c.276 0 .5-.224.5-.5z"/></g></svg>