<?xml version="1.0" encoding="UTF-8" standalone="no"?>
<!DOCTYPE svg PUBLIC "-//W3C//DTD SVG 1.1//EN" "http://www.w3.org/Graphics/SVG/1.1/DTD/svg11.dtd">
<svg width="100%" height="100%" viewBox="0 0 16 16" version="1.1" xmlns="http://www.w3.org/2000/svg" xmlns:xlink="http://www.w3.org/1999/xlink" xml:space="preserve" xmlns:serif="http://www.serif.com/" style="fill-rule:evenodd;clip-rule:evenodd;stroke-linejoin:round;stroke-miterlimit:2;">
    <g transform="matrix(1,0,0,1,-2,-2)">
        <path d="M16.5,10C16.776,10 17,10.224 17,10.5C17,10.776 16.776,11 16.5,11L13.77,11C14.502,11.57 15,12.363 15,13.5C15,14.728 14.279,15.62 13.323,16.181C12.378,16.737 11.16,17 10,17C8.874,17 7.922,16.872 7.107,16.522C6.28,16.166 5.63,15.597 5.084,14.777C4.931,14.548 4.993,14.237 5.223,14.084C5.452,13.931 5.763,13.993 5.916,14.223C6.37,14.903 6.876,15.334 7.502,15.603C8.141,15.878 8.939,16 10,16C11.028,16 12.06,15.763 12.817,15.319C13.565,14.88 14,14.272 14,13.5C14,12.591 13.568,12.016 12.833,11.567C12.472,11.346 12.049,11.164 11.585,11L3.5,11C3.224,11 3,10.776 3,10.5C3,10.224 3.224,10 3.5,10L16.5,10ZM10,3C12.688,3 14.326,4.434 14.9,5.2C15.066,5.421 15.021,5.734 14.8,5.9C14.579,6.066 14.266,6.021 14.1,5.8C13.674,5.232 12.312,4 10,4C8.847,4 7.822,4.347 7.097,4.849C6.359,5.359 6,5.976 6,6.5C6,7.409 6.432,7.984 7.167,8.433C7.529,8.654 7.951,8.836 8.416,9L6.23,9C5.498,8.43 5,7.637 5,6.5C5,5.524 5.641,4.641 6.528,4.026C7.428,3.403 8.654,3 10,3Z" style="fill:rgb(26,188,156);fill-rule:nonzero;"/>
    </g>
</svg>
