<svg clip-rule="evenodd" fill-rule="evenodd" stroke-linejoin="round" stroke-miterlimit="2" viewBox="0 0 16 16" xmlns="http://www.w3.org/2000/svg"><g fill="#1abc9c"><path d="m6.273 9.936v-.086c0-.235-.035-.471-.106-.706-.068-.228-.172-.434-.313-.617-.136-.178-.315-.32-.535-.43-.226-.114-.503-.166-.828-.166-.22 0-.413.016-.58.05-.165.034-.307.073-.424.12-.13.051-.239.095-.327.132-.143.061-.252.081-.319.081-.187 0-.34-.075-.457-.232-.106-.142-.141-.269-.141-.364 0-.14.078-.321.324-.472.135-.082.309-.158.523-.224.198-.06.42-.111.668-.151.25-.041.504-.061.765-.061.537 0 .99.087 1.358.255.381.173.687.407.923.699.233.289.401.618.502.987.097.354.146.72.146 1.099v3.809c0 .167-.058.301-.163.406-.101.101-.238.162-.418.162-.171 0-.308-.055-.415-.151-.119-.107-.183-.245-.183-.417v-.066c-.165.121-.342.235-.533.344-.436.248-.947.375-1.535.375-.336 0-.653-.042-.949-.126-.311-.087-.581-.222-.813-.402-.239-.186-.425-.417-.558-.694-.129-.27-.197-.591-.197-.966 0-.456.115-.827.332-1.117.21-.282.501-.509.878-.675.347-.153.766-.259 1.256-.316.465-.053.98-.08 1.543-.08zm0 1.121h-.561c-.404 0-.79.014-1.158.042-.349.026-.661.083-.936.171-.241.077-.435.185-.577.332-.123.126-.174.303-.174.522 0 .363.101.633.335.796.264.184.594.271.987.271.26 0 .515-.046.766-.138.26-.094.493-.212.7-.355.196-.135.355-.281.474-.44.088-.119.144-.221.144-.319z"/><path d="m10.116 13.703c-.01.131-.064.251-.171.356-.109.108-.25.168-.425.168-.184 0-.325-.067-.428-.18-.104-.114-.153-.244-.153-.388v-10.417c0-.187.067-.321.171-.414.092-.083.225-.14.41-.14.166 0 .298.05.402.133.126.102.195.24.195.421v4.174c.097-.077.202-.152.314-.223.394-.251.893-.383 1.501-.383.431 0 .836.073 1.214.22.381.146.714.349 1.001.605.289.259.519.563.69.912.175.356.262.734.262 1.133v1.733c0 .39-.087.761-.263 1.113-.17.341-.398.646-.685.913-.286.267-.615.479-.988.635-.377.158-.776.238-1.2.238-.542 0-1.029-.121-1.459-.359-.142-.078-.271-.162-.388-.25zm3.804-4.023v1.733c0 .219-.051.432-.151.639-.106.218-.246.411-.42.58-.175.168-.382.304-.621.407-.235.101-.479.152-.733.152-.271 0-.519-.05-.745-.151-.236-.105-.442-.231-.616-.379-.169-.143-.303-.29-.398-.441-.071-.112-.119-.202-.119-.281v-2.259c0-.271.052-.514.158-.729.108-.217.247-.401.418-.55.172-.15.37-.266.592-.347.225-.082.456-.123.694-.123.264 0 .513.05.749.152.242.104.454.239.635.405.175.161.313.349.412.562.096.208.145.418.145.63z"/></g></svg>