<svg clip-rule="evenodd" fill-rule="evenodd" stroke-linejoin="round" stroke-miterlimit="2" viewBox="0 0 16 16" xmlns="http://www.w3.org/2000/svg"><g fill="#1abc9c"><path d="m20.487 7.33c1.766.064 3.069.089 4.031.215.465.061.804.049.997.265.143.16.156.407.201.725.061.439.088.965.101 1.595.018.801-.015 42.088 0 42.913.011.606.001 1.117-.053 1.546-.038.311-.054.556-.199.716-.207.229-.567.232-1.052.292-.966.119-2.256.12-3.969.126-.956.003-1.73.782-1.727 1.738s.782 1.73 1.738 1.727c2.316-.008 3.946-.035 5.081-.263 1.15-.231 1.933-.671 2.498-1.295.787-.869 1.191-2.264 1.148-4.649-.015-.826.017-42.125 0-42.927-.052-2.377-.44-3.723-1.184-4.554-.549-.615-1.309-1.046-2.449-1.279-1.099-.224-2.7-.27-5.037-.354-.955-.035-1.759.713-1.794 1.668-.034.956.713 1.76 1.669 1.795z" transform="matrix(.286525 0 0 .289214 2.60845 -1.11795)"/><path d="m20.487 7.33c1.766.064 3.069.089 4.031.215.465.061.804.049.997.265.143.16.156.407.201.725.061.439.088.965.101 1.595.018.801-.015 42.088 0 42.913.011.606.001 1.117-.053 1.546-.038.311-.054.556-.199.716-.207.229-.567.232-1.052.292-.966.119-2.256.12-3.969.126-.956.003-1.73.782-1.727 1.738s.782 1.73 1.738 1.727c2.316-.008 3.946-.035 5.081-.263 1.15-.231 1.933-.671 2.498-1.295.787-.869 1.191-2.264 1.148-4.649-.015-.826.017-42.125 0-42.927-.052-2.377-.44-3.723-1.184-4.554-.549-.615-1.309-1.046-2.449-1.279-1.099-.224-2.7-.27-5.037-.354-.955-.035-1.759.713-1.794 1.668-.034.956.713 1.76 1.669 1.795z" transform="matrix(-.286525 0 0 .289214 18.3915 -1.11796)"/><path d="m14.752 9.189c-.31.276-.338.75-.062 1.059l.89 1.152h-3.144c-.415 0-.75.186-.75.6s.335.6.75.6h3.144l-.89 1.152c-.276.309-.248.783.062 1.059.309.275.783.247 1.059-.063l2-2.25c.252-.284.252-.712 0-.996l-2-2.25c-.276-.31-.75-.338-1.059-.063z" fill-rule="nonzero" transform="matrix(-.791517 0 0 .833326 17.2473 -2.49993)"/></g></svg>