<svg clip-rule="evenodd" fill-rule="evenodd" stroke-linejoin="round" stroke-miterlimit="2" viewBox="0 0 16 16" xmlns="http://www.w3.org/2000/svg"><g fill="#1abc9c" fill-rule="nonzero" transform="translate(-2.28589 -1.9998)"><path d="m15.585 3c-.465 0-.835.421-.835.864 0 .276-.224.5-.5.5s-.5-.224-.5-.5c0-.921.747-1.864 1.835-1.864.635 0 1.247.297 1.59.824.358.55.37 1.267-.046 1.975-.212.36-.503.633-.785.856-.142.112-.288.216-.425.314l-.06.042c-.118.083-.228.16-.335.241-.322.243-.555.466-.677.748h2.096c.276 0 .5.224.5.5s-.224.5-.5.5h-2.642c-.008 0-.017 0-.025-.001-.009.001-.017.001-.026.001-.276 0-.5-.224-.5-.5 0-1.037.607-1.621 1.173-2.047.12-.091.244-.178.361-.261l.057-.04c.137-.097.264-.188.383-.282.239-.188.421-.37.543-.578.252-.428.192-.734.07-.923-.138-.211-.416-.369-.752-.369z"/><path d="m12.793 4.223c.087.351.297.654.581.859l-4.215 4.918 4.435 5.174c.18.21.156.526-.054.705-.061.053-.132.088-.206.106-.177.044-.372-.012-.499-.16l-4.335-5.057-4.334 5.057c-.18.21-.496.234-.705.054-.21-.179-.234-.495-.055-.705l4.436-5.174-4.436-5.175c-.179-.209-.155-.525.055-.705.061-.052.131-.088.205-.106.178-.043.373.012.5.16l4.334 5.057z"/></g></svg>