<svg clip-rule="evenodd" fill-rule="evenodd" stroke-linejoin="round" stroke-miterlimit="2" viewBox="0 0 16 16" xmlns="http://www.w3.org/2000/svg"><g fill="#1abc9c" fill-rule="nonzero"><path d="m-.057 13.487 3.436-9.942c.087-.273.278-.416.583-.416.291 0 .487.134.591.395.002.005.004.01.005.015l3.411 9.962c.004.011.007.022.01.034.014.037.023.083.023.138 0 .161-.066.305-.221.421-.116.087-.252.133-.408.133-.274 0-.458-.13-.549-.395l-.736-2.121h-4.283l-.721 2.12c-.088.255-.275.396-.581.396-.138 0-.26-.037-.368-.108-.149-.097-.229-.238-.229-.432 0-.084.016-.149.037-.2zm8.032.038c-.01-.032-.025-.056-.041-.076-.016-.019-.032-.033-.044-.044.026.023.061.061.085.12zm-5.78-2.949h3.504l-1.739-5.096z"/><path d="m14.637 8.26c.059.034.117.07.174.108.233.153.432.345.597.576.162.225.289.491.379.797.087.295.132.644.132 1.047v.242c0 .579-.09 1.07-.264 1.473-.18.419-.43.756-.748 1.014-.314.255-.683.439-1.109.55-.406.106-.839.16-1.301.16h-2.808c-.171 0-.307-.055-.414-.151-.125-.112-.183-.247-.183-.403v-9.891c0-.2.079-.344.214-.444.113-.082.24-.124.383-.124h2.38c.472 0 .913.032 1.325.096.438.068.82.198 1.147.386.347.2.618.483.81.85.184.351.282.801.282 1.353 0 .682-.143 1.247-.418 1.698-.164.267-.357.488-.578.663zm-4.35 4.831h2.21c.707 0 1.264-.155 1.665-.489.388-.323.562-.852.562-1.572v-.242c0-.702-.167-1.205-.549-1.491-.404-.302-.965-.443-1.678-.443h-2.21zm0-5.372h1.893c.41 0 .767-.03 1.072-.093.269-.055.494-.149.671-.288.169-.132.294-.307.378-.522.094-.24.137-.546.137-.917 0-.335-.048-.606-.16-.809-.103-.19-.246-.337-.428-.441-.202-.115-.446-.191-.731-.232-.314-.045-.654-.068-1.018-.068h-1.814z" transform="translate(-.091755)"/></g></svg>