<?xml version="1.0" encoding="UTF-8" standalone="no"?>
<!DOCTYPE svg PUBLIC "-//W3C//DTD SVG 1.1//EN" "http://www.w3.org/Graphics/SVG/1.1/DTD/svg11.dtd">
<svg width="100%" height="100%" viewBox="0 0 16 16" version="1.1" xmlns="http://www.w3.org/2000/svg" xmlns:xlink="http://www.w3.org/1999/xlink" xml:space="preserve" xmlns:serif="http://www.serif.com/" style="fill-rule:evenodd;clip-rule:evenodd;stroke-linejoin:round;stroke-miterlimit:2;">
    <g transform="matrix(1,0,0,1,-2.28589,-1.9998)">
        <path d="M15.585,3C15.12,3 14.75,3.421 14.75,3.864C14.75,4.14 14.526,4.364 14.25,4.364C13.974,4.364 13.75,4.14 13.75,3.864C13.75,2.943 14.497,2 15.585,2C16.22,2 16.832,2.297 17.175,2.824C17.533,3.374 17.545,4.091 17.129,4.799C16.917,5.159 16.626,5.432 16.344,5.655C16.202,5.767 16.056,5.871 15.919,5.969L15.859,6.011C15.741,6.094 15.631,6.171 15.524,6.252C15.202,6.495 14.969,6.718 14.847,7L16.943,7C17.219,7 17.443,7.224 17.443,7.5C17.443,7.776 17.219,8 16.943,8L14.301,8C14.293,8 14.284,8 14.276,7.999C14.267,8 14.259,8 14.25,8C13.974,8 13.75,7.776 13.75,7.5C13.75,6.463 14.357,5.879 14.923,5.453C15.043,5.362 15.167,5.275 15.284,5.192L15.341,5.152C15.478,5.055 15.605,4.964 15.724,4.87C15.963,4.682 16.145,4.5 16.267,4.292C16.519,3.864 16.459,3.558 16.337,3.369C16.199,3.158 15.921,3 15.585,3Z" style="fill:rgb(26,188,156);fill-rule:nonzero;"/>
    </g>
    <g transform="matrix(1,0,0,1,-2.28589,-1.9998)">
        <path d="M12.793,4.223C12.88,4.574 13.09,4.877 13.374,5.082L9.159,10L13.594,15.174C13.774,15.384 13.75,15.7 13.54,15.879C13.479,15.932 13.408,15.967 13.334,15.985C13.157,16.029 12.962,15.973 12.835,15.825L8.5,10.768L4.166,15.825C3.986,16.035 3.67,16.059 3.461,15.879C3.251,15.7 3.227,15.384 3.406,15.174L7.842,10L3.406,4.825C3.227,4.616 3.251,4.3 3.461,4.12C3.522,4.068 3.592,4.032 3.666,4.014C3.844,3.971 4.039,4.026 4.166,4.174L8.5,9.231L12.793,4.223Z" style="fill:rgb(26,188,156);fill-rule:nonzero;"/>
    </g>
</svg>
