<svg clip-rule="evenodd" fill-rule="evenodd" stroke-linejoin="round" stroke-miterlimit="2" viewBox="0 0 16 16" xmlns="http://www.w3.org/2000/svg"><path d="m3 13.5c.552 0 1 .448 1 1s-.448 1-1 1-1-.448-1-1 .448-1 1-1zm14.5.5c.276 0 .5.224.5.5 0 .245-.177.45-.41.492l-.09.008h-11c-.276 0-.5-.224-.5-.5 0-.245.177-.45.41-.492l.09-.008zm-14.5-5.5c.552 0 1 .448 1 1s-.448 1-1 1-1-.448-1-1 .448-1 1-1zm14.5.5c.276 0 .5.224.5.5s-.224.5-.5.5h-11c-.276 0-.5-.224-.5-.5s.224-.5.5-.5zm-14.5-5.5c.552 0 1 .448 1 1s-.448 1-1 1-1-.448-1-1 .448-1 1-1zm14.5.5c.276 0 .5.224.5.5s-.224.5-.5.5h-11c-.276 0-.5-.224-.5-.5s.224-.5.5-.5z" fill="#1abc9c" fill-rule="nonzero" transform="matrix(-1 0 0 1 18 -2)"/></svg>