<svg clip-rule="evenodd" fill-rule="evenodd" stroke-linejoin="round" stroke-miterlimit="2" viewBox="0 0 16 16" xmlns="http://www.w3.org/2000/svg"><path d="m1.911 7.383c.369-1.142.977-2.191 1.78-3.079.136-.151.349-.204.539-.136l1.919.686c.52.186 1.092-.085 1.278-.605.018-.051.032-.104.042-.157l.365-2.006c.037-.2.19-.357.388-.4.58-.123 1.175-.186 1.778-.186.602 0 1.197.063 1.777.186.198.042.351.2.388.399l.366 2.007c.099.543.62.903 1.163.804.054-.01.106-.024.157-.042l1.919-.686c.19-.068.403-.015.539.136.803.888 1.411 1.937 1.78 3.079.063.192.002.404-.152.535l-1.555 1.32c-.421.357-.472.988-.115 1.409.035.042.074.08.115.115l1.555 1.32c.154.131.215.343.152.535-.369 1.142-.977 2.191-1.78 3.079-.136.151-.349.204-.539.136l-1.919-.686c-.52-.186-1.092.085-1.278.605-.018.051-.032.104-.042.157l-.366 2.007c-.037.199-.19.357-.388.399-.58.123-1.175.186-1.777.186-.603 0-1.198-.063-1.778-.186-.198-.043-.351-.2-.388-.4l-.365-2.006c-.099-.543-.62-.903-1.163-.804-.054.01-.106.024-.157.042l-1.919.686c-.19.068-.403.015-.539-.136-.803-.888-1.411-1.937-1.78-3.079-.063-.192-.002-.404.152-.535l1.555-1.32c.421-.357.472-.988.115-1.409-.035-.042-.074-.08-.115-.115l-1.555-1.32c-.154-.131-.215-.343-.152-.535zm1.06-.006 1.294 1.098c.083.071.16.148.23.23.715.842.612 2.105-.23 2.82l-1.294 1.098c.292.782.714 1.509 1.245 2.152l1.596-.571c.102-.036.208-.064.314-.084 1.087-.198 2.129.522 2.327 1.609l.304 1.669c.408.068.823.102 1.243.102s.835-.034 1.242-.102l.305-1.669c.02-.107.048-.212.084-.314.372-1.04 1.517-1.582 2.557-1.211l1.596.571c.531-.643.953-1.37 1.245-2.152l-1.294-1.098c-.083-.071-.16-.148-.23-.23-.715-.842-.612-2.105.23-2.82l1.294-1.098c-.292-.782-.714-1.509-1.245-2.152l-1.596.571c-.102.036-.208.064-.314.084-1.087.198-2.129-.522-2.327-1.609l-.305-1.669c-.407-.068-.822-.102-1.242-.102s-.835.034-1.243.102l-.304 1.669c-.02.107-.048.212-.084.314-.372 1.04-1.517 1.582-2.557 1.211l-1.596-.571c-.531.643-.953 1.37-1.245 2.152zm4.529 2.623c0-1.381 1.119-2.5 2.5-2.5s2.5 1.119 2.5 2.5-1.119 2.5-2.5 2.5-2.5-1.119-2.5-2.5zm1 0c0 .828.672 1.5 1.5 1.5s1.5-.672 1.5-1.5-.672-1.5-1.5-1.5-1.5.672-1.5 1.5z" fill="#1abc9c" fill-rule="nonzero" transform="matrix(.941176 0 0 .941176 -1.41176 -1.41176)"/></svg>