<svg clip-rule="evenodd" fill-rule="evenodd" stroke-linejoin="round" stroke-miterlimit="2" viewBox="0 0 16 16" xmlns="http://www.w3.org/2000/svg"><g fill="#1abc9c"><path d="m17 10c0-.276-.307-.5-.685-.5h-12.63c-.378 0-.685.224-.685.5s.307.5.685.5h12.63c.378 0 .685-.224.685-.5z" transform="matrix(.729462 0 0 1 1.09914 -8.5)"/><path d="m9.5 14.553c0 .276.224.5.5.5s.5-.224.5-.5v-4.053h4.004c.276 0 .5-.224.5-.5s-.224-.5-.5-.5h-4.004v-4.053c0-.276-.224-.5-.5-.5s-.5.224-.5.5v4.053h-4.004c-.276 0-.5.224-.5.5s.224.5.5.5h4.004z" fill-rule="nonzero" transform="matrix(1.00214 0 0 1.02722 -1.50643 -.772187)"/></g></svg>