<svg clip-rule="evenodd" fill-rule="evenodd" stroke-linejoin="round" stroke-miterlimit="2" viewBox="0 0 16 16" xmlns="http://www.w3.org/2000/svg"><path d="m3.009 1.747c3.141-2.513 7.737-2.315 10.648.596 3.124 3.124 3.124 8.19 0 11.314s-8.189 3.124-11.314 0c-1.9-1.901-2.697-4.587-2.198-7.177.072-.372.431-.615.803-.544.155.03.343.129.347.277.009.344-.295 1.149-.295 1.787 0 3.863 3.223 7 7.087 7 3.863 0 6.913-3.137 6.913-7s-3.137-7-7-7c-1.935 0-3.447.561-4.649 1.735.163-.005.365-.018.612-.038l.814.001.086.006c.311.043.551.315.551.645 0 .359-.285.651-.637.651h-2.405l-.087-.006c-.311-.043-.551-.316-.551-.645v-2.456l.006-.088c.042-.318.309-.563.632-.563.352 0 .637.292.637.651z" fill="#1abc9c" fill-rule="nonzero"/></svg>