<svg clip-rule="evenodd" fill-rule="evenodd" stroke-linejoin="round" stroke-miterlimit="2" viewBox="0 0 16 16" xmlns="http://www.w3.org/2000/svg"><path d="m3.132 9.162c-.186.204-.172.52.032.706s.52.172.707-.032l5.63-6.168v13.831c0 .276.224.5.5.5.277 0 .5-.224.5-.5v-13.828l5.628 6.165c.187.204.503.218.707.032s.218-.502.032-.706l-6.314-6.917c-.128-.14-.295-.22-.468-.239-.028-.005-.056-.007-.085-.007-.027 0-.053.002-.079.006-.176.018-.346.098-.476.24z" fill="#1abc9c" fill-rule="nonzero" transform="translate(-2.49866 -1.99868)"/></svg>