<svg clip-rule="evenodd" fill-rule="evenodd" stroke-linejoin="round" stroke-miterlimit="2" viewBox="0 0 16 16" xmlns="http://www.w3.org/2000/svg"><g fill="#1abc9c"><path d="m15 5.5c0-.276-.336-.5-.75-.5h-4.5c-.414 0-.75.224-.75.5s.336.5.75.5h4.5c.414 0 .75-.224.75-.5z" transform="matrix(-.634038 .206011 -.309017 -.951057 22.7102 7.14064)"/><path d="m2.189 6.678c.093-.082.193-.161.3-.238.397-.283.901-.431 1.514-.431.435 0 .844.083 1.226.248.381.164.714.39 1.001.677.287.286.515.622.684 1.007.171.388.257.8.257 1.236v4.442c0 .205-.077.353-.202.456-.116.095-.248.142-.396.142-.131 0-.259-.044-.38-.142-.125-.103-.201-.251-.201-.456v-4.442c0-.245-.051-.488-.151-.729-.101-.243-.24-.456-.419-.64-.181-.185-.393-.336-.634-.452-.232-.112-.478-.168-.737-.168-.235 0-.463.046-.684.136s-.418.219-.59.387c-.174.169-.315.378-.425.625-.11.248-.163.529-.163.841v4.442c0 .152-.052.289-.161.408-.112.124-.257.19-.437.19-.188 0-.333-.072-.439-.202-.095-.116-.142-.248-.142-.396v-11.629c0-.19.064-.327.159-.423.095-.095.232-.158.422-.158.172 0 .308.055.415.151.116.104.183.245.183.43z" fill-rule="nonzero" transform="matrix(1 0 0 .920965 0 1.12362)"/><path d="m15 5.5c0-.276-.336-.5-.75-.5h-4.5c-.414 0-.75.224-.75.5s.336.5.75.5h4.5c.414 0 .75-.224.75-.5z" transform="matrix(-.391857 -.539345 .809017 -.587785 12.9283 16.323)"/><path d="m15 5.5c0-.276-.336-.5-.75-.5h-4.5c-.414 0-.75.224-.75.5s.336.5.75.5h4.5c.414 0 .75-.224.75-.5z" transform="matrix(.391857 -.539345 .809017 .587785 1.17255 9.85735)"/><path d="m15 5.5c0-.276-.336-.5-.75-.5h-4.5c-.414 0-.75.224-.75.5s.336.5.75.5h4.5c.414 0 .75-.224.75-.5z" transform="matrix(0 .666667 -1 0 17 -5)"/><path d="m15 5.5c0-.276-.336-.5-.75-.5h-4.5c-.414 0-.75.224-.75.5s.336.5.75.5h4.5c.414 0 .75-.224.75-.5z" transform="matrix(.634038 .206011 -.309017 .951057 3.68903 -3.32098)"/></g></svg>