<svg clip-rule="evenodd" fill-rule="evenodd" stroke-linejoin="round" stroke-miterlimit="2" viewBox="0 0 16 16" xmlns="http://www.w3.org/2000/svg"><g fill="#1abc9c" fill-rule="nonzero"><path d="m2.189 7.242c.096-.078.199-.153.311-.226.394-.258.894-.394 1.503-.394.432 0 .838.076 1.217.226.381.151.714.358 1.001.622.288.265.518.576.689.934.174.363.261.748.261 1.155v4.083c0 .201-.079.346-.212.446-.113.086-.242.129-.386.129-.128 0-.252-.04-.37-.129-.133-.1-.211-.245-.211-.446v-4.083c0-.219-.05-.437-.147-.652-.1-.22-.238-.413-.414-.579-.181-.171-.392-.309-.634-.416-.235-.104-.484-.156-.746-.156-.238 0-.468.042-.692.126-.222.084-.42.202-.592.356-.171.154-.311.343-.419.567-.107.222-.159.474-.159.754v4.083c0 .15-.054.285-.17.402-.11.111-.251.173-.428.173-.185 0-.326-.068-.431-.185-.101-.114-.15-.245-.15-.39v-10.689c0-.188.066-.322.168-.416.093-.085.227-.144.413-.144.168 0 .301.051.405.137.124.102.193.241.193.423z"/><path d="m10.18 13.068h5.05c.157 0 .29.053.402.155.117.108.18.247.18.419 0 .15-.054.285-.17.402-.114.116-.252.173-.412.173h-5.648c-.125 0-.254-.041-.38-.138-.146-.111-.217-.258-.217-.437v-1.414c0-.479.156-.918.472-1.317.285-.359.642-.702 1.072-1.025.414-.311.86-.618 1.338-.919.461-.29.89-.594 1.289-.913.383-.307.703-.636.957-.989.23-.32.345-.68.345-1.079 0-.226-.044-.455-.13-.685-.086-.228-.214-.43-.385-.608-.174-.181-.395-.327-.66-.44-.272-.116-.591-.172-.956-.172-.546 0-1.001.137-1.362.422-.34.269-.5.669-.5 1.191 0 .13-.045.257-.15.375-.097.11-.247.185-.463.185-.165 0-.295-.057-.394-.158-.108-.108-.188-.29-.188-.562 0-.37.08-.716.239-1.036.157-.315.373-.589.65-.822.27-.226.592-.408.968-.543.37-.133.781-.2 1.232-.2.498 0 .949.084 1.355.249.409.166.756.387 1.042.661.29.278.513.603.667.973.153.369.23.754.23 1.155 0 .59-.153 1.114-.456 1.572-.285.432-.643.831-1.074 1.197-.418.354-.869.683-1.352.988-.465.293-.899.584-1.302.872-.386.277-.708.558-.964.844-.214.239-.325.499-.325.784z"/></g></svg>