<svg clip-rule="evenodd" fill-rule="evenodd" stroke-linejoin="round" stroke-miterlimit="2" viewBox="0 0 16 16" xmlns="http://www.w3.org/2000/svg"><g fill="#1abc9c" fill-rule="nonzero"><path d="m2.189 6.678c.093-.082.193-.161.3-.238.397-.283.901-.431 1.514-.431.435 0 .844.083 1.226.248.381.164.714.39 1.001.677.287.286.515.622.684 1.007.171.388.257.8.257 1.236v4.442c0 .205-.077.353-.202.456-.116.095-.248.142-.396.142-.131 0-.259-.044-.38-.142-.125-.103-.201-.251-.201-.456v-4.442c0-.245-.051-.488-.151-.729-.101-.243-.24-.456-.419-.64-.181-.185-.393-.336-.634-.452-.232-.112-.478-.168-.737-.168-.235 0-.463.046-.684.136s-.418.219-.59.387c-.174.169-.315.378-.425.625-.11.248-.163.529-.163.841v4.442c0 .152-.052.289-.161.408-.112.124-.257.19-.437.19-.188 0-.333-.072-.439-.202-.095-.116-.142-.248-.142-.396v-11.629c0-.19.064-.327.159-.423.095-.095.232-.158.422-.158.172 0 .308.055.415.151.116.104.183.245.183.43z" transform="matrix(1 0 0 .920965 0 1.12362)"/><path d="m10.963 4.453 1.048-2.031c.054-.095.112-.176.173-.244.097-.108.246-.182.462-.182.188 0 .324.065.418.165.088.094.148.229.148.416v11.042c0 .205-.077.353-.202.456-.116.095-.248.142-.396.142-.147 0-.279-.047-.395-.142-.126-.103-.202-.251-.202-.456v-8.613l-.096.178c-.141.262-.338.37-.56.37-.176 0-.317-.06-.427-.17-.114-.114-.17-.252-.17-.411 0-.092.027-.208.1-.345.042-.079.075-.137.099-.175z" transform="matrix(1 0 0 .965549 0 .489776)"/></g></svg>