<svg clip-rule="evenodd" fill-rule="evenodd" stroke-linejoin="round" stroke-miterlimit="2" viewBox="0 0 16 16" xmlns="http://www.w3.org/2000/svg"><g fill="#1abc9c" fill-rule="nonzero"><path d="m2.189 7.242c.096-.078.199-.153.311-.226.394-.258.894-.394 1.503-.394.432 0 .838.076 1.217.226.381.151.714.358 1.001.622.288.265.518.576.689.934.174.363.261.748.261 1.155v4.083c0 .201-.079.346-.212.446-.113.086-.242.129-.386.129-.128 0-.252-.04-.37-.129-.133-.1-.211-.245-.211-.446v-4.083c0-.219-.05-.437-.147-.652-.1-.22-.238-.413-.414-.579-.181-.171-.392-.309-.634-.416-.235-.104-.484-.156-.746-.156-.238 0-.468.042-.692.126-.222.084-.42.202-.592.356-.171.154-.311.343-.419.567-.107.222-.159.474-.159.754v4.083c0 .15-.054.285-.17.402-.11.111-.251.173-.428.173-.185 0-.326-.068-.431-.185-.101-.114-.15-.245-.15-.39v-10.689c0-.188.066-.322.168-.416.093-.085.227-.144.413-.144.168 0 .301.051.405.137.124.102.193.241.193.423z"/><path d="m8.647 10.714 4.072-7.414c.137-.251.338-.367.592-.367.151 0 .28.047.389.137.128.106.192.242.192.408 0 .093-.024.197-.085.309l-3.681 6.685h2.841v-3.101c0-.21.086-.355.226-.448.109-.073.233-.111.371-.111.139 0 .263.038.372.111.14.093.226.238.226.448v3.101h.624c.201 0 .346.072.447.185.102.114.15.244.15.389 0 .146-.048.276-.15.39-.101.113-.246.185-.447.185h-.624v2.021c0 .201-.078.346-.212.446-.113.086-.241.129-.386.129-.144 0-.272-.043-.385-.129-.134-.1-.212-.245-.212-.446v-2.021h-3.829c-.212 0-.357-.08-.451-.199-.087-.11-.13-.235-.13-.376 0-.128.032-.238.09-.332z"/></g></svg>