<svg clip-rule="evenodd" fill-rule="evenodd" stroke-linejoin="round" stroke-miterlimit="2" viewBox="0 0 16 16" xmlns="http://www.w3.org/2000/svg"><g fill="#1abc9c" fill-rule="nonzero"><path d="m2.189 7.242c.096-.078.199-.153.311-.226.394-.258.894-.394 1.503-.394.432 0 .838.076 1.217.226.381.151.714.358 1.001.622.288.265.518.576.689.934.174.363.261.748.261 1.155v4.083c0 .201-.079.346-.212.446-.113.086-.242.129-.386.129-.128 0-.252-.04-.37-.129-.133-.1-.211-.245-.211-.446v-4.083c0-.219-.05-.437-.147-.652-.1-.22-.238-.413-.414-.579-.181-.171-.392-.309-.634-.416-.235-.104-.484-.156-.746-.156-.238 0-.468.042-.692.126-.222.084-.42.202-.592.356-.171.154-.311.343-.419.567-.107.222-.159.474-.159.754v4.083c0 .15-.054.285-.17.402-.11.111-.251.173-.428.173-.185 0-.326-.068-.431-.185-.101-.114-.15-.245-.15-.39v-10.689c0-.188.066-.322.168-.416.093-.085.227-.144.413-.144.168 0 .301.051.405.137.124.102.193.241.193.423z"/><path d="m10.68 7.483h1.631c.463 0 .895.055 1.296.164.42.114.787.303 1.101.564.317.264.566.603.745 1.021.173.403.264.896.264 1.479v.277c0 .591-.09 1.095-.262 1.512-.179.433-.428.783-.745 1.052-.313.266-.683.46-1.109.58-.407.114-.842.172-1.306.172-.522 0-.991-.069-1.406-.205-.426-.14-.785-.332-1.077-.574-.301-.249-.53-.54-.686-.873-.157-.333-.236-.688-.236-1.066 0-.225.081-.374.192-.466.108-.09.238-.137.389-.137.138 0 .266.039.383.12.148.102.231.25.231.454 0 .245.051.464.159.658.109.197.258.362.446.494.201.142.437.25.707.327.28.08.58.119.898.119.704 0 1.259-.165 1.658-.519.392-.348.569-.901.569-1.648v-.277c0-.708-.175-1.237-.56-1.574-.394-.345-.947-.506-1.651-.506h-2.142c-.307 0-.485-.086-.557-.16-.107-.111-.151-.233-.151-.356l.016-.268.286-4.36c0-.006.001-.012.002-.018.021-.175.09-.301.185-.389.1-.091.233-.147.41-.147h4.236c.207 0 .348.083.439.214.073.106.11.225.11.36 0 .134-.037.254-.11.36-.091.131-.232.214-.439.214h-3.661z"/></g></svg>