<?xml version="1.0" encoding="UTF-8" standalone="no"?>
<!DOCTYPE svg PUBLIC "-//W3C//DTD SVG 1.1//EN" "http://www.w3.org/Graphics/SVG/1.1/DTD/svg11.dtd">
<svg width="100%" height="100%" viewBox="0 0 16 16" version="1.1" xmlns="http://www.w3.org/2000/svg" xmlns:xlink="http://www.w3.org/1999/xlink" xml:space="preserve" xmlns:serif="http://www.serif.com/" style="fill-rule:evenodd;clip-rule:evenodd;stroke-linejoin:round;stroke-miterlimit:2;">
    <path d="M2.189,7.242C2.285,7.164 2.388,7.089 2.5,7.016C2.894,6.758 3.394,6.622 4.003,6.622C4.435,6.622 4.841,6.698 5.22,6.848C5.601,6.999 5.934,7.206 6.221,7.47C6.509,7.735 6.739,8.046 6.91,8.404C7.084,8.767 7.171,9.152 7.171,9.559C7.171,9.559 7.171,13.642 7.171,13.642C7.171,13.843 7.092,13.988 6.959,14.088C6.846,14.174 6.717,14.217 6.573,14.217C6.445,14.217 6.321,14.177 6.203,14.088C6.07,13.988 5.992,13.843 5.992,13.642L5.992,9.559C5.992,9.34 5.942,9.122 5.845,8.907C5.745,8.687 5.607,8.494 5.431,8.328C5.25,8.157 5.039,8.019 4.797,7.912C4.562,7.808 4.313,7.756 4.051,7.756C3.813,7.756 3.583,7.798 3.359,7.882C3.137,7.966 2.939,8.084 2.767,8.238C2.596,8.392 2.456,8.581 2.348,8.805C2.241,9.027 2.189,9.279 2.189,9.559L2.189,13.642C2.189,13.792 2.135,13.927 2.019,14.044C1.909,14.155 1.768,14.217 1.591,14.217C1.406,14.217 1.265,14.149 1.16,14.032C1.059,13.918 1.01,13.787 1.01,13.642L1.01,2.953C1.01,2.765 1.076,2.631 1.178,2.537C1.271,2.452 1.405,2.393 1.591,2.393C1.759,2.393 1.892,2.444 1.996,2.53C2.12,2.632 2.189,2.771 2.189,2.953L2.189,7.242Z" style="fill:rgb(26,188,156);fill-rule:nonzero;"/>
    <path d="M8.647,10.714L12.719,3.3C12.856,3.049 13.057,2.933 13.311,2.933C13.462,2.933 13.591,2.98 13.7,3.07C13.828,3.176 13.892,3.312 13.892,3.478C13.892,3.571 13.868,3.675 13.807,3.787L10.126,10.472L12.967,10.472L12.967,7.371C12.967,7.161 13.053,7.016 13.193,6.923C13.302,6.85 13.426,6.812 13.564,6.812C13.703,6.812 13.827,6.85 13.936,6.923C14.076,7.016 14.162,7.161 14.162,7.371L14.162,10.472L14.786,10.472C14.987,10.472 15.132,10.544 15.233,10.657C15.335,10.771 15.383,10.901 15.383,11.046C15.383,11.192 15.335,11.322 15.233,11.436C15.132,11.549 14.987,11.621 14.786,11.621L14.162,11.621L14.162,13.642C14.162,13.843 14.084,13.988 13.95,14.088C13.837,14.174 13.709,14.217 13.564,14.217C13.42,14.217 13.292,14.174 13.179,14.088C13.045,13.988 12.967,13.843 12.967,13.642L12.967,11.621L9.138,11.621C8.926,11.621 8.781,11.541 8.687,11.422C8.6,11.312 8.557,11.187 8.557,11.046C8.557,10.918 8.589,10.808 8.647,10.714Z" style="fill:rgb(26,188,156);fill-rule:nonzero;"/>
</svg>
