<svg clip-rule="evenodd" fill-rule="evenodd" stroke-linejoin="round" stroke-miterlimit="2" viewBox="0 0 16 16" xmlns="http://www.w3.org/2000/svg"><path d="m5.965 4.741c.126-.142.269-.277.429-.407.388-.313.88-.474 1.479-.474.427 0 .829.092 1.205.276.371.181.697.431.977.749.277.314.498.682.662 1.106.164.423.246.871.246 1.345v1.204c0 .462-.082.902-.247 1.32-.163.415-.382.785-.658 1.11-.279.33-.601.591-.965.785-.373.198-.769.297-1.189.297-.536 0-1.016-.149-1.442-.447-.188-.132-.354-.275-.497-.43v4.275c0 .137-.043.259-.129.366-.099.123-.226.184-.383.184-.163 0-.29-.065-.381-.193-.076-.105-.115-.224-.115-.357v-10.95c0-.17.049-.294.124-.379.084-.094.205-.153.372-.153.152 0 .273.053.368.149.09.093.144.219.144.383zm3.991 2.595v1.204c0 .31-.056.611-.168.904-.114.296-.263.558-.45.787-.183.224-.4.404-.65.541-.241.132-.492.198-.752.198-.278 0-.533-.065-.764-.196-.245-.139-.458-.305-.639-.5-.181-.194-.323-.392-.425-.597-.092-.184-.143-.339-.143-.469v-1.872c0-.379.057-.719.175-1.019.117-.298.266-.549.451-.753.181-.2.387-.354.62-.462.229-.106.466-.16.709-.16.27 0 .526.066.768.199.252.137.473.316.661.536.19.221.338.478.445.77.108.294.162.59.162.889z" fill="#1abc9c" transform="translate(.042565)"/></svg>