<svg clip-rule="evenodd" fill-rule="evenodd" stroke-linejoin="round" stroke-miterlimit="2" viewBox="0 0 16 16" xmlns="http://www.w3.org/2000/svg"><g fill="#1abc9c"><path d="m2.189 7.242c.096-.078.199-.153.311-.226.394-.258.894-.394 1.503-.394.432 0 .838.076 1.217.226.381.151.714.358 1.001.622.288.265.518.576.689.934.174.363.261.748.261 1.155v4.083c0 .201-.079.346-.212.446-.113.086-.242.129-.386.129-.128 0-.252-.04-.37-.129-.133-.1-.211-.245-.211-.446v-4.083c0-.219-.05-.437-.147-.652-.1-.22-.238-.413-.414-.579-.181-.171-.392-.309-.634-.416-.235-.104-.484-.156-.746-.156-.238 0-.468.042-.692.126-.222.084-.42.202-.592.356-.171.154-.311.343-.419.567-.107.222-.159.474-.159.754v4.083c0 .15-.054.285-.17.402-.11.111-.251.173-.428.173-.185 0-.326-.068-.431-.185-.101-.114-.15-.245-.15-.39v-10.689c0-.188.066-.322.168-.416.093-.085.227-.144.413-.144.168 0 .301.051.405.137.124.102.193.241.193.423z" fill-rule="nonzero"/><path d="m10.608 8.036c.194-.143.408-.262.644-.356.473-.189 1.001-.285 1.583-.285.46 0 .889.05 1.288.148.42.103.787.278 1.101.523.32.25.572.584.753 1.005.173.403.263.901.263 1.494v.423c0 .591-.089 1.095-.261 1.512-.179.433-.429.783-.745 1.052-.314.266-.68.46-1.1.58-.402.114-.835.172-1.299.172s-.899-.058-1.306-.172c-.426-.12-.796-.314-1.109-.58-.317-.269-.566-.619-.745-1.052-.172-.417-.262-.921-.262-1.512v-4.739c0-.592.09-1.095.262-1.512.179-.433.425-.782.734-1.05s.676-.462 1.104-.582c.407-.115.842-.172 1.306-.172.524 0 .993.072 1.409.213.425.145.783.339 1.074.58.3.248.53.538.692.869.164.335.246.687.246 1.056 0 .225-.081.374-.192.466-.109.09-.238.137-.389.137-.138 0-.266-.039-.384-.121-.147-.101-.23-.25-.23-.453 0-.235-.051-.446-.157-.634-.111-.194-.263-.36-.457-.497-.207-.147-.446-.261-.718-.342-.279-.084-.577-.126-.894-.126-.703 0-1.255.165-1.648.518-.388.348-.563.903-.563 1.65zm0 2.952v-.554c0-.675.173-1.163.562-1.447.414-.302.97-.443 1.665-.443.708 0 1.264.147 1.661.464.382.305.549.83.549 1.557v.423c0 .747-.175 1.301-.562 1.649-.394.353-.946.518-1.648.518-.704 0-1.259-.165-1.658-.519-.392-.348-.569-.901-.569-1.648z" transform="translate(-.740169)"/></g></svg>