<?xml version="1.0" encoding="UTF-8" standalone="no"?>
<!DOCTYPE svg PUBLIC "-//W3C//DTD SVG 1.1//EN" "http://www.w3.org/Graphics/SVG/1.1/DTD/svg11.dtd">
<svg width="100%" height="100%" viewBox="0 0 16 16" version="1.1" xmlns="http://www.w3.org/2000/svg" xmlns:xlink="http://www.w3.org/1999/xlink" xml:space="preserve" xmlns:serif="http://www.serif.com/" style="fill-rule:evenodd;clip-rule:evenodd;stroke-linejoin:round;stroke-miterlimit:2;">
    <path d="M2.189,7.242C2.285,7.164 2.388,7.089 2.5,7.016C2.894,6.758 3.394,6.622 4.003,6.622C4.435,6.622 4.841,6.698 5.22,6.848C5.601,6.999 5.934,7.206 6.221,7.47C6.509,7.735 6.739,8.046 6.91,8.404C7.084,8.767 7.171,9.152 7.171,9.559C7.171,9.559 7.171,13.642 7.171,13.642C7.171,13.843 7.092,13.988 6.959,14.088C6.846,14.174 6.717,14.217 6.573,14.217C6.445,14.217 6.321,14.177 6.203,14.088C6.07,13.988 5.992,13.843 5.992,13.642L5.992,9.559C5.992,9.34 5.942,9.122 5.845,8.907C5.745,8.687 5.607,8.494 5.431,8.328C5.25,8.157 5.039,8.019 4.797,7.912C4.562,7.808 4.313,7.756 4.051,7.756C3.813,7.756 3.583,7.798 3.359,7.882C3.137,7.966 2.939,8.084 2.767,8.238C2.596,8.392 2.456,8.581 2.348,8.805C2.241,9.027 2.189,9.279 2.189,9.559L2.189,13.642C2.189,13.792 2.135,13.927 2.019,14.044C1.909,14.155 1.768,14.217 1.591,14.217C1.406,14.217 1.265,14.149 1.16,14.032C1.059,13.918 1.01,13.787 1.01,13.642L1.01,2.953C1.01,2.765 1.076,2.631 1.178,2.537C1.271,2.452 1.405,2.393 1.591,2.393C1.759,2.393 1.892,2.444 1.996,2.53C2.12,2.632 2.189,2.771 2.189,2.953L2.189,7.242Z" style="fill:rgb(26,188,156);fill-rule:nonzero;"/>
    <path d="M14.436,8.242C14.736,8.426 14.995,8.658 15.214,8.936C15.552,9.368 15.732,9.957 15.732,10.711L15.732,10.988C15.732,11.581 15.64,12.085 15.462,12.503C15.277,12.934 15.029,13.282 14.721,13.55C14.412,13.817 14.047,14.012 13.626,14.132C13.224,14.246 12.796,14.304 12.343,14.304C11.773,14.304 11.28,14.226 10.864,14.074C10.44,13.919 10.084,13.717 9.793,13.472C9.492,13.217 9.271,12.936 9.126,12.631C8.978,12.319 8.906,12.009 8.906,11.703C8.906,11.437 8.968,11.267 9.036,11.181C9.134,11.057 9.275,10.983 9.471,10.983C9.721,10.983 9.878,11.08 9.968,11.216C10.045,11.331 10.085,11.459 10.085,11.601C10.085,11.721 10.116,11.868 10.173,12.045C10.229,12.22 10.333,12.388 10.48,12.551C10.633,12.721 10.851,12.859 11.13,12.975C11.427,13.098 11.81,13.155 12.279,13.155C13.003,13.155 13.569,12.99 13.968,12.636C14.361,12.288 14.538,11.735 14.538,10.988L14.538,10.711C14.538,10.092 14.36,9.622 13.979,9.313C13.578,8.988 13.031,8.835 12.343,8.835C12.126,8.835 11.977,8.76 11.88,8.651C11.778,8.537 11.73,8.406 11.73,8.261C11.73,8.116 11.778,7.986 11.88,7.871C11.981,7.758 12.126,7.687 12.327,7.687C12.986,7.687 13.483,7.566 13.808,7.293C14.122,7.03 14.252,6.564 14.252,5.913C14.252,5.307 14.122,4.842 13.834,4.527C13.548,4.214 13.062,4.081 12.39,4.081C11.945,4.081 11.587,4.135 11.317,4.252C11.064,4.363 10.866,4.492 10.728,4.647C10.598,4.794 10.508,4.951 10.462,5.12C10.413,5.302 10.386,5.46 10.386,5.592C10.386,5.852 10.296,6.024 10.169,6.128C10.073,6.206 9.948,6.254 9.789,6.254C9.606,6.254 9.458,6.184 9.343,6.048C9.258,5.946 9.191,5.77 9.191,5.505C9.191,5.306 9.231,5.063 9.315,4.775C9.401,4.483 9.566,4.194 9.818,3.912C10.06,3.64 10.393,3.405 10.82,3.215C11.233,3.03 11.772,2.933 12.438,2.933C12.87,2.933 13.266,2.983 13.624,3.082C14.003,3.187 14.327,3.355 14.598,3.581C14.874,3.813 15.087,4.113 15.235,4.486C15.374,4.838 15.447,5.27 15.447,5.782C15.447,6.567 15.29,7.175 14.997,7.611C14.828,7.863 14.64,8.073 14.436,8.242Z" style="fill:rgb(26,188,156);fill-rule:nonzero;"/>
</svg>
