<svg clip-rule="evenodd" fill-rule="evenodd" stroke-linejoin="round" stroke-miterlimit="2" viewBox="0 0 16 16" xmlns="http://www.w3.org/2000/svg"><g fill="#1abc9c" fill-rule="nonzero"><path d="m2.189 7.242c.096-.078.199-.153.311-.226.394-.258.894-.394 1.503-.394.432 0 .838.076 1.217.226.381.151.714.358 1.001.622.288.265.518.576.689.934.174.363.261.748.261 1.155v4.083c0 .201-.079.346-.212.446-.113.086-.242.129-.386.129-.128 0-.252-.04-.37-.129-.133-.1-.211-.245-.211-.446v-4.083c0-.219-.05-.437-.147-.652-.1-.22-.238-.413-.414-.579-.181-.171-.392-.309-.634-.416-.235-.104-.484-.156-.746-.156-.238 0-.468.042-.692.126-.222.084-.42.202-.592.356-.171.154-.311.343-.419.567-.107.222-.159.474-.159.754v4.083c0 .15-.054.285-.17.402-.11.111-.251.173-.428.173-.185 0-.326-.068-.431-.185-.101-.114-.15-.245-.15-.39v-10.689c0-.188.066-.322.168-.416.093-.085.227-.144.413-.144.168 0 .301.051.405.137.124.102.193.241.193.423z"/><path d="m14.436 8.242c.3.184.559.416.778.694.338.432.518 1.021.518 1.775v.277c0 .593-.092 1.097-.27 1.515-.185.431-.433.779-.741 1.047-.309.267-.674.462-1.095.582-.402.114-.83.172-1.283.172-.57 0-1.063-.078-1.479-.23-.424-.155-.78-.357-1.071-.602-.301-.255-.522-.536-.667-.841-.148-.312-.22-.622-.22-.928 0-.266.062-.436.13-.522.098-.124.239-.198.435-.198.25 0 .407.097.497.233.077.115.117.243.117.385 0 .12.031.267.088.444.056.175.16.343.307.506.153.17.371.308.65.424.297.123.68.18 1.149.18.724 0 1.29-.165 1.689-.519.393-.348.57-.901.57-1.648v-.277c0-.619-.178-1.089-.559-1.398-.401-.325-.948-.478-1.636-.478-.217 0-.366-.075-.463-.184-.102-.114-.15-.245-.15-.39s.048-.275.15-.39c.101-.113.246-.184.447-.184.659 0 1.156-.121 1.481-.394.314-.263.444-.729.444-1.38 0-.606-.13-1.071-.418-1.386-.286-.313-.772-.446-1.444-.446-.445 0-.803.054-1.073.171-.253.111-.451.24-.589.395-.13.147-.22.304-.266.473-.049.182-.076.34-.076.472 0 .26-.09.432-.217.536-.096.078-.221.126-.38.126-.183 0-.331-.07-.446-.206-.085-.102-.152-.278-.152-.543 0-.199.04-.442.124-.73.086-.292.251-.581.503-.863.242-.272.575-.507 1.002-.697.413-.185.952-.282 1.618-.282.432 0 .828.05 1.186.149.379.105.703.273.974.499.276.232.489.532.637.905.139.352.212.784.212 1.296 0 .785-.157 1.393-.45 1.829-.169.252-.357.462-.561.631z"/></g></svg>