<?xml version="1.0" encoding="UTF-8" standalone="no"?>
<!DOCTYPE svg PUBLIC "-//W3C//DTD SVG 1.1//EN" "http://www.w3.org/Graphics/SVG/1.1/DTD/svg11.dtd">
<svg width="100%" height="100%" viewBox="0 0 16 16" version="1.1" xmlns="http://www.w3.org/2000/svg" xmlns:xlink="http://www.w3.org/1999/xlink" xml:space="preserve" xmlns:serif="http://www.serif.com/" style="fill-rule:evenodd;clip-rule:evenodd;stroke-linejoin:round;stroke-miterlimit:2;">
    <g transform="matrix(1,0,0,0.920965,0,1.12362)">
        <path d="M2.189,6.678C2.282,6.596 2.382,6.517 2.489,6.44C2.886,6.157 3.39,6.009 4.003,6.009C4.438,6.009 4.847,6.092 5.229,6.257C5.61,6.421 5.943,6.647 6.23,6.934C6.517,7.22 6.745,7.556 6.914,7.941C7.085,8.329 7.171,8.741 7.171,9.177C7.171,9.177 7.171,13.619 7.171,13.619C7.171,13.824 7.094,13.972 6.969,14.075C6.853,14.17 6.721,14.217 6.573,14.217C6.442,14.217 6.314,14.173 6.193,14.075C6.068,13.972 5.992,13.824 5.992,13.619L5.992,9.177C5.992,8.932 5.941,8.689 5.841,8.448C5.74,8.205 5.601,7.992 5.422,7.808C5.241,7.623 5.029,7.472 4.788,7.356C4.556,7.244 4.31,7.188 4.051,7.188C3.816,7.188 3.588,7.234 3.367,7.324C3.146,7.414 2.949,7.543 2.777,7.711C2.603,7.88 2.462,8.089 2.352,8.336C2.242,8.584 2.189,8.865 2.189,9.177L2.189,13.619C2.189,13.771 2.137,13.908 2.028,14.027C1.916,14.151 1.771,14.217 1.591,14.217C1.403,14.217 1.258,14.145 1.152,14.015C1.057,13.899 1.01,13.767 1.01,13.619L1.01,1.99C1.01,1.8 1.074,1.663 1.169,1.567C1.264,1.472 1.401,1.409 1.591,1.409C1.763,1.409 1.899,1.464 2.006,1.56C2.122,1.664 2.189,1.805 2.189,1.99L2.189,6.678Z" style="fill:rgb(26,188,156);fill-rule:nonzero;"/>
    </g>
    <g transform="matrix(1,0,0,0.965549,0,0.489776)">
        <path d="M10.963,4.453L12.011,2.422C12.065,2.327 12.123,2.246 12.184,2.178C12.281,2.07 12.43,1.996 12.646,1.996C12.834,1.996 12.97,2.061 13.064,2.161C13.152,2.255 13.212,2.39 13.212,2.577C13.212,2.577 13.212,13.619 13.212,13.619C13.212,13.824 13.135,13.972 13.01,14.075C12.894,14.17 12.762,14.217 12.614,14.217C12.467,14.217 12.335,14.17 12.219,14.075C12.093,13.972 12.017,13.824 12.017,13.619L12.017,5.006L11.921,5.184C11.78,5.446 11.583,5.554 11.361,5.554C11.185,5.554 11.044,5.494 10.934,5.384C10.82,5.27 10.764,5.132 10.764,4.973C10.764,4.881 10.791,4.765 10.864,4.628C10.906,4.549 10.939,4.491 10.963,4.453Z" style="fill:rgb(26,188,156);fill-rule:nonzero;"/>
    </g>
</svg>
