<?xml version="1.0" encoding="UTF-8" standalone="no"?>
<!DOCTYPE svg PUBLIC "-//W3C//DTD SVG 1.1//EN" "http://www.w3.org/Graphics/SVG/1.1/DTD/svg11.dtd">
<svg width="100%" height="100%" viewBox="0 0 16 16" version="1.1" xmlns="http://www.w3.org/2000/svg" xmlns:xlink="http://www.w3.org/1999/xlink" xml:space="preserve" xmlns:serif="http://www.serif.com/" style="fill-rule:evenodd;clip-rule:evenodd;stroke-linejoin:round;stroke-miterlimit:2;">
    <path d="M2.189,7.242C2.285,7.164 2.388,7.089 2.5,7.016C2.894,6.758 3.394,6.622 4.003,6.622C4.435,6.622 4.841,6.698 5.22,6.848C5.601,6.999 5.934,7.206 6.221,7.47C6.509,7.735 6.739,8.046 6.91,8.404C7.084,8.767 7.171,9.152 7.171,9.559C7.171,9.559 7.171,13.642 7.171,13.642C7.171,13.843 7.092,13.988 6.959,14.088C6.846,14.174 6.717,14.217 6.573,14.217C6.445,14.217 6.321,14.177 6.203,14.088C6.07,13.988 5.992,13.843 5.992,13.642L5.992,9.559C5.992,9.34 5.942,9.122 5.845,8.907C5.745,8.687 5.607,8.494 5.431,8.328C5.25,8.157 5.039,8.019 4.797,7.912C4.562,7.808 4.313,7.756 4.051,7.756C3.813,7.756 3.583,7.798 3.359,7.882C3.137,7.966 2.939,8.084 2.767,8.238C2.596,8.392 2.456,8.581 2.348,8.805C2.241,9.027 2.189,9.279 2.189,9.559L2.189,13.642C2.189,13.792 2.135,13.927 2.019,14.044C1.909,14.155 1.768,14.217 1.591,14.217C1.406,14.217 1.265,14.149 1.16,14.032C1.059,13.918 1.01,13.787 1.01,13.642L1.01,2.953C1.01,2.765 1.076,2.631 1.178,2.537C1.271,2.452 1.405,2.393 1.591,2.393C1.759,2.393 1.892,2.444 1.996,2.53C2.12,2.632 2.189,2.771 2.189,2.953L2.189,7.242Z" style="fill:rgb(26,188,156);fill-rule:nonzero;"/>
    <path d="M10.68,7.483L12.311,7.483C12.774,7.483 13.206,7.538 13.607,7.647C14.027,7.761 14.394,7.95 14.708,8.211C15.025,8.475 15.274,8.814 15.453,9.232C15.626,9.635 15.717,10.128 15.717,10.711L15.717,10.988C15.717,11.579 15.627,12.083 15.455,12.5C15.276,12.933 15.027,13.283 14.71,13.552C14.397,13.818 14.027,14.012 13.601,14.132C13.194,14.246 12.759,14.304 12.295,14.304C11.773,14.304 11.304,14.235 10.889,14.099C10.463,13.959 10.104,13.767 9.812,13.525C9.511,13.276 9.282,12.985 9.126,12.652C8.969,12.319 8.89,11.964 8.89,11.586C8.89,11.361 8.971,11.212 9.082,11.12C9.19,11.03 9.32,10.983 9.471,10.983C9.609,10.983 9.737,11.022 9.854,11.103C10.002,11.205 10.085,11.353 10.085,11.557C10.085,11.802 10.136,12.021 10.244,12.215C10.353,12.412 10.502,12.577 10.69,12.709C10.891,12.851 11.127,12.959 11.397,13.036C11.677,13.116 11.977,13.155 12.295,13.155C12.999,13.155 13.554,12.99 13.953,12.636C14.345,12.288 14.522,11.735 14.522,10.988L14.522,10.711C14.522,10.003 14.347,9.474 13.962,9.137C13.568,8.792 13.015,8.631 12.311,8.631L10.169,8.631C9.862,8.631 9.684,8.545 9.612,8.471C9.505,8.36 9.461,8.238 9.461,8.115L9.477,7.847L9.763,3.487C9.763,3.481 9.764,3.475 9.765,3.469C9.786,3.294 9.855,3.168 9.95,3.08C10.05,2.989 10.183,2.933 10.36,2.933L14.596,2.933C14.803,2.933 14.944,3.016 15.035,3.147C15.108,3.253 15.145,3.372 15.145,3.507C15.145,3.641 15.108,3.761 15.035,3.867C14.944,3.998 14.803,4.081 14.596,4.081L10.935,4.081L10.68,7.483Z" style="fill:rgb(26,188,156);fill-rule:nonzero;"/>
</svg>
