<svg clip-rule="evenodd" fill-rule="evenodd" stroke-linejoin="round" stroke-miterlimit="2" viewBox="0 0 16 16" xmlns="http://www.w3.org/2000/svg"><path d="m10 2c4.418 0 8 3.582 8 8s-3.582 8-8 8-8-3.582-8-8 3.582-8 8-8zm0 1c-3.866 0-7 3.134-7 7s3.134 7 7 7 7-3.134 7-7-3.134-7-7-7zm0 10.5c.414 0 .75.336.75.75s-.336.75-.75.75-.75-.336-.75-.75.336-.75.75-.75zm0-8c1.381 0 2.5 1.119 2.5 2.5 0 .73-.315 1.408-.849 1.877l-.154.125-.219.164-.087.071c-.056.048-.107.097-.156.149-.339.36-.535.856-.535 1.614 0 .276-.224.5-.5.5s-.5-.224-.5-.5c0-1.012.293-1.752.805-2.298.111-.119.227-.222.356-.323l.247-.185.118-.099c.299-.281.474-.673.474-1.095 0-.828-.672-1.5-1.5-1.5s-1.5.672-1.5 1.5c0 .276-.224.5-.5.5s-.5-.224-.5-.5c0-1.381 1.119-2.5 2.5-2.5z" fill="#1abc9c" fill-rule="nonzero" transform="translate(-2 -2)"/></svg>