<?xml version="1.0" encoding="UTF-8" standalone="no"?>
<!DOCTYPE svg PUBLIC "-//W3C//DTD SVG 1.1//EN" "http://www.w3.org/Graphics/SVG/1.1/DTD/svg11.dtd">
<svg width="100%" height="100%" viewBox="0 0 16 16" version="1.1" xmlns="http://www.w3.org/2000/svg" xmlns:xlink="http://www.w3.org/1999/xlink" xml:space="preserve" xmlns:serif="http://www.serif.com/" style="fill-rule:evenodd;clip-rule:evenodd;stroke-linejoin:round;stroke-miterlimit:2;">
    <g transform="matrix(1,0,0,1,-2,-2)">
        <path d="M10,2C14.418,2 18,5.582 18,10C18,14.418 14.418,18 10,18C5.582,18 2,14.418 2,10C2,5.582 5.582,2 10,2ZM10,3C6.134,3 3,6.134 3,10C3,13.866 6.134,17 10,17C13.866,17 17,13.866 17,10C17,6.134 13.866,3 10,3ZM10,13.5C10.414,13.5 10.75,13.836 10.75,14.25C10.75,14.664 10.414,15 10,15C9.586,15 9.25,14.664 9.25,14.25C9.25,13.836 9.586,13.5 10,13.5ZM10,5.5C11.381,5.5 12.5,6.619 12.5,8C12.5,8.73 12.185,9.408 11.651,9.877L11.497,10.002L11.278,10.166L11.191,10.237C11.135,10.285 11.084,10.334 11.035,10.386C10.696,10.746 10.5,11.242 10.5,12C10.5,12.276 10.276,12.5 10,12.5C9.724,12.5 9.5,12.276 9.5,12C9.5,10.988 9.793,10.248 10.305,9.702C10.416,9.583 10.532,9.48 10.661,9.379L10.908,9.194L11.026,9.095C11.325,8.814 11.5,8.422 11.5,8C11.5,7.172 10.828,6.5 10,6.5C9.172,6.5 8.5,7.172 8.5,8C8.5,8.276 8.276,8.5 8,8.5C7.724,8.5 7.5,8.276 7.5,8C7.5,6.619 8.619,5.5 10,5.5Z" style="fill:rgb(26,188,156);fill-rule:nonzero;"/>
    </g>
</svg>
