<?xml version="1.0" encoding="UTF-8" standalone="no"?>
<!DOCTYPE svg PUBLIC "-//W3C//DTD SVG 1.1//EN" "http://www.w3.org/Graphics/SVG/1.1/DTD/svg11.dtd">
<svg width="100%" height="100%" viewBox="0 0 16 16" version="1.1" xmlns="http://www.w3.org/2000/svg" xmlns:xlink="http://www.w3.org/1999/xlink" xml:space="preserve" xmlns:serif="http://www.serif.com/" style="fill-rule:evenodd;clip-rule:evenodd;stroke-linejoin:round;stroke-miterlimit:2;">
    <g transform="matrix(0.875,0,0,1,-0.75,-4)">
        <path d="M17.5,9C17.776,9 18,9.224 18,9.5C18,9.776 17.776,10 17.5,10L2.5,10C2.224,10 2,9.776 2,9.5C2,9.224 2.224,9 2.5,9L17.5,9Z" style="fill:rgb(26,188,156);fill-rule:nonzero;"/>
    </g>
    <g transform="matrix(1,0,0,1,-1,-1.5)">
        <path d="M3,3.5C3.552,3.5 4,3.948 4,4.5C4,5.052 3.552,5.5 3,5.5C2.448,5.5 2,5.052 2,4.5C2,3.948 2.448,3.5 3,3.5Z" style="fill:rgb(26,188,156);fill-rule:nonzero;"/>
    </g>
    <g transform="matrix(-0.707107,-0.749418,-0.853553,0.904628,27.6243,10.2403)">
        <path d="M13,8.5C13,8.224 12.73,8 12.397,8L8.603,8C8.27,8 8,8.224 8,8.5C8,8.776 8.27,9 8.603,9L12.397,9C12.73,9 13,8.776 13,8.5Z" style="fill:rgb(26,188,156);"/>
    </g>
    <g transform="matrix(-0.707107,0.749418,-0.853553,-0.904628,27.6243,12.7597)">
        <path d="M13,8.5C13,8.224 12.73,8 12.397,8L8.603,8C8.27,8 8,8.224 8,8.5C8,8.776 8.27,9 8.603,9L12.397,9C12.73,9 13,8.776 13,8.5Z" style="fill:rgb(26,188,156);"/>
    </g>
    <g transform="matrix(-0.707107,-0.749418,-0.853553,0.904628,23.6245,10.2401)">
        <path d="M13,8.5C13,8.224 12.73,8 12.397,8L8.603,8C8.27,8 8,8.224 8,8.5C8,8.776 8.27,9 8.603,9L12.397,9C12.73,9 13,8.776 13,8.5Z" style="fill:rgb(26,188,156);"/>
    </g>
    <g transform="matrix(-0.707107,0.749418,-0.853553,-0.904628,23.6245,12.7594)">
        <path d="M13,8.5C13,8.224 12.73,8 12.397,8L8.603,8C8.27,8 8,8.224 8,8.5C8,8.776 8.27,9 8.603,9L12.397,9C12.73,9 13,8.776 13,8.5Z" style="fill:rgb(26,188,156);"/>
    </g>
    <g transform="matrix(-0.707107,-0.749418,-0.853553,0.904628,19.6245,10.2401)">
        <path d="M13,8.5C13,8.224 12.73,8 12.397,8L8.603,8C8.27,8 8,8.224 8,8.5C8,8.776 8.27,9 8.603,9L12.397,9C12.73,9 13,8.776 13,8.5Z" style="fill:rgb(26,188,156);"/>
    </g>
    <g transform="matrix(-0.707107,0.749418,-0.853553,-0.904628,19.6245,12.7594)">
        <path d="M13,8.5C13,8.224 12.73,8 12.397,8L8.603,8C8.27,8 8,8.224 8,8.5C8,8.776 8.27,9 8.603,9L12.397,9C12.73,9 13,8.776 13,8.5Z" style="fill:rgb(26,188,156);"/>
    </g>
</svg>
