<svg clip-rule="evenodd" fill-rule="evenodd" stroke-linejoin="round" stroke-miterlimit="2" viewBox="0 0 16 16" xmlns="http://www.w3.org/2000/svg"><path d="m13.449 11.5-2.273-2.409c-.235-.249-.235-.654.001-.904.235-.249.617-.25.853 0l2.683 2.843c.122.129.18.3.176.47.004.17-.054.341-.176.47l-2.683 2.843c-.236.25-.618.249-.853 0-.236-.25-.236-.655-.001-.904zm-4 0-2.272-2.409c-.236-.249-.236-.654 0-.904.235-.25.618-.25.853 0l2.683 2.843c.122.129.181.3.176.47.005.169-.054.34-.176.47l-2.683 2.843c-.235.249-.618.249-.853-.001-.236-.249-.236-.654 0-.904zm-4 0-2.272-2.409c-.236-.249-.236-.654 0-.904.235-.25.618-.25.853 0l2.683 2.843c.122.129.181.3.176.47.005.169-.054.34-.176.47l-2.683 2.843c-.235.249-.618.249-.853-.001-.236-.249-.236-.654 0-.904zm9.114-6.5c.241 0 .437.224.437.5s-.196.5-.437.5h-13.125c-.242 0-.438-.224-.438-.5s.196-.5.438-.5zm-12.563-3c.552 0 1 .448 1 1s-.448 1-1 1-1-.448-1-1 .448-1 1-1z" fill="#1abc9c" fill-rule="nonzero"/></svg>