<svg clip-rule="evenodd" fill-rule="evenodd" stroke-linejoin="round" stroke-miterlimit="2" viewBox="0 0 16 16" xmlns="http://www.w3.org/2000/svg"><g fill="#1abc9c" fill-rule="nonzero"><path d="m17.5 9c.276 0 .5.224.5.5s-.224.5-.5.5h-15c-.276 0-.5-.224-.5-.5s.224-.5.5-.5z" transform="matrix(.875 0 0 1 -.75 -4)"/><path d="m3 3.5c.552 0 1 .448 1 1s-.448 1-1 1-1-.448-1-1 .448-1 1-1z" transform="translate(-1 -1.5)"/><path d="m11.217 9.5c1.537 0 2.783 1.246 2.783 2.783 0 1.473-1.144 2.679-2.592 2.776l-.191.007h-5.324c-.29 0-.575-.063-.838-.184l-.154-.08-3.649-2.085c-.312-.178-.334-.609-.067-.823l.067-.045 3.649-2.085c.252-.144.532-.231.819-.256l.173-.008zm-2.217 1h-3.107c-.13 0-.259.026-.379.075l-.117.057-2.89 1.65 2.89 1.652c.076.043.156.076.24.098l.127.025.129.009h3.107zm4 1.783c0-.93-.712-1.694-1.621-1.776l-.162-.007h-1.217v3.566h1.217c.93 0 1.694-.712 1.776-1.621z" transform="matrix(-1 0 0 1.08983 16 -1.35341)"/></g></svg>