<svg clip-rule="evenodd" fill-rule="evenodd" stroke-linejoin="round" stroke-miterlimit="2" viewBox="0 0 16 16" xmlns="http://www.w3.org/2000/svg"><g fill="#1abc9c"><path d="m17.5 9c.276 0 .5.224.5.5s-.224.5-.5.5h-15c-.276 0-.5-.224-.5-.5s.224-.5.5-.5z" fill-rule="nonzero" transform="matrix(.875 0 0 1 -.75 -4)"/><path d="m3 3.5c.552 0 1 .448 1 1s-.448 1-1 1-1-.448-1-1 .448-1 1-1z" fill-rule="nonzero" transform="translate(-1 -1.5)"/><path d="m14.005 9c.264 0 .517.105.703.292.187.186.292.439.292.703v3.991c0 .56-.454 1.014-1.014 1.014-1.698 0-5.043 0-6.169 0-.245 0-.481-.089-.666-.25-.54-.471-1.721-1.502-2.475-2.16-.17-.148-.268-.364-.268-.59s.098-.442.268-.59c.757-.66 1.946-1.698 2.482-2.166.18-.157.411-.244.65-.244zm-6.005 5h6v-4h-6l-2.5 2z"/></g></svg>