<svg clip-rule="evenodd" fill-rule="evenodd" stroke-linejoin="round" stroke-miterlimit="2" viewBox="0 0 16 16" xmlns="http://www.w3.org/2000/svg"><g fill="#1abc9c"><path d="m17.5 9c.276 0 .5.224.5.5s-.224.5-.5.5h-15c-.276 0-.5-.224-.5-.5s.224-.5.5-.5z" fill-rule="nonzero" transform="matrix(.875 0 0 1 -.75 -4)"/><path d="m3 3.5c.552 0 1 .448 1 1s-.448 1-1 1-1-.448-1-1 .448-1 1-1z" fill-rule="nonzero" transform="translate(-1 -1.5)"/><path d="m12 8.5c0-.276-.224-.5-.5-.5s-.5.224-.5.5v6c0 .276.224.5.5.5s.5-.224.5-.5z"/><path d="m12 8.5c0-.276-.224-.5-.5-.5s-.5.224-.5.5v6c0 .276.224.5.5.5s.5-.224.5-.5z" transform="matrix(0 -1 1 0 0 23)"/></g></svg>