<svg clip-rule="evenodd" fill-rule="evenodd" stroke-linejoin="round" stroke-miterlimit="2" viewBox="0 0 24 24" xmlns="http://www.w3.org/2000/svg"><g fill="#1abc9c"><path d="m18.244 7.244-1.396 1.397 3.348 3.359-3.348 3.359 1.396 1.397 4.756-4.756z" fill-rule="nonzero"/><path d="m7.157 8.645-1.401-1.401-4.756 4.756 4.756 4.756 1.401-1.401-3.35-3.355z" fill-rule="nonzero"/><path d="m12 5c1.105 0 2 .895 2 2s-.895 2-2 2-2-.895-2-2 .895-2 2-2z"/><path d="m18 13h-4v1.807l1.929 4.822-1.857.743-1.749-4.372h-.646l-1.749 4.372-1.857-.743 1.929-4.822v-1.807h-4v-2h12z"/></g></svg>