<svg clip-rule="evenodd" fill-rule="evenodd" stroke-linejoin="round" stroke-miterlimit="2" viewBox="0 0 16 16" xmlns="http://www.w3.org/2000/svg"><path d="m4.432 13.028c.43 0 .764.097 1.002.291.24.193.361.444.361.753 0 .548-.279.892-.835 1.031v.014c.296.038.531.146.703.326.172.177.258.396.258.656 0 .392-.144.703-.431.932-.287.228-.684.342-1.19.342-.433 0-.786-.07-1.057-.211v-.805c.281.205.609.307.984.307.236 0 .42-.051.551-.152.133-.102.199-.243.199-.425 0-.187-.082-.332-.246-.434-.162-.101-.386-.152-.671-.152h-.389v-.709h.36c.547 0 .82-.181.82-.545 0-.341-.21-.512-.63-.512-.281 0-.554.09-.82.272v-.756c.295-.148.639-.223 1.031-.223zm12.068.972.09.008c.233.042.41.247.41.492s-.177.45-.41.492l-.09.008h-8l-.09-.008c-.233-.042-.41-.247-.41-.492s.177-.45.41-.492l.09-.008zm-12.018-5.971c.213 0 .403.028.571.084.17.055.313.134.431.238.117.103.206.229.266.378.063.146.094.31.094.492 0 .193-.03.365-.091.516-.058.15-.138.287-.237.41-.098.123-.211.236-.34.34l-.197.15-.204.145c-.094.067-.185.133-.273.2-.086.064-.162.129-.228.193-.067.063-.119.124-.159.185-.039.06-.058.118-.058.172h1.781v.768h-2.795v-.316c0-.215.036-.408.109-.578.072-.171.163-.325.272-.459.109-.137.229-.257.357-.361l.253-.196.12-.088c.123-.088.23-.172.322-.252.094-.08.172-.159.234-.237.065-.08.112-.16.144-.241.031-.082.047-.168.047-.26 0-.18-.051-.316-.153-.407-.101-.092-.257-.138-.466-.138-.361 0-.707.143-1.037.43v-.814c.366-.236.778-.354 1.237-.354zm12.018.971.09.008c.233.042.41.247.41.492s-.177.45-.41.492l-.09.008h-8l-.09-.008c-.233-.042-.41-.247-.41-.492s.177-.45.41-.492l.09-.008zm-11.463-5.995v4.295h-.922v-3.252c-.051.045-.112.088-.182.129-.068.039-.142.075-.22.108-.078.032-.159.059-.243.082-.084.022-.167.038-.249.047v-.779c.24-.07.467-.16.68-.27.213-.109.405-.229.577-.36zm11.463.995.09.008c.233.042.41.247.41.492s-.177.45-.41.492l-.09.008h-8l-.09-.008c-.233-.042-.41-.247-.41-.492s.177-.45.41-.492l.09-.008z" fill="#1abc9c" fill-rule="nonzero" transform="translate(-2 -2.00508)"/></svg>