<svg clip-rule="evenodd" fill-rule="evenodd" stroke-linejoin="round" stroke-miterlimit="2" viewBox="0 0 16 16" xmlns="http://www.w3.org/2000/svg"><g fill="#1abc9c"><path d="m8.67 6.001-3.17-.002c-.274 0-.5-.225-.5-.499s.226-.5.5-.5l3.17.002c1.287 0 2.338.718 2.33 2.004-.005.838-.482 1.215-1.154 1.622l1.059 1.588c.058.084.088.182.088.284 0 .274-.225.499-.499.499-.17 0-.328-.086-.42-.229l-1.21-1.815c-.067.006-.125.039-.194.039h-2.669v1.499.007c0 .274-.225.5-.499.5-.275 0-.5-.226-.5-.5v-.007-2.498h3.668c.738 0 1.326-.258 1.331-.995.004-.744-.586-.999-1.331-.999z"/><path d="m4 1c-1.657 0-3 1.343-3 3v8c0 1.657 1.343 3 3 3h8c1.657 0 3-1.343 3-3v-8c0-1.657-1.343-3-3-3zm-2 3c0-1.105.895-2 2-2h8c1.105 0 2 .895 2 2v8c0 1.105-.895 2-2 2h-8c-1.105 0-2-.895-2-2z" fill-rule="nonzero"/></g></svg>