<svg clip-rule="evenodd" fill-rule="evenodd" stroke-linejoin="round" stroke-miterlimit="2" viewBox="0 0 16 16" xmlns="http://www.w3.org/2000/svg"><g fill="#1abc9c"><path d="m31 21.224c0-.676-.485-1.224-1.083-1.224h-10.834c-.598 0-1.083.548-1.083 1.224s.485 1.224 1.083 1.224h10.834c.598 0 1.083-.548 1.083-1.224z" transform="matrix(-.461538 0 0 .408491 23.3077 5.83019)"/><path d="m31 21.224c0-.676-.485-1.224-1.083-1.224h-10.834c-.598 0-1.083.548-1.083 1.224s.485 1.224 1.083 1.224h10.834c.598 0 1.083-.548 1.083-1.224z" transform="matrix(-.461538 0 0 .408491 15.3077 5.83019)"/><path d="m31 21.224c0-.676-.91-1.224-2.031-1.224h-8.938c-1.121 0-2.031.548-2.031 1.224s.91 1.224 2.031 1.224h8.938c1.121 0 2.031-.548 2.031-1.224z" transform="matrix(0 .246154 .408491 0 -2.16981 7.36923)"/><path d="m31 21.224c0-.676-.91-1.224-2.031-1.224h-8.938c-1.121 0-2.031.548-2.031 1.224s.91 1.224 2.031 1.224h8.938c1.121 0 2.031-.548 2.031-1.224z" transform="matrix(0 .246154 .408491 0 .830189 7.36923)"/><path d="m7 12.917c-2.836-.477-5-2.946-5-5.917 0-3.311 2.689-6 6-6s6 2.689 6 6c0 2.971-2.164 5.44-5 5.917v-.63c0-.227.153-.425.373-.483 2.093-.593 3.627-2.521 3.627-4.804 0-2.76-2.24-5-5-5s-5 2.24-5 5c0 2.283 1.533 4.21 3.624 4.808.219.058.371.255.371.48.005.288.005.629.005.629z"/></g></svg>