<svg clip-rule="evenodd" fill-rule="evenodd" stroke-linejoin="round" stroke-miterlimit="2" viewBox="0 0 16 16" xmlns="http://www.w3.org/2000/svg"><path d="m14 3c1.657 0 3 1.343 3 3v8c0 1.657-1.343 3-3 3h-8c-1.657 0-3-1.343-3-3v-8c0-1.657 1.343-3 3-3zm-3.65 8.145c-.17-.167-.43-.188-.622-.062l-.078.062-4.662 4.581c.248.145.529.239.829.266l.183.008h8c.308 0 .599-.069.859-.194l.153-.08zm3.65-7.145h-8c-1.105 0-2 .895-2 2v8c0 .373.102.722.279 1.02l4.67-4.588c.583-.573 1.519-.573 2.102 0l4.67 4.588c.177-.298.279-.647.279-1.02v-8c0-1.105-.895-2-2-2zm-1.5 2c.828 0 1.5.672 1.5 1.5s-.672 1.5-1.5 1.5-1.5-.672-1.5-1.5.672-1.5 1.5-1.5zm0 1c-.276 0-.5.224-.5.5s.224.5.5.5.5-.224.5-.5-.224-.5-.5-.5z" fill="#1abc9c" fill-rule="nonzero" transform="translate(-2 -2)"/></svg>