<svg clip-rule="evenodd" fill-rule="evenodd" stroke-linejoin="round" stroke-miterlimit="2" viewBox="0 0 16 16" xmlns="http://www.w3.org/2000/svg"><path d="m107.332 101.255-5.59-15.667c-.5-1.4-1.9-2.2-3.3-2-1.5.2-2.5 1.5-2.5 3 0 1.701.732 4.433-.152 6.289-4.57 9.602-20.577 17.655-28.79 18.912v-44.693h6.2c1.7 0 3-1.3 3-3s-1.3-3-3-3h-6.2v-11.596c4.1-1.3 7-5.1 7-9.5 0-5.5-4.5-10-10-10s-10 4.5-10 10c0 4.5 2.9 8.3 7 9.5v11.596h-6.2c-1.7 0-3 1.3-3 3s1.3 3 3 3h6.2v44.693c-8.213-1.257-24.119-10.226-28.69-19.828-.883-1.856-.252-3.672-.252-5.373 0-1.5-1.1-2.7-2.5-3-1.4-.2-2.9.6-3.3 2l-5.489 16.672c-.5 1.6.3 3.3 1.9 3.8 1.1.4 4.889-8.072 5.689-8.772 3.7 8.7 23.242 21.197 32.742 22.297v.2c0 1.7 1.3 3 3 3s3-1.3 3-3v-.3c9.5-1.1 29.042-13.597 32.742-22.297.8.7 4.59 8.167 5.69 7.767 1.5-.4 2.3-2.1 1.8-3.7zm-43.332-65.255c2.2 0 4 1.8 4 4s-1.8 4-4 4-4-1.8-4-4 1.8-4 4-4z" fill="#1abc9c" fill-rule="nonzero" transform="matrix(.173283 0 0 .161391 -3.59885 -4.84173)"/></svg>