<?xml version="1.0" encoding="UTF-8" standalone="no"?>
<!DOCTYPE svg PUBLIC "-//W3C//DTD SVG 1.1//EN" "http://www.w3.org/Graphics/SVG/1.1/DTD/svg11.dtd">
<svg width="100%" height="100%" viewBox="0 0 16 16" version="1.1" xmlns="http://www.w3.org/2000/svg" xmlns:xlink="http://www.w3.org/1999/xlink" xml:space="preserve" xmlns:serif="http://www.serif.com/" style="fill-rule:evenodd;clip-rule:evenodd;stroke-linejoin:round;stroke-miterlimit:2;">
    <g transform="matrix(1,0,0,1,-2,-2.00508)">
        <path d="M4.432,13.028C4.862,13.028 5.196,13.125 5.434,13.319C5.674,13.512 5.795,13.763 5.795,14.072C5.795,14.62 5.516,14.964 4.96,15.103L4.96,15.117C5.256,15.155 5.491,15.263 5.663,15.443C5.835,15.62 5.921,15.839 5.921,16.099C5.921,16.491 5.777,16.802 5.49,17.031C5.203,17.259 4.806,17.373 4.3,17.373C3.867,17.373 3.514,17.303 3.243,17.162L3.243,16.357C3.524,16.562 3.852,16.664 4.227,16.664C4.463,16.664 4.647,16.613 4.778,16.512C4.911,16.41 4.977,16.269 4.977,16.087C4.977,15.9 4.895,15.755 4.731,15.653C4.569,15.552 4.345,15.501 4.06,15.501L3.671,15.501L3.671,14.792L4.031,14.792C4.578,14.792 4.851,14.611 4.851,14.247C4.851,13.906 4.641,13.735 4.221,13.735C3.94,13.735 3.667,13.825 3.401,14.007L3.401,13.251C3.696,13.103 4.04,13.028 4.432,13.028ZM16.5,14L16.59,14.008C16.823,14.05 17,14.255 17,14.5C17,14.745 16.823,14.95 16.59,14.992L16.5,15L8.5,15L8.41,14.992C8.177,14.95 8,14.745 8,14.5C8,14.255 8.177,14.05 8.41,14.008L8.5,14L16.5,14ZM4.482,8.029C4.695,8.029 4.885,8.057 5.053,8.113C5.223,8.168 5.366,8.247 5.484,8.351C5.601,8.454 5.69,8.58 5.75,8.729C5.813,8.875 5.844,9.039 5.844,9.221C5.844,9.414 5.814,9.586 5.753,9.737C5.695,9.887 5.615,10.024 5.516,10.147C5.418,10.27 5.305,10.383 5.176,10.487L4.979,10.637L4.775,10.782C4.681,10.849 4.59,10.915 4.502,10.982C4.416,11.046 4.34,11.111 4.274,11.175C4.207,11.238 4.155,11.299 4.115,11.36C4.076,11.42 4.057,11.478 4.057,11.532L5.838,11.532L5.838,12.3L3.043,12.3L3.043,11.984C3.043,11.769 3.079,11.576 3.152,11.406C3.224,11.235 3.315,11.081 3.424,10.947C3.533,10.81 3.653,10.69 3.781,10.586L4.034,10.39L4.154,10.302C4.277,10.214 4.384,10.13 4.476,10.05C4.57,9.97 4.648,9.891 4.71,9.813C4.775,9.733 4.822,9.653 4.854,9.572C4.885,9.49 4.901,9.404 4.901,9.312C4.901,9.132 4.85,8.996 4.748,8.905C4.647,8.813 4.491,8.767 4.282,8.767C3.921,8.767 3.575,8.91 3.245,9.197L3.245,8.383C3.611,8.147 4.023,8.029 4.482,8.029ZM16.5,9L16.59,9.008C16.823,9.05 17,9.255 17,9.5C17,9.745 16.823,9.95 16.59,9.992L16.5,10L8.5,10L8.41,9.992C8.177,9.95 8,9.745 8,9.5C8,9.255 8.177,9.05 8.41,9.008L8.5,9L16.5,9ZM5.037,3.005L5.037,7.3L4.115,7.3L4.115,4.048C4.064,4.093 4.003,4.136 3.933,4.177C3.865,4.216 3.791,4.252 3.713,4.285C3.635,4.317 3.554,4.344 3.47,4.367C3.386,4.389 3.303,4.405 3.221,4.414L3.221,3.635C3.461,3.565 3.688,3.475 3.901,3.365C4.114,3.256 4.306,3.136 4.478,3.005L5.037,3.005ZM16.5,4L16.59,4.008C16.823,4.05 17,4.255 17,4.5C17,4.745 16.823,4.95 16.59,4.992L16.5,5L8.5,5L8.41,4.992C8.177,4.95 8,4.745 8,4.5C8,4.255 8.177,4.05 8.41,4.008L8.5,4L16.5,4Z" style="fill:rgb(26,188,156);fill-rule:nonzero;"/>
    </g>
</svg>
