<?xml version="1.0" encoding="UTF-8" standalone="no"?>
<!DOCTYPE svg PUBLIC "-//W3C//DTD SVG 1.1//EN" "http://www.w3.org/Graphics/SVG/1.1/DTD/svg11.dtd">
<svg width="100%" height="100%" viewBox="0 0 16 16" version="1.1" xmlns="http://www.w3.org/2000/svg" xmlns:xlink="http://www.w3.org/1999/xlink" xml:space="preserve" xmlns:serif="http://www.serif.com/" style="fill-rule:evenodd;clip-rule:evenodd;stroke-linejoin:round;stroke-miterlimit:2;">
    <g transform="matrix(-0.461538,-9.26335e-17,-3.05241e-17,0.408491,23.3077,5.83019)">
        <path d="M31,21.224C31,20.548 30.515,20 29.917,20L19.083,20C18.485,20 18,20.548 18,21.224C18,21.9 18.485,22.448 19.083,22.448L29.917,22.448C30.515,22.448 31,21.9 31,21.224Z" style="fill:rgb(0,189,156);"/>
    </g>
    <g transform="matrix(-0.461538,-9.26335e-17,-3.05241e-17,0.408491,15.3077,5.83019)">
        <path d="M31,21.224C31,20.548 30.515,20 29.917,20L19.083,20C18.485,20 18,20.548 18,21.224C18,21.9 18.485,22.448 19.083,22.448L29.917,22.448C30.515,22.448 31,21.9 31,21.224Z" style="fill:rgb(0,189,156);"/>
    </g>
    <g transform="matrix(-1.69195e-16,0.246154,0.408491,-1.21973e-16,-2.16981,7.36923)">
        <path d="M31,21.224C31,20.548 30.09,20 28.969,20L20.031,20C18.91,20 18,20.548 18,21.224C18,21.9 18.91,22.448 20.031,22.448L28.969,22.448C30.09,22.448 31,21.9 31,21.224Z" style="fill:rgb(0,189,156);"/>
    </g>
    <g transform="matrix(-1.69195e-16,0.246154,0.408491,-1.21973e-16,0.830189,7.36923)">
        <path d="M31,21.224C31,20.548 30.09,20 28.969,20L20.031,20C18.91,20 18,20.548 18,21.224C18,21.9 18.91,22.448 20.031,22.448L28.969,22.448C30.09,22.448 31,21.9 31,21.224Z" style="fill:rgb(0,189,156);"/>
    </g>
    <path d="M7,12.917C4.164,12.44 2,9.971 2,7C2,3.689 4.689,1 8,1C11.311,1 14,3.689 14,7C14,9.971 11.836,12.44 9,12.917L9,12.287C9,12.06 9.153,11.862 9.373,11.804C11.466,11.211 13,9.283 13,7C13,4.24 10.76,2 8,2C5.24,2 3,4.24 3,7C3,9.283 4.533,11.21 6.624,11.808C6.843,11.866 6.995,12.063 6.995,12.288C7,12.576 7,12.917 7,12.917Z" style="fill:rgb(0,189,156);"/>
</svg>
