<svg clip-rule="evenodd" fill-rule="evenodd" stroke-linejoin="round" stroke-miterlimit="2" viewBox="0 0 16 16" xmlns="http://www.w3.org/2000/svg"><path d="m8 6c.276 0 .5.224.5.5 0 .245-.177.45-.41.492l-.09.008h-2c-1.657 0-3 1.343-3 3 0 1.591 1.238 2.892 2.803 2.994l.197.006h2c.276 0 .5.224.5.5 0 .245-.177.45-.41.492l-.09.008h-2c-2.209 0-4-1.791-4-4 0-2.136 1.673-3.88 3.781-3.994l.219-.006zm6 0c2.209 0 4 1.791 4 4 0 2.136-1.673 3.88-3.781 3.994l-.219.006h-2c-.276 0-.5-.224-.5-.5 0-.245.177-.45.41-.492l.09-.008h2c1.657 0 3-1.343 3-3 0-1.591-1.238-2.892-2.803-2.994l-.197-.006h-2c-.276 0-.5-.224-.5-.5 0-.245.177-.45.41-.492l.09-.008zm-8 3.5h8c.276 0 .5.224.5.5 0 .245-.177.45-.41.492l-.09.008h-8c-.276 0-.5-.224-.5-.5 0-.245.177-.45.41-.492l.09-.008h8z" fill="#1abc9c" fill-rule="nonzero" transform="translate(-2 -2)"/></svg>