<?xml version="1.0" encoding="UTF-8" standalone="no"?>
<!DOCTYPE svg PUBLIC "-//W3C//DTD SVG 1.1//EN" "http://www.w3.org/Graphics/SVG/1.1/DTD/svg11.dtd">
<svg width="100%" height="100%" viewBox="0 0 16 16" version="1.1" xmlns="http://www.w3.org/2000/svg" xmlns:xlink="http://www.w3.org/1999/xlink" xml:space="preserve" xmlns:serif="http://www.serif.com/" style="fill-rule:evenodd;clip-rule:evenodd;stroke-linejoin:round;stroke-miterlimit:2;">
    <g id="inspect" transform="matrix(1,0,0,1,-1.99999,-2.00001)">
        <path d="M12.033,3.321C12.133,3.063 12.422,2.934 12.68,3.033C12.909,3.121 13.036,3.36 12.991,3.593L12.967,3.68L7.967,16.68C7.868,16.937 7.578,17.066 7.321,16.967C7.091,16.879 6.964,16.64 7.009,16.407L7.033,16.32L12.033,3.321ZM14.88,6.675L17.88,10.175C18.04,10.362 18.04,10.638 17.88,10.825L14.88,14.325C14.7,14.535 14.384,14.559 14.175,14.38C13.965,14.2 13.941,13.884 14.12,13.675L16.842,10.5L14.12,7.325C13.941,7.116 13.965,6.8 14.175,6.62C14.384,6.441 14.7,6.465 14.88,6.675ZM5.825,6.12C6.035,6.3 6.059,6.616 5.88,6.825L3.159,10L5.88,13.175C6.059,13.384 6.035,13.7 5.825,13.88C5.616,14.059 5.3,14.035 5.12,13.825L2.12,10.325C1.96,10.138 1.96,9.862 2.12,9.675L5.12,6.175C5.3,5.965 5.616,5.941 5.825,6.12Z" style="fill:rgb(0,189,156);fill-rule:nonzero;"/>
    </g>
</svg>
