<svg clip-rule="evenodd" fill-rule="evenodd" stroke-linejoin="round" stroke-miterlimit="2" viewBox="0 0 16 16" xmlns="http://www.w3.org/2000/svg"><path d="m12.033 3.321c.1-.258.389-.387.647-.288.229.088.356.327.311.56l-.024.087-5 13c-.099.257-.389.386-.646.287-.23-.088-.357-.327-.312-.56l.024-.087zm2.847 3.354 3 3.5c.16.187.16.463 0 .65l-3 3.5c-.18.21-.496.234-.705.055-.21-.18-.234-.496-.055-.705l2.722-3.175-2.722-3.175c-.179-.209-.155-.525.055-.705.209-.179.525-.155.705.055zm-9.055-.555c.21.18.234.496.055.705l-2.721 3.175 2.721 3.175c.179.209.155.525-.055.705-.209.179-.525.155-.705-.055l-3-3.5c-.16-.187-.16-.463 0-.65l3-3.5c.18-.21.496-.234.705-.055z" fill="#1abc9c" fill-rule="nonzero" transform="translate(-1.99999 -2.00001)"/></svg>