<svg clip-rule="evenodd" fill-rule="evenodd" stroke-linejoin="round" stroke-miterlimit="2" viewBox="0 0 16 16" xmlns="http://www.w3.org/2000/svg"><g fill="#1abc9c" fill-rule="nonzero" transform="translate(-2 -2)"><path d="m7.924 7.235c-.118-.189-.347-.277-.562-.216-.214.062-.362.258-.362.481v5c0 .276.224.5.5.5s.5-.224.5-.5v-3.257l1.576 2.522c.091.146.252.235.424.235s.333-.089.424-.235l1.576-2.522v3.257c0 .276.224.5.5.5s.5-.224.5-.5v-5c0-.223-.148-.419-.362-.481-.215-.061-.444.027-.562.216l-2.076 3.322z"/><path d="m6 3c-1.657 0-3 1.343-3 3v8c0 1.657 1.343 3 3 3h8c1.657 0 3-1.343 3-3v-8c0-1.657-1.343-3-3-3zm-2 3c0-1.105.895-2 2-2h8c1.105 0 2 .895 2 2v8c0 1.105-.895 2-2 2h-8c-1.105 0-2-.895-2-2z"/></g></svg>