<svg clip-rule="evenodd" fill-rule="evenodd" stroke-linecap="round" stroke-linejoin="round" viewBox="0 0 16 16" xmlns="http://www.w3.org/2000/svg"><path d="m45 17.388c0-1.513-.932-2.115-2.051-2.448 0 0-7.561.748-10.251 1.061-2.122.246-3.235-1.375-1.565-4.035 1.115-1.777 1.565-2.438 1.565-3.965 0-3.314-2.753-6-6.15-6-3.398 0-6.151 2.686-6.151 6 0 1.504.522 2.533 1.538 3.969 1.922 2.719.769 4.188-1.538 4.031-2.525-.171-10.251-1.061-10.251-1.061-1.346-.221-1.89.904-2.05 2.385 0 0-.417 1.713-1.069 10.383-.052.199-.005.422.012.512.353 1.812 2.23.688 4.169-.688 1.248-.886 2.556-1.532 4.1-1.532 3.398 0 6.151 2.686 6.151 6s-2.753 6-6.151 6c-1.633 0-2.764-.508-4.209-1.645-1.446-1.137-3.42-2.387-3.997-.98-.102.25-.128.75-.076 1.072.599 6.24.836 6.537 1.069 7.553s.918 2 2.05 2h32.035c1.827 0 2.82-1.094 2.82-2.75z" fill="none" stroke="#1e92a4" stroke-width="3.14" transform="matrix(.295461 0 0 .295461 .204243 .908782)"/></svg>