<svg clip-rule="evenodd" fill-rule="evenodd" stroke-linejoin="round" stroke-miterlimit="2" viewBox="0 0 16 16" xmlns="http://www.w3.org/2000/svg"><path d="m10 2c4.418 0 8 3.582 8 8s-3.582 8-8 8-8-3.582-8-8 3.582-8 8-8zm0 1c-3.866 0-7 3.134-7 7s3.134 7 7 7 7-3.134 7-7-3.134-7-7-7zm-2.191 4.114.07.058 2.121 2.121 2.121-2.121c.174-.174.443-.193.638-.058l.069.058c.174.173.193.443.058.637l-.058.07-2.121 2.121 2.121 2.121c.174.174.193.443.058.638l-.058.069c-.173.174-.443.193-.637.058l-.07-.058-2.121-2.121-2.121 2.121c-.174.174-.443.193-.638.058l-.069-.058c-.174-.173-.193-.443-.058-.637l.058-.07 2.121-2.121-2.121-2.121c-.174-.174-.193-.443-.058-.638l.058-.069c.173-.174.443-.193.637-.058z" fill="#1abc9c" fill-rule="nonzero" transform="translate(-2 -2)"/></svg>