<?xml version="1.0" encoding="UTF-8" standalone="no"?>
<!DOCTYPE svg PUBLIC "-//W3C//DTD SVG 1.1//EN" "http://www.w3.org/Graphics/SVG/1.1/DTD/svg11.dtd">
<svg width="100%" height="100%" viewBox="0 0 16 16" version="1.1" xmlns="http://www.w3.org/2000/svg" xmlns:xlink="http://www.w3.org/1999/xlink" xml:space="preserve" xmlns:serif="http://www.serif.com/" style="fill-rule:evenodd;clip-rule:evenodd;stroke-linejoin:round;stroke-miterlimit:2;">
    <g id="stop" transform="matrix(1,0,0,1,-2,-2)">
        <path d="M10,2C14.418,2 18,5.582 18,10C18,14.418 14.418,18 10,18C5.582,18 2,14.418 2,10C2,5.582 5.582,2 10,2ZM10,3C6.134,3 3,6.134 3,10C3,13.866 6.134,17 10,17C13.866,17 17,13.866 17,10C17,6.134 13.866,3 10,3ZM7.809,7.114L7.879,7.172L10,9.293L12.121,7.172C12.295,6.998 12.564,6.979 12.759,7.114L12.828,7.172C13.002,7.345 13.021,7.615 12.886,7.809L12.828,7.879L10.707,10L12.828,12.121C13.002,12.295 13.021,12.564 12.886,12.759L12.828,12.828C12.655,13.002 12.385,13.021 12.191,12.886L12.121,12.828L10,10.707L7.879,12.828C7.705,13.002 7.436,13.021 7.241,12.886L7.172,12.828C6.998,12.655 6.979,12.385 7.114,12.191L7.172,12.121L9.293,10L7.172,7.879C6.998,7.705 6.979,7.436 7.114,7.241L7.172,7.172C7.345,6.998 7.615,6.979 7.809,7.114Z" style="fill:rgb(26,188,156);fill-rule:nonzero;"/>
    </g>
</svg>
