<svg clip-rule="evenodd" fill-rule="evenodd" stroke-linejoin="round" stroke-miterlimit="2" viewBox="0 0 16 16" xmlns="http://www.w3.org/2000/svg"><g fill="#1abc9c" fill-rule="nonzero"><path d="m1.332 9.14c.258-.064.52.094.583.353.071.286.163.571.277.854 1.296 3.207 4.947 4.757 8.155 3.461 1.529-.618 2.682-1.771 3.329-3.157l.115-.262c.009-.023.02-.044.032-.064l-1.965.793c-.246.1-.527-.019-.627-.266s.02-.527.266-.627l2.681-1.083c.247-.1.528.019.627.266l1.083 2.681c.1.246-.019.527-.266.627s-.527-.02-.627-.266l-.509-1.26c-.757 1.54-2.062 2.818-3.778 3.512-3.702 1.495-7.914-.293-9.41-3.994-.131-.325-.237-.654-.318-.985-.064-.258.094-.519.352-.583z"/><path d="m.378 3.284c.247-.1.527.02.627.266l.509 1.26c.757-1.54 2.062-2.818 3.778-3.512 3.702-1.495 7.914.293 9.41 3.994.131.325.237.654.318.985.064.258-.094.519-.352.583s-.52-.094-.583-.353c-.071-.286-.163-.571-.277-.854-1.296-3.207-4.947-4.757-8.155-3.461-1.529.618-2.681 1.771-3.329 3.157l-.115.262c-.009.023-.02.044-.032.064l1.965-.793c.246-.1.527.019.627.266s-.02.527-.266.627l-2.681 1.083c-.247.1-.528-.019-.627-.266l-1.083-2.681c-.1-.246.019-.527.266-.627z"/></g></svg>