<svg clip-rule="evenodd" fill-rule="evenodd" stroke-linejoin="round" stroke-miterlimit="2" viewBox="0 0 16 16" xmlns="http://www.w3.org/2000/svg"><path d="m10.201 11.026-.001.001c-.348.281-.728.52-1.133.712l-.061.029c-.404.186-.831.325-1.274.412l-.065.013c-.434.08-.882.111-1.337.086l-.067-.004c-.205-.014-.411-.038-.617-.075-.239-.042-.472-.098-.698-.168l-.064-.02c-.433-.14-.841-.329-1.217-.559l-.057-.035c-.382-.24-.731-.523-1.042-.841l-.046-.049c-.309-.324-.579-.683-.804-1.07l-.103-.187-.314.944c-.077.234-.33.36-.564.283-.215-.072-.339-.29-.299-.506l.016-.059.751-2.261c.072-.215.29-.339.506-.298l.059.015 2.261.752c.234.077.361.33.283.564-.071.215-.29.339-.506.299l-.059-.016-1.123-.372.13.239c.177.305.39.589.634.845l.037.038c.245.251.52.474.821.664l.045.027c.297.182.618.33.959.44l.051.016c.178.055.362.1.551.133l.541.063c.359.019.712-.005 1.053-.068l.052-.01c.349-.069.686-.179 1.004-.325l.048-.023c.32-.151.62-.34.895-.562l.041-.033c.271-.224.516-.48.729-.764l.031-.042c.206-.281.38-.589.516-.919l.094-.247c.108-.313.45-.479.763-.371s.479.45.371.763l-.119.314c-.173.42-.395.811-.657 1.169l-.04.054c-.047.063-.096.126-.147.187l3.8 3.8c.228.228.228.597 0 .825-.207.207-.531.226-.759.057l-.066-.057zm.705-5.763-.194-.497c-.149-.32-.336-.622-.555-.898l-.033-.041c-.222-.273-.477-.52-.759-.735l-.042-.032c-.28-.208-.586-.386-.915-.525l-.049-.021c-.294-.121-.606-.212-.932-.27l-.138-.022c-.357-.052-.711-.06-1.056-.028l-.052.005c-.355.037-.7.116-1.029.233l-.05.018c-.332.123-.648.284-.941.48l-.044.029c-.291.199-.558.433-.795.695l-.036.04c-.231.262-.432.553-.598.868l-.024.046c-.158.309-.281.64-.364.99l-.054.259c-.057.326-.369.544-.695.487-.326-.058-.544-.369-.486-.695l.068-.328c.105-.445.262-.866.462-1.258l.031-.06c.21-.4.467-.77.76-1.103l.045-.05c.301-.333.639-.628 1.008-.881l.056-.037c.37-.248.771-.452 1.192-.608l.063-.022c.418-.149.856-.249 1.306-.296l.067-.007c.437-.04.886-.03 1.338.035l.174.028c.414.073.808.189 1.181.342l.062.026c.417.178.806.403 1.161.667l.054.04c.358.273.68.586.961.932l.042.052c.259.325.481.678.663 1.052l.199-.599c.078-.234.331-.361.565-.283.215.071.339.29.298.506l-.015.059-.752 2.26c-.071.215-.289.339-.506.299l-.058-.016-2.261-.751c-.234-.078-.361-.331-.283-.565.071-.215.29-.339.506-.298l.059.015z" fill="#1dbc9c" fill-rule="nonzero"/></svg>