<svg clip-rule="evenodd" fill-rule="evenodd" stroke-linejoin="round" stroke-miterlimit="2" viewBox="0 0 16 16" xmlns="http://www.w3.org/2000/svg"><g fill="#1dbc9c" fill-rule="nonzero"><path d="m1.568 10.766-.246 1.346c-.058.317-.362.526-.679.468-.29-.053-.491-.313-.477-.6l.009-.079.56-3.06c.053-.29.313-.491.6-.478l.079.01 3.06.56c.317.058.527.362.469.679-.053.29-.313.491-.6.478l-.079-.009-1.825-.334c.543 1.726 1.861 3.111 3.569 3.733v.009c.218.079.443.146.675.199.313.073.509.387.436.7-.073.314-.386.51-.7.437-2.256-.524-4.002-2.083-4.851-4.059z"/><path d="m5.234 1.568-1.346-.246c-.317-.058-.526-.362-.468-.679.053-.29.313-.491.6-.477l.079.009 3.06.56c.29.053.491.313.478.6l-.01.079-.56 3.06c-.058.317-.362.527-.679.469-.29-.053-.491-.313-.478-.6l.009-.079.334-1.825c-1.771.557-3.184 1.931-3.78 3.704h-.009c-.059.175-.11.355-.152.54-.073.313-.387.509-.7.436-.314-.073-.51-.386-.437-.7.524-2.256 2.083-4.001 4.059-4.851z"/><path d="m13.536 9.857c.059-.176.11-.356.152-.54.073-.313.387-.509.7-.436.314.073.51.386.437.7-.524 2.256-2.083 4.001-4.059 4.851l1.346.246c.317.058.526.362.468.679-.053.29-.313.491-.6.477l-.079-.009-3.06-.56c-.29-.053-.491-.313-.478-.6l.01-.079.56-3.06c.058-.317.362-.527.679-.469.29.053.491.313.478.6l-.009.079-.334 1.825c1.771-.557 3.184-1.931 3.78-3.704z"/><path d="m9.853 2.463c-.174-.058-.353-.109-.536-.151-.313-.073-.509-.387-.436-.7.073-.314.386-.51.7-.437 2.256.524 4.002 2.083 4.851 4.059l.246-1.346c.058-.317.362-.526.679-.468.29.053.491.313.477.6l-.009.079-.56 3.06c-.053.29-.313.491-.6.478l-.079-.01-3.06-.56c-.317-.058-.527-.362-.469-.679.053-.29.313-.491.6-.478l.079.009 1.825.334c-.558-1.772-1.933-3.185-3.708-3.781z"/></g></svg>