<svg clip-rule="evenodd" fill-rule="evenodd" stroke-linejoin="round" stroke-miterlimit="2" viewBox="0 0 16 16" xmlns="http://www.w3.org/2000/svg"><g fill="#1dbc9c" fill-rule="nonzero"><path d="m9.021 2.257c-3.036-.543-5.998 1.385-6.703 4.424-.073.314-.387.509-.7.436-.314-.073-.51-.386-.437-.7.851-3.664 4.435-5.982 8.097-5.3.227.041.615.132.902.225 1.931.622 3.471 2.069 4.256 3.901l.248-1.356c.058-.317.362-.527.679-.469.29.053.491.313.477.6l-.009.079-.56 3.06c-.053.291-.313.491-.6.478l-.079-.009-3.06-.561c-.317-.058-.527-.362-.469-.678.053-.291.313-.492.6-.478l.079.009 1.825.333c-.611-1.942-2.204-3.453-4.229-3.929z" transform="translate(-.006057 .001582)"/><path d="m9.021 2.257c-3.036-.543-5.998 1.385-6.703 4.424-.073.314-.387.509-.7.436-.314-.073-.51-.386-.437-.7.851-3.664 4.435-5.982 8.097-5.3.227.041.621.134.902.225 1.931.622 3.471 2.069 4.256 3.901l.248-1.356c.058-.317.362-.527.679-.469.29.053.491.313.477.6l-.009.079-.56 3.06c-.053.291-.313.491-.6.478l-.079-.009-3.06-.561c-.317-.058-.527-.362-.469-.678.053-.291.313-.492.6-.478l.079.009 1.825.333c-.611-1.942-2.204-3.453-4.229-3.929z" transform="matrix(-1 0 0 -1 16.0061 15.9984)"/></g></svg>