<svg clip-rule="evenodd" fill-rule="evenodd" stroke-linejoin="round" stroke-miterlimit="2" viewBox="0 0 16 16" xmlns="http://www.w3.org/2000/svg"><path d="m6.5 2c-.274 0-.5-.226-.5-.5s.226-.5.5-.5h4c.274 0 .5.226.5.5s-.226.5-.5.5zm6 0c-.274 0-.5-.226-.5-.5s.226-.5.5-.5h2c.274 0 .5.226.5.5v2c0 .274-.226.5-.5.5s-.5-.226-.5-.5v-1.5zm-11.5-.5c0-.274.226-.5.5-.5h3c.274 0 .5.226.5.5s-.226.5-.5.5h-2.5v3.5c0 .274-.226.5-.5.5s-.5-.226-.5-.5zm13 4c0-.274.226-.5.5-.5s.5.226.5.5v4c0 .274-.226.5-.5.5s-.5-.226-.5-.5zm-3.5 9.5c-.274 0-.5-.226-.5-.5s.226-.5.5-.5h3.5v-2.5c0-.274.226-.5.5-.5s.5.226.5.5v3c0 .274-.226.5-.5.5zm.324-10.338h.014c.274 0 .5.226.5.5 0 .023-.002.045-.005.068v2.529.007c0 .275-.225.5-.5.5-.274 0-.5-.225-.5-.5v-.007-1.385l-2.235 2.235c.149.264.235.568.235.891v3.667c0 1.006-.826 1.833-1.833 1.833h-3.667c-1.006 0-1.833-.827-1.833-1.833v-3.667c0-1.007.827-1.833 1.833-1.833h3.667c.323 0 .627.086.891.235l2.235-2.235h-1.385-.007c-.275 0-.5-.226-.5-.5 0-.275.225-.5.5-.5h.007 2.529zm-7.991 4.005c-.466 0-.833.367-.833.833v3.667c0 .466.367.833.833.833h3.667c.466 0 .833-.367.833-.833v-3.667c0-.466-.367-.833-.833-.833z" fill="#1abc9c"/></svg>