<svg clip-rule="evenodd" fill-rule="evenodd" stroke-linejoin="round" stroke-miterlimit="2" viewBox="0 0 16 16" xmlns="http://www.w3.org/2000/svg"><path d="m5.51 3.318c-.388 0-.71.289-.76.664l-.007.104v2.894c0 .388.288.709.663.76l.104.007h2.894c.424 0 .767-.344.767-.767 0-.389-.288-.71-.663-.761l-.104-.007h-.979c2.913-2.341 7.182-2.16 9.885.543 2.897 2.897 2.897 7.593 0 10.49s-7.593 2.897-10.49 0c-1.763-1.763-2.501-4.252-2.038-6.656.08-.416-.192-.818-.608-.898-.417-.081-.819.192-.899.608-.558 2.898.333 5.904 2.46 8.031 3.496 3.496 9.164 3.496 12.66 0 3.497-3.496 3.497-9.164 0-12.66-3.32-3.321-8.6-3.488-12.118-.5v-1.084c0-.424-.343-.768-.767-.768z" fill="#1dbc9c" fill-rule="nonzero" transform="matrix(.781885 0 0 .781885 -1.43326 -1.38262)"/></svg>