<svg clip-rule="evenodd" fill-rule="evenodd" stroke-linejoin="round" stroke-miterlimit="2" viewBox="0 0 16 16" xmlns="http://www.w3.org/2000/svg"><path d="m8.003 1.029c-3.843 0-6.971 3.127-6.971 6.971s3.128 6.971 6.971 6.971h.008c.274 0 .5-.225.5-.499 0-.275-.226-.5-.5-.5h-.008c-3.304 0-5.971-2.668-5.971-5.972s2.667-5.972 5.971-5.972c1.989 0 3.745.969 4.831 2.459.005.008.006.018.002.026-.005.009-.013.014-.023.014h-1.137-.007c-.274 0-.5.225-.5.5 0 .274.226.499.5.499h.007 2.449c.274 0 .5-.225.5-.499v-2.449c.004-.274-.218-.503-.492-.507h-.008c-.274 0-.5.225-.5.499v.008 1.228c0 .011-.006.021-.017.024-.01.003-.021 0-.028-.009-1.272-1.695-3.298-2.792-5.577-2.792zm6.479 6.446h-.014c-.27 0-.493.237-.493.525s.223.525.493.525h.014c.27 0 .493-.237.493-.525s-.223-.525-.493-.525zm-.268 2.025h-.014c-.27 0-.493.226-.493.5s.223.5.493.5h.014c.271 0 .493-.226.493-.5s-.222-.5-.493-.5zm-1 1.8h-.014c-.27 0-.493.226-.493.5s.223.5.493.5h.014c.271 0 .493-.226.493-.5s-.222-.5-.493-.5zm-1.4 1.4h-.014c-.27 0-.493.226-.493.5s.223.5.493.5h.014c.271 0 .493-.226.493-.5s-.222-.5-.493-.5zm-1.8.9h-.014c-.27 0-.493.226-.493.5s.223.5.493.5h.014c.271 0 .493-.226.493-.5s-.222-.5-.493-.5z" fill="#1abc9c"/></svg>