<svg clip-rule="evenodd" fill-rule="evenodd" stroke-linejoin="round" stroke-miterlimit="2" viewBox="0 0 16 16" xmlns="http://www.w3.org/2000/svg"><path d="m8.004 1.029c3.844 0 6.971 3.127 6.971 6.971s-3.127 6.971-6.971 6.971h-.008c-.274 0-.499-.225-.499-.499 0-.275.225-.5.499-.5h.008c3.304 0 5.972-2.668 5.972-5.972s-2.668-5.972-5.972-5.972c-1.989 0-3.745.969-4.83 2.459-.006.008-.007.018-.002.026.004.009.012.014.022.014h1.137.007c.274 0 .5.225.5.5 0 .274-.226.499-.5.499h-.007-2.449c-.274 0-.5-.225-.5-.499v-2.449c-.004-.274.218-.503.492-.507h.008c.274 0 .5.225.5.499v.008 1.228c0 .011.007.021.017.024s.021 0 .028-.009c1.272-1.695 3.299-2.792 5.577-2.792zm-6.479 6.446h.014c.271 0 .493.237.493.525s-.222.525-.493.525h-.014c-.27 0-.493-.237-.493-.525s.223-.525.493-.525zm.268 2.025h.014c.27 0 .493.226.493.5s-.223.5-.493.5h-.014c-.27 0-.493-.226-.493-.5s.223-.5.493-.5zm1 1.8h.014c.27 0 .493.226.493.5s-.223.5-.493.5h-.014c-.27 0-.493-.226-.493-.5s.223-.5.493-.5zm1.4 1.4h.014c.27 0 .493.226.493.5s-.223.5-.493.5h-.014c-.27 0-.493-.226-.493-.5s.223-.5.493-.5zm1.8.9h.014c.27 0 .493.226.493.5s-.223.5-.493.5h-.014c-.27 0-.493-.226-.493-.5s.223-.5.493-.5z" fill="#1abc9c"/></svg>