<svg clip-rule="evenodd" fill-rule="evenodd" stroke-linejoin="round" stroke-miterlimit="2" viewBox="0 0 16 16" xmlns="http://www.w3.org/2000/svg"><g fill="#1abc9c" fill-rule="nonzero"><path d="m8.5 3c3.038 0 5.5 2.462 5.5 5.5 0 1.339-.478 2.566-1.273 3.52l4.127 4.126c.195.196.195.512 0 .708-.174.173-.443.192-.638.057l-.07-.057-4.126-4.127c-.954.795-2.181 1.273-3.52 1.273-3.038 0-5.5-2.462-5.5-5.5s2.462-5.5 5.5-5.5zm0 1c-2.485 0-4.5 2.015-4.5 4.5s2.015 4.5 4.5 4.5 4.5-2.015 4.5-4.5-2.015-4.5-4.5-4.5z" transform="translate(-2 -2)"/><path d="m12.82 5.58-.821.822-.823-.823c-2.099-2.099-5.502-2.099-7.602 0-2.099 2.099-2.099 5.502 0 7.601l7.896 7.896c.293.293.768.293 1.061 0l7.901-7.897c2.094-2.106 2.098-5.5-.001-7.599-2.103-2.103-5.508-2.103-7.611 0z" transform="matrix(.349934 0 0 .346964 2.30006 2.6113)"/></g></svg>