<svg clip-rule="evenodd" fill-rule="evenodd" stroke-linejoin="round" stroke-miterlimit="2" viewBox="0 0 16 16" xmlns="http://www.w3.org/2000/svg"><g fill="#1abc9c" fill-rule="nonzero"><path d="m6.5 12c0-.414.336-.75.75-.75h1.5c.414 0 .75.336.75.75s-.336.75-.75.75h-1.5c-.414 0-.75-.336-.75-.75z" transform="matrix(.666667 0 0 .666667 .666667 -.5)"/><path d="m10.5 12c0-.414.336-.75.75-.75h1.5c.414 0 .75.336.75.75s-.336.75-.75.75h-1.5c-.414 0-.75-.336-.75-.75z" transform="matrix(.680971 0 0 .666667 .849809 -.5)"/><path d="m14.5 12c0-.414.336-.75.75-.75h1.5c.414 0 .75.336.75.75s-.336.75-.75.75h-1.5c-.414 0-.75-.336-.75-.75z" transform="matrix(.673072 0 0 .666667 1.24045 -.5)"/><path d="m18.5 12c0-.414.336-.75.75-.75h1.5c.414 0 .75.336.75.75s-.336.75-.75.75h-1.5c-.414 0-.75-.336-.75-.75z" transform="matrix(.665174 0 0 .666667 1.69428 -.5)"/><path d="m19.49 22c.414 0 .672-.252.672-.667v-4c0-1.104-.912-2-2.016-2h-12.146c-1.104 0-2 .896-2 2v4c0 .415.336.667.75.667s.629-.252.629-.667v-4c0-.275.345-.666.621-.666h12.146c.276 0 .672.391.672.666v4c0 .415.258.667.672.667z" transform="matrix(.742479 0 0 .75 .030083 -1.5)"/><path d="m19.49 22c.414 0 .672-.252.672-.667v-4c0-1.104-.912-2-2.016-2h-12.146c-1.104 0-2 .896-2 2v4c0 .415.336.667.75.667s.629-.252.629-.667v-4c0-.275.345-.666.621-.666h12.146c.276 0 .672.391.672.666v4c0 .415.258.667.672.667z" transform="matrix(.742341 0 0 -.75 .030638 16.5)"/><path d="m9.053 8.585c.11-.219.359-.323.587-.256l.084.033 6.382 3.191c.096.048.175.127.223.223.11.22.043.482-.147.624l-.076.047-6.382 3.191c-.07.035-.146.053-.224.053-.245 0-.45-.177-.492-.41l-.008-.09v-6.382c0-.078.018-.154.053-.224z" transform="matrix(.541853 0 0 .541853 -4.87668 .997793)"/></g></svg>