<?xml version="1.0" encoding="UTF-8" standalone="no"?>
<!DOCTYPE svg PUBLIC "-//W3C//DTD SVG 1.1//EN" "http://www.w3.org/Graphics/SVG/1.1/DTD/svg11.dtd">
<svg width="100%" height="100%" viewBox="0 0 16 16" version="1.1" xmlns="http://www.w3.org/2000/svg" xmlns:xlink="http://www.w3.org/1999/xlink" xml:space="preserve" xmlns:serif="http://www.serif.com/" style="fill-rule:evenodd;clip-rule:evenodd;stroke-linejoin:round;stroke-miterlimit:2;">
    <g transform="matrix(0.666667,0,0,0.666667,0.666667,-0.5)">
        <path d="M6.5,12C6.5,11.586 6.836,11.25 7.25,11.25L8.75,11.25C9.164,11.25 9.5,11.586 9.5,12C9.5,12.414 9.164,12.75 8.75,12.75L7.25,12.75C6.836,12.75 6.5,12.414 6.5,12Z" style="fill:rgb(26,188,156);fill-rule:nonzero;"/>
    </g>
    <g transform="matrix(0.680971,0,0,0.666667,0.849809,-0.5)">
        <path d="M10.5,12C10.5,11.586 10.836,11.25 11.25,11.25L12.75,11.25C13.164,11.25 13.5,11.586 13.5,12C13.5,12.414 13.164,12.75 12.75,12.75L11.25,12.75C10.836,12.75 10.5,12.414 10.5,12Z" style="fill:rgb(26,188,156);fill-rule:nonzero;"/>
    </g>
    <g transform="matrix(0.673072,0,0,0.666667,1.24045,-0.5)">
        <path d="M14.5,12C14.5,11.586 14.836,11.25 15.25,11.25L16.75,11.25C17.164,11.25 17.5,11.586 17.5,12C17.5,12.414 17.164,12.75 16.75,12.75L15.25,12.75C14.836,12.75 14.5,12.414 14.5,12Z" style="fill:rgb(26,188,156);fill-rule:nonzero;"/>
    </g>
    <g transform="matrix(0.665174,0,0,0.666667,1.69428,-0.5)">
        <path d="M18.5,12C18.5,11.586 18.836,11.25 19.25,11.25L20.75,11.25C21.164,11.25 21.5,11.586 21.5,12C21.5,12.414 21.164,12.75 20.75,12.75L19.25,12.75C18.836,12.75 18.5,12.414 18.5,12Z" style="fill:rgb(26,188,156);fill-rule:nonzero;"/>
    </g>
    <g transform="matrix(0.742479,0,0,0.75,0.0300834,-1.5)">
        <path d="M19.49,22C19.904,22 20.162,21.748 20.162,21.333L20.162,17.333C20.162,16.229 19.25,15.333 18.146,15.333L6,15.333C4.896,15.333 4,16.229 4,17.333L4,21.333C4,21.748 4.336,22 4.75,22C5.164,22 5.379,21.748 5.379,21.333L5.379,17.333C5.379,17.058 5.724,16.667 6,16.667L18.146,16.667C18.422,16.667 18.818,17.058 18.818,17.333L18.818,21.333C18.818,21.748 19.076,22 19.49,22Z" style="fill:rgb(26,188,156);fill-rule:nonzero;"/>
    </g>
    <g transform="matrix(0.742341,-2.12555e-19,2.14247e-19,-0.75,0.0306376,16.5)">
        <path d="M19.49,22C19.904,22 20.162,21.748 20.162,21.333L20.162,17.333C20.162,16.229 19.25,15.333 18.146,15.333L6,15.333C4.896,15.333 4,16.229 4,17.333L4,21.333C4,21.748 4.336,22 4.75,22C5.164,22 5.379,21.748 5.379,21.333L5.379,17.333C5.379,17.058 5.724,16.667 6,16.667L18.146,16.667C18.422,16.667 18.818,17.058 18.818,17.333L18.818,21.333C18.818,21.748 19.076,22 19.49,22Z" style="fill:rgb(26,188,156);fill-rule:nonzero;"/>
    </g>
    <g id="triangle" transform="matrix(0.541853,0,0,0.541853,-4.87668,0.997793)">
        <path d="M9.053,8.585C9.163,8.366 9.412,8.262 9.64,8.329L9.724,8.362L16.106,11.553C16.202,11.601 16.281,11.68 16.329,11.776C16.439,11.996 16.372,12.258 16.182,12.4L16.106,12.447L9.724,15.638C9.654,15.673 9.578,15.691 9.5,15.691C9.255,15.691 9.05,15.514 9.008,15.281L9,15.191L9,8.809C9,8.731 9.018,8.655 9.053,8.585Z" style="fill:rgb(26,188,156);fill-rule:nonzero;"/>
    </g>
</svg>
