<svg clip-rule="evenodd" fill-rule="evenodd" stroke-linejoin="round" stroke-miterlimit="2" viewBox="0 0 16 16" xmlns="http://www.w3.org/2000/svg"><g fill="#1abc9c" fill-rule="nonzero"><path d="m12.88 4.675 3 3.5c.16.187.16.463 0 .65l-3 3.5c-.18.21-.496.234-.705.055-.21-.18-.234-.496-.055-.705l2.722-3.175-2.722-3.175c-.179-.209-.155-.525.055-.705.209-.179.525-.155.705.055z" transform="translate(-.000133 -.499867)"/><path d="m5.809 5.114.07.058 2.121 2.121 2.121-2.121c.174-.174.443-.193.638-.058l.069.058c.174.173.193.443.058.637l-.058.07-2.121 2.121 2.121 2.121c.174.174.193.443.058.638l-.058.069c-.173.174-.443.193-.637.058l-.07-.058-2.121-2.121-2.121 2.121c-.174.174-.443.193-.638.058l-.069-.058c-.174-.173-.193-.443-.058-.637l.058-.07 2.121-2.121-2.121-2.121c-.174-.174-.193-.443-.058-.638l.058-.069c.173-.174.443-.193.637-.058z"/><path d="m3.825 4.12c.21.18.234.496.055.705l-2.721 3.175 2.721 3.175c.179.209.155.525-.055.705-.209.179-.525.155-.705-.055l-3-3.5c-.16-.187-.16-.463 0-.65l3-3.5c.18-.21.496-.234.705-.055z"/></g></svg>