<svg clip-rule="evenodd" fill-rule="evenodd" stroke-linejoin="round" stroke-miterlimit="2" viewBox="0 0 24 24" xmlns="http://www.w3.org/2000/svg"><path d="m0 0h24v24h-24z" fill="none"/><path d="m3.809 3.114.07.058 6.121 6.121 6.121-6.121c.174-.174.443-.193.638-.058l.069.058c.174.173.193.443.058.637l-.058.07-6.121 6.121 6.121 6.121c.174.174.193.443.058.638l-.058.069c-.173.174-.443.193-.637.058l-.07-.058-6.121-6.121-6.121 6.121c-.174.174-.443.193-.638.058l-.069-.058c-.174-.173-.193-.443-.058-.637l.058-.07 6.121-6.121-6.121-6.121c-.174-.174-.193-.443-.058-.638l.058-.069c.173-.174.443-.193.637-.058z" fill="#878787" fill-rule="nonzero" transform="matrix(1.00363 0 0 1.00363 1.96369 1.96369)"/></svg>