<svg clip-rule="evenodd" fill-rule="evenodd" stroke-linejoin="round" stroke-miterlimit="2" viewBox="0 0 16 16" xmlns="http://www.w3.org/2000/svg"><path d="m6.5 1c3.038 0 5.5 2.462 5.5 5.5 0 1.25-.417 2.402-1.119 3.325l-.154.195 4.127 4.126c.195.196.195.512 0 .708-.152.151-.378.185-.562.101l-.076-.044-.07-.057-4.126-4.127c-.954.795-2.181 1.273-3.52 1.273-3.038 0-5.5-2.462-5.5-5.5s2.462-5.5 5.5-5.5zm0 1c-2.485 0-4.5 2.015-4.5 4.5s2.015 4.5 4.5 4.5 4.5-2.015 4.5-4.5-2.015-4.5-4.5-4.5zm-.5 5h-2c-.276 0-.5-.224-.5-.5s.224-.5.5-.5h2v-2c0-.276.224-.5.5-.5s.5.224.5.5v2h2c.276 0 .5.224.5.5s-.224.5-.5.5h-2v2c0 .276-.224.5-.5.5s-.5-.224-.5-.5z" fill="#1abc9c"/></svg>