<svg clip-rule="evenodd" fill-rule="evenodd" stroke-linejoin="round" stroke-miterlimit="2" viewBox="0 0 16 16" xmlns="http://www.w3.org/2000/svg"><path d="m6.5 1c3.038 0 5.5 2.462 5.5 5.5 0 1.25-.417 2.402-1.119 3.325l-.154.195 4.127 4.126c.195.196.195.512 0 .708-.152.151-.378.185-.562.101l-.076-.044-.07-.057-4.126-4.127c-.954.795-2.181 1.273-3.52 1.273-3.038 0-5.5-2.462-5.5-5.5s2.462-5.5 5.5-5.5zm0 1c-2.485 0-4.5 2.015-4.5 4.5s2.015 4.5 4.5 4.5 4.5-2.015 4.5-4.5-2.015-4.5-4.5-4.5zm-2.5 6.583v-4.166c0-.11.051-.209.133-.284.075-.082.174-.133.284-.133h4.166c.11 0 .209.051.284.133.082.075.133.174.133.284v4.083.083c0 .11-.051.209-.133.284-.075.082-.174.133-.284.133h-.083-4-.083c-.11 0-.209-.051-.284-.133-.082-.075-.133-.174-.133-.284zm4-3.583h-3v3h3z" fill="#1abc9c"/></svg>