<svg clip-rule="evenodd" fill-rule="evenodd" stroke-linejoin="round" stroke-miterlimit="2" viewBox="0 0 48 48" xmlns="http://www.w3.org/2000/svg"><g fill-rule="nonzero"><path d="m7.275-9.943c-1.208 0-2.415.464-3.356 1.151l.955 1.601c.743-.464 1.571-.759 2.246-.759.717 0 1.195.309 1.195.871 0 1.447-4.241 2.936-4.241 5.591v1.487h6.697v-2.021h-4.297c0-1.32 4.143-2.514 4.143-5.141 0-1.741-1.277-2.78-3.342-2.78z" fill="#ff7100" transform="matrix(1.81671 0 0 1.96145 25.432 45.0017)"/><path d="m18.563 0-.532.656-1.906 2.344h-3.125v6h3.125l1.906 2.344.532.656.75-.437 4.593-2.813-1.031-1.719-3.844 2.375-2.031-2.531v-1.75l2.031-2.531 3.844 2.375 1.031-1.719-4.593-2.812zm-14.563 2c-2.199 0-4 1.801-4 4s1.801 4 4 4 4-1.801 4-4-1.801-4-4-4zm0 2c1.102 0 2 .898 2 2s-.898 2-2 2-2-.898-2-2 .898-2 2-2zm4.813 0c.699 1.602.398 3.102 0 4h3.187v-4zm-4.813.906c-.609 0-1.094.485-1.094 1.094s.485 1.094 1.094 1.094 1.094-.485 1.094-1.094-.485-1.094-1.094-1.094zm6.991 16.881s-3.601-11.595-3.864-11.384c-1.324 1.062-3.457 1.396-5.278.321-.293-.173 3.28 11.063 3.28 11.063h-4.267v2.213h14.584v-2.213z" fill="#1abc9c" transform="matrix(1.75686 0 0 1.75686 3 2.83529)"/></g></svg>