<svg clip-rule="evenodd" fill-rule="evenodd" stroke-linejoin="round" stroke-miterlimit="2" viewBox="0 0 48 48" xmlns="http://www.w3.org/2000/svg"><g fill="#1abc9c"><path d="m38.156 6.349c3.863 0 7.027 3.164 7.027 7.027 0 3.864-3.164 7.028-7.027 7.028-3.864 0-7.028-3.164-7.028-7.028 0-3.863 3.164-7.027 7.028-7.027zm0 3.514c-1.936 0-3.514 1.577-3.514 3.513 0 1.937 1.578 3.514 3.514 3.514s3.513-1.577 3.513-3.514c0-1.936-1.577-3.513-3.513-3.513z" fill-rule="nonzero" transform="matrix(.85264 .522499 -.522499 .85264 10.0729 -6.01346)"/><path d="m26.274 23.724-9.7-5.944-6.881 2.673-1.399.495-.722-1.343-4.298-8.43 3.122-1.629 3.578 7.086 5.366-1.927 1.606-2.621-.719-5.656-7.938.029.034-3.521 9.461.004 1.526.032.194 1.471.804 7.383 9.638 5.906c-.954.687-1.781 1.574-2.429 2.632-.649 1.059-1.064 2.198-1.243 3.36z"/><path d="m28.858 31.958c.511.567 1.118 1.055 1.795 1.47l.596.287.074.044.132.055c2.171 1.092 4.61 1.256 6.818.588l-2.101 6.71h7.497v3.888h-25.622v-3.888h7.827z"/></g><path d="m7.275-9.943c-1.208 0-2.415.464-3.356 1.151l.955 1.601c.743-.464 1.571-.759 2.246-.759.717 0 1.195.309 1.195.871 0 1.447-4.241 2.936-4.241 5.591v1.487h6.697v-2.021h-4.297c0-1.32 4.143-2.514 4.143-5.141 0-1.741-1.277-2.78-3.342-2.78z" fill="#ff7100" fill-rule="nonzero" transform="matrix(1.81671 0 0 1.96145 -4.11969 45.0017)"/></svg>