<svg clip-rule="evenodd" fill-rule="evenodd" stroke-linejoin="round" stroke-miterlimit="2" viewBox="0 0 48 48" xmlns="http://www.w3.org/2000/svg"><g fill-rule="nonzero"><path d="m18.563 0-.532.656-1.906 2.344h-3.125v6h3.125l1.906 2.344.532.656.75-.437 4.593-2.813-1.031-1.719-3.844 2.375-2.031-2.531v-1.75l2.031-2.531 3.844 2.375 1.031-1.719-4.593-2.812zm-14.563 2c-2.199 0-4 1.801-4 4s1.801 4 4 4 4-1.801 4-4-1.801-4-4-4zm0 2c1.102 0 2 .898 2 2s-.898 2-2 2-2-.898-2-2 .898-2 2-2zm4.813 0c.699 1.602.398 3.102 0 4h3.187v-4zm-4.813.906c-.609 0-1.094.485-1.094 1.094s.485 1.094 1.094 1.094 1.094-.485 1.094-1.094-.485-1.094-1.094-1.094zm6.991 16.881s-3.601-11.595-3.864-11.384c-1.324 1.062-3.457 1.396-5.278.321-.293-.173 3.28 11.063 3.28 11.063h-4.267v2.213h14.584v-2.213z" fill="#1abc9c" transform="matrix(1.75686 0 0 1.75686 3 2.83529)"/><path d="m7.178-1.895c-.745 0-1.531-.281-2.444-.745l-.885 1.629c.815.533 2.008 1.122 3.343 1.122 2.695 0 3.621-1.501 3.621-3.088 0-1.069-.323-1.742-1.052-2.261.575-.491.813-1.236.813-1.869 0-1.685-1.08-2.836-3.186-2.836-1.025 0-2.289.337-3.342 1.109l.898 1.615c.548-.366 1.405-.717 2.234-.717.786 0 1.095.422 1.095.998 0 .661-.506.97-1.18.97h-1.657v1.81h1.84c.842 0 1.264.422 1.264 1.124 0 .549-.211 1.139-1.362 1.139z" fill="#ff7100" transform="matrix(1.7964 0 0 1.93953 25.575 44.7838)"/></g></svg>