<svg clip-rule="evenodd" fill-rule="evenodd" stroke-linejoin="round" stroke-miterlimit="2" viewBox="0 0 48 48" xmlns="http://www.w3.org/2000/svg"><g fill="#1abc9c"><path d="m38.156 6.349c3.863 0 7.027 3.164 7.027 7.027 0 3.864-3.164 7.028-7.027 7.028-3.864 0-7.028-3.164-7.028-7.028 0-3.863 3.164-7.027 7.028-7.027zm0 3.514c-1.936 0-3.514 1.577-3.514 3.513 0 1.937 1.578 3.514 3.514 3.514s3.513-1.577 3.513-3.514c0-1.936-1.577-3.513-3.513-3.513z" fill-rule="nonzero" transform="matrix(.85264 .522499 -.522499 .85264 10.0729 -6.01346)"/><path d="m26.274 23.724-9.7-5.944-6.881 2.673-1.399.495-.722-1.343-4.298-8.43 3.122-1.629 3.578 7.086 5.366-1.927 1.606-2.621-.719-5.656-7.938.029.034-3.521 9.461.004 1.526.032.194 1.471.804 7.383 9.638 5.906c-.954.687-1.781 1.574-2.429 2.632-.649 1.059-1.064 2.198-1.243 3.36z"/><path d="m28.858 31.958c.511.567 1.118 1.055 1.795 1.47l.596.287.074.044.132.055c2.171 1.092 4.61 1.256 6.818.588l-2.101 6.71h7.497v3.888h-25.622v-3.888h7.827z"/></g><path d="m7.178-1.895c-.745 0-1.531-.281-2.444-.745l-.885 1.629c.815.533 2.008 1.122 3.343 1.122 2.695 0 3.621-1.501 3.621-3.088 0-1.069-.323-1.742-1.052-2.261.575-.491.813-1.236.813-1.869 0-1.685-1.08-2.836-3.186-2.836-1.025 0-2.289.337-3.342 1.109l.898 1.615c.548-.366 1.405-.717 2.234-.717.786 0 1.095.422 1.095.998 0 .661-.506.97-1.18.97h-1.657v1.81h1.84c.842 0 1.264.422 1.264 1.124 0 .549-.211 1.139-1.362 1.139z" fill="#ff7100" fill-rule="nonzero" transform="matrix(1.7964 0 0 1.93953 -3.91434 44.7838)"/></svg>