<svg viewBox="0 0 85.333336 85.333336" xmlns="http://www.w3.org/2000/svg"><g transform="matrix(.13333333 0 0 -.13333333 0 85.333333)"><path d="m640 320c0-176.738-143.262-320-320-320s-320 143.262-320 320 143.262 320 320 320 320-143.262 320-320" fill="#82ad4e"/><path d="m440 480h-220v-35.098c0-28.554 12.219-55.761 33.563-74.738l30.027-26.687c6.703-5.957 10.543-14.5 10.543-23.477s-3.84-17.52-10.543-23.477l-30.027-26.687c-21.344-18.977-33.563-46.184-33.563-74.738v-35.098h110 110v35.098c0 28.554-12.219 55.761-33.562 74.738l-30.02 26.687c-6.711 5.957-10.551 14.5-10.551 23.477s3.84 17.52 10.551 23.477l30.02 26.687c21.343 18.977 33.562 46.184 33.562 74.738z" fill="#f5f5e6"/><path d="m356.492 274.094 30.012-26.684c14.934-13.269 23.496-32.344 23.496-52.312v-5.098h-160v5.098c0 19.968 8.563 39.043 23.496 52.312l30.024 26.692c15.015 11.836 36.058 12.253 51.539 1.035z" fill="#f5bb3d"/><path d="m470 460c0-11.047-8.953-20-20-20h-239.996c-11.043 0-20 8.953-20 20v10c0 11.047 8.957 20 20 20h239.996c11.047 0 20-8.953 20-20z" fill="#4f6366"/><path d="m470 160c0-11.047-8.953-20-20-20h-239.996c-11.043 0-20 8.953-20 20v10c0 11.047 8.957 20 20 20h239.996c11.047 0 20-8.953 20-20z" fill="#4f6366"/><path d="m386.504 392.59-30.02-26.692-19.062-14.394c-4.395-3.32-10.453-3.32-14.848 0l-19.058 14.394-30.02 26.692 9.574-1.699c31.047-5.493 62.809-5.493 93.856 0z" fill="#f5bb3d"/></g></svg>