<svg viewBox="0 0 72 72" xmlns="http://www.w3.org/2000/svg"><path d="m40.2139 31.1055c.0039-.002.0068-.002.0107-.002.0049-.0019.0088-.0039.0137-.0058 5.6543-1.4844 7.7617-7.7901 7.7617-11.4161v-1.6816h-24v1.6816c0 3.626 2.1074 9.9317 7.7617 11.4161.0049.0019.0088.0039.0137.0058.0039 0 .0068 0 .0107.002 1.792.4863 3.0996 1.5361 3.7491 2.8945h.9296c.6495-1.3584 1.9571-2.4082 3.7491-2.8945z" fill="#818181"/><path d="m47 55c-6.0742 0-11-4.9258-11-11 0 6.0742-4.9258 11-11 11h-1v4h24v-4z" fill="#818181"/><path d="m55 11c0 1.1001-.9004 2-2 2h-34c-1.0996 0-2-.8999-2-2v-1c0-1.1001.9004-2 2-2h34c1.0996 0 2 .8999 2 2z" fill="#91c7f9"/><path d="m55 62c0 1.0996-.9004 2-2 2h-34c-1.0996 0-2-.9004-2-2v-1c0-1.0996.9004-2 2-2h34c1.0996 0 2 .9004 2 2z" fill="#91c7f9"/><path d="m36 39v5" fill="#fff"/><g style="fill:none;stroke:#000;stroke-linecap:round;stroke-linejoin:round;stroke-miterlimit:10;stroke-width:2"><path d="m31 34c-7.2725-1.9092-10-9.5454-10-14.3184 0-4.7724 0-6.6816 0-6.6816"/><path d="m21 59s0-1.9092 0-6.6816c0-4.7725 2.7275-12.4092 10-14.3184"/><path d="m31 38c1-.2715 2-.8945 2-2 0-1.1045-1-1.7285-2-2"/><path d="m41 34c7.2725-1.9092 10-9.5454 10-14.3184 0-4.7724 0-6.6816 0-6.6816"/><path d="m51 59s0-1.9092 0-6.6816c0-4.7725-2.7275-12.4092-10-14.3184"/><path d="m41 38c-1-.2715-2-.8945-2-2 0-1.1045 1-1.7285 2-2"/><path d="m25 55c6.0742 0 11-4.9258 11-11 0 6.0742 4.9258 11 11 11"/><path d="m55 11c0 1.1001-.9004 2-2 2h-34c-1.0996 0-2-.8999-2-2v-1c0-1.1001.9004-2 2-2h34c1.0996 0 2 .8999 2 2z"/><path d="m47 18h-22"/><path d="m55 62c0 1.0996-.9004 2-2 2h-34c-1.0996 0-2-.9004-2-2v-1c0-1.0996.9004-2 2-2h34c1.0996 0 2 .9004 2 2z"/><path d="m36 39v5"/></g></svg>