<svg clip-rule="evenodd" fill-rule="evenodd" stroke-linejoin="round" stroke-miterlimit="2" viewBox="0 0 48 48" xmlns="http://www.w3.org/2000/svg"><path d="m25.215 35.478-8.012-21.504h-3.809l-8.013 21.504h3.692l2.094-5.948h8.189l2.139 5.948zm-13.022-8.965 1.933-5.581c.508-1.426.894-2.74 1.158-3.941.097.391.275 1.006.534 1.846s.462 1.455.608 1.846l2.007 5.83zm28.081 8.965v-10.914c0-1.923-.525-3.334-1.575-4.233-1.05-.898-2.605-1.348-4.665-1.348-.928 0-1.914.12-2.959.359-1.045.24-2.007.589-2.886 1.048l1.113 2.461c.703-.332 1.436-.62 2.198-.865.761-.244 1.557-.366 2.387-.366 1.016 0 1.765.256 2.249.769.483.513.725 1.287.725 2.322v.864l-2.798.088c-2.539.078-4.429.542-5.669 1.392-1.24.849-1.86 2.109-1.86 3.779 0 1.572.446 2.788 1.34 3.647.894.86 2.136 1.29 3.728 1.29 1.24 0 2.256-.179 3.047-.535.791-.357 1.577-1.028 2.358-2.014h.118l.688 2.256zm-9.522-2.937c-.429-.396-.644-.955-.644-1.678 0-.996.368-1.736 1.106-2.219.737-.483 1.916-.754 3.537-.813l2.081-.088v1.406c0 1.26-.379 2.239-1.136 2.937-.757.699-1.76 1.048-3.01 1.048-.859 0-1.504-.198-1.934-.593z" fill="#0ca4d5" fill-rule="nonzero"/></svg>