<svg clip-rule="evenodd" fill-rule="evenodd" stroke-linejoin="round" stroke-miterlimit="2" viewBox="0 0 48 48" xmlns="http://www.w3.org/2000/svg"><path d="m0 0h16.000008v16.000008h-16.000008z" fill="none" stroke-width=".666667"/><path d="m24.005 28.163-6.602 6.603c-.151.15-.354.234-.566.234s-.416-.084-.565-.234l-1.697-1.696c-.15-.15-.234-.354-.234-.566s.084-.415.234-.566l8.592-8.591c.222-.222.524-.347.839-.347.314 0 .616.125.838.347l1.989 1.989 6.584 6.584c.155.155.242.365.242.584s-.087.429-.242.584l-1.659 1.659c-.155.155-.365.242-.584.242s-.429-.087-.584-.242zm.001-9.996-6.576 6.575c-.157.158-.371.246-.593.246-.223 0-.436-.088-.593-.246l-1.641-1.64c-.157-.157-.246-.371-.246-.593 0-.223.089-.437.246-.594l8.571-8.571c.459-.459 1.204-.459 1.663.001l.582.581 7.989 7.989c.157.158.246.371.246.593 0 .223-.089.436-.246.594l-1.641 1.64c-.157.157-.37.246-.593.246s-.436-.088-.593-.246z" fill="#878787"/></svg>