<?xml version="1.0" encoding="UTF-8" standalone="no"?>
<!DOCTYPE svg PUBLIC "-//W3C//DTD SVG 1.1//EN" "http://www.w3.org/Graphics/SVG/1.1/DTD/svg11.dtd">
<svg width="100%" height="100%" viewBox="0 0 48 48" version="1.1" xmlns="http://www.w3.org/2000/svg" xmlns:xlink="http://www.w3.org/1999/xlink" xml:space="preserve" xmlns:serif="http://www.serif.com/" style="fill-rule:evenodd;clip-rule:evenodd;stroke-linejoin:round;stroke-miterlimit:2;">
    <g transform="matrix(0.666667,0,0,0.666667,0,0)">
        <rect x="0" y="0" width="24" height="24" style="fill:none;"/>
    </g>
    <g transform="matrix(0.231949,0.231949,0.353404,-0.353404,17.2022,18.4319)">
        <path d="M45,11.679C45,11.234 44.731,10.807 44.251,10.492C43.771,10.177 43.121,10 42.442,10L8,10L8,18L42.442,18C43.121,18 43.771,17.823 44.251,17.508C44.731,17.193 45,16.766 45,16.321L45,11.679Z" style="fill:rgb(135,135,135);"/>
    </g>
    <g transform="matrix(0.231949,0.231949,0.353404,-0.353404,17.2022,28.4277)">
        <path d="M45,11.653C45,11.214 44.735,10.794 44.262,10.484C43.79,10.174 43.15,10 42.482,10L8,10L8,18L42.482,18C43.15,18 43.79,17.826 44.262,17.516C44.735,17.206 45,16.786 45,16.347L45,11.653Z" style="fill:rgb(135,135,135);"/>
    </g>
    <g transform="matrix(-0.270155,0.270155,-0.353404,-0.353404,32.528,16.7127)">
        <path d="M45,11.679C45,11.234 44.769,10.807 44.357,10.492C43.945,10.177 43.386,10 42.804,10L8,10L8,15.646C8,16.946 9.379,18 11.079,18L42.804,18C43.386,18 43.945,17.823 44.357,17.508C44.769,17.193 45,16.766 45,16.321L45,11.679Z" style="fill:rgb(135,135,135);"/>
    </g>
    <g transform="matrix(-0.270155,0.270155,-0.353404,-0.353404,32.528,26.7084)">
        <path d="M45,11.6C45,11.176 44.779,10.769 44.387,10.469C43.994,10.169 43.462,10 42.906,10L8,10L8,15.626C8,16.256 8.327,16.86 8.909,17.305C9.492,17.75 10.281,18 11.105,18L42.906,18C43.462,18 43.994,17.831 44.387,17.531C44.779,17.231 45,16.824 45,16.4L45,11.6Z" style="fill:rgb(135,135,135);"/>
    </g>
</svg>
