<svg clip-rule="evenodd" fill-rule="evenodd" stroke-linejoin="round" stroke-miterlimit="2" viewBox="0 0 48 48" xmlns="http://www.w3.org/2000/svg"><g fill="#27aae1" fill-rule="nonzero"><path d="m19 40h-6c-5.5 0-10-4.5-10-10v-12c0-5.9 5.8-10 11-10v4c-3.2 0-7 2.6-7 6v12c0 3.3 2.7 6 6 6h14l-8 8z" transform="matrix(-1 0 0 1 48 0)"/><path d="m35 12h-14l8-8v4h6c5.5 0 10 4.5 10 10v12c0 5.5-4.5 10-10 10v-4c3.3 0 6-2.7 6-6v-12c0-3.3-2.7-6-6-6z" transform="matrix(-1 0 0 1 48 0)"/><g transform="matrix(1.21398 0 0 1.21398 4.80932 24.6509)"><path d="m6.891-.529c0-1.999.675-3.019 2.053-3.019.758 0 1.309.524 1.599 1.075l1.612-1.02c-.647-1.102-1.64-1.845-3.293-1.845-2.756 0-4.174 1.748-4.174 4.795 0 3.033 1.418 4.795 4.174 4.795 1.653 0 2.646-.744 3.293-1.845l-1.612-1.02c-.29.551-.841 1.075-1.599 1.075-1.378 0-2.053-1.048-2.053-2.991z"/><path d="m19.377-3.947c-.51-.716-1.419-1.391-3.073-1.391-2.425 0-3.293 1.418-3.293 2.893 0 1.116.482 2.095 2.231 2.646l1.131.359c.648.206.869.51.869.965 0 .592-.455.951-1.227.951-1.158 0-1.627-.483-1.998-1.103l-1.419 1.213c.4.73 1.364 1.68 3.417 1.68 1.916 0 3.43-1.005 3.43-2.921 0-1.089-.482-2.067-2.299-2.619l-1.145-.358c-.593-.207-.786-.524-.786-.951 0-.565.386-.965 1.089-.965.814 0 1.324.317 1.654.772z"/><path d="m26.86-3.947c-.51-.716-1.419-1.391-3.073-1.391-2.425 0-3.293 1.418-3.293 2.893 0 1.116.482 2.095 2.231 2.646l1.131.359c.649.206.869.51.869.965 0 .592-.455.951-1.227.951-1.158 0-1.626-.483-1.998-1.103l-1.419 1.213c.4.73 1.364 1.68 3.417 1.68 1.916 0 3.431-1.005 3.431-2.921 0-1.089-.482-2.067-2.3-2.619l-1.145-.358c-.593-.207-.786-.524-.786-.951 0-.565.386-.965 1.089-.965.814 0 1.324.317 1.654.772z"/></g></g></svg>