<svg clip-rule="evenodd" fill-rule="evenodd" stroke-linejoin="round" stroke-miterlimit="2" viewBox="0 0 48 48" xmlns="http://www.w3.org/2000/svg"><g fill-rule="nonzero"><path d="m400 450h-320v-420h220l100 100z" fill="#91c7f9" transform="scale(.1)"/><path d="m380 140h-90v-90z" fill="#e1f4fe" transform="scale(.1)"/><path d="m.262-.135c-.053 0-.109-.02-.174-.053l-.063.116c.058.038.143.08.238.08.192 0 .258-.107.258-.22 0-.076-.023-.124-.075-.161.041-.035.058-.088.058-.133 0-.12-.077-.202-.227-.202-.073 0-.163.024-.238.079l.064.115c.039-.026.1-.051.159-.051.056 0 .078.03.078.071 0 .047-.036.069-.084.069h-.118v.129h.131c.06 0 .09.03.09.08 0 .039-.015.081-.097.081z" fill="#1d76d5" transform="matrix(31.1923 0 0 31.1923 15.4845 40.0019)"/></g></svg>