<svg clip-rule="evenodd" fill-rule="evenodd" stroke-linejoin="round" stroke-miterlimit="2" viewBox="0 0 48 48" xmlns="http://www.w3.org/2000/svg"><path d="m16 4.9c0-.497-.394-.9-.88-.9h-14.24c-.486 0-.88.403-.88.9v7.2c0 .497.394.9.88.9h14.24c.486 0 .88-.403.88-.9z" fill="#b4b4b4" transform="matrix(2.5 0 0 2.44444 4 5.22222)"/><path d="m9 12h30v3h-30z" fill="#444" fill-rule="nonzero" stroke-width=".1"/><path d="m375 320h-270c-8.281 0-15-6.719-15-15s6.719-15 15-15h270c8.281 0 15 6.719 15 15s-6.719 15-15 15" fill="#242424" fill-rule="nonzero" transform="scale(.1)"/><path d="m110 50h260v100h-260z" fill="#91c7f9" fill-rule="nonzero" transform="matrix(.1 0 0 .11 0 -1.5)"/><path d="m0 8h16v1h-16z" fill="#818181" transform="matrix(2.5 0 0 3 4 -1)"/><g fill-rule="nonzero"><path d="m110 320h260v110h-260z" fill="#91c7f9" transform="matrix(.1 0 0 .109091 0 -2.90909)"/><path d="m11 30h26v2h-26z" fill="#91c7f9" stroke-width=".1"/><path d="m16 34h17v2h-17z" fill="#1e76d5" stroke-width=".1"/><path d="m16 38h13v2h-13z" fill="#1e76d5" stroke-width=".1"/></g><path d="m37 18h4v2h-4z" fill="#fff" transform="matrix(1 0 0 2 0 -18)"/></svg>