<svg clip-rule="evenodd" fill-rule="evenodd" stroke-linejoin="round" stroke-miterlimit="2" viewBox="0 0 48 48" xmlns="http://www.w3.org/2000/svg"><g fill="#818181" fill-rule="nonzero"><path d="m.527 0-.052-.17h-.26l-.052.17h-.163l.252-.717h.185l.253.717zm-.088-.297-.052-.166-.029-.096c-.005-.018-.01-.034-.013-.047-.003.013-.008.03-.013.049-.006.02-.011.039-.016.057-.005.017-.009.03-.012.037l-.051.166z" transform="matrix(17.14728 0 0 21.79836 3.00000651 20.781993514)"/><path d="m.09-.714h.222c.095 0 .166.013.216.04.049.027.073.074.073.141 0 .041-.009.075-.028.103s-.047.045-.082.051v.005c.023.005.045.014.065.026.019.011.035.028.046.051s.017.053.017.09c0 .065-.023.115-.07.152-.048.037-.111.055-.192.055h-.267zm.151.283h.088c.044 0 .075-.007.092-.021.017-.013.025-.034.025-.061s-.01-.047-.03-.059-.052-.018-.095-.018h-.08zm0 .12v.186h.099c.045 0 .077-.009.095-.027.018-.017.027-.041.027-.07 0-.027-.009-.048-.027-.064-.019-.017-.052-.025-.1-.025z" transform="matrix(17.14728 0 0 21.79836 14.83162971 20.781993514)"/><path d="m.393-.598c-.058 0-.102.022-.133.065s-.046.103-.046.178c0 .076.014.135.043.176.028.042.073.063.136.063.029 0 .058-.003.087-.01s.061-.016.095-.028v.127c-.031.013-.062.022-.093.028s-.065.009-.103.009c-.074 0-.135-.015-.182-.045-.047-.031-.082-.074-.105-.129s-.034-.119-.034-.192c0-.072.013-.136.039-.191s.064-.099.114-.13c.049-.031.11-.047.182-.047.035 0 .071.004.107.013.035.009.069.022.102.037l-.049.123c-.027-.013-.053-.024-.081-.033-.026-.009-.053-.014-.079-.014z" transform="matrix(17.14728 0 0 21.79836 26.35460187 20.781993514)"/></g><path d="m5.182 13.333 4.091-4.444 9.818 9.778 14.727-15.111 4.091 4.444-18.818 20.444z" fill="#279d2c" transform="matrix(1.22222 0 0 1.125 -1.33333 12)"/></svg>