<svg clip-rule="evenodd" fill-rule="evenodd" stroke-linejoin="round" stroke-miterlimit="2" viewBox="0 0 48 48" xmlns="http://www.w3.org/2000/svg"><g fill-rule="nonzero"><path d="m420 420h-360v-360h308.571l51.429 51.429z" fill="#ea4b4b" transform="matrix(.116667 0 0 .116667 -4 -4)"/><path d="m390 390c0 5.531-4.469 10-10 10h-280c-5.531 0-10-4.469-10-10v-140c0-5.531 4.469-10 10-10h280c5.531 0 10 4.469 10 10z" fill="#fff" transform="matrix(.113333 0 0 .11875 -3.2 -4.5)"/><g fill="#d1dbe0"><path d="m130 310h220v20h-220z" transform="matrix(.118182 0 0 .1 -4.36364 1)"/><path d="m130 270h220v20h-220z" transform="matrix(.118182 0 0 .1 -4.36364 0)"/><path d="m130 350h220v20h-220z" transform="matrix(.118182 0 0 .1 -4.36364 2)"/></g><path d="m90 60v100c0 11.039 8.961 20 20 20h150c11.039 0 20-8.961 20-20v-100z" fill="#cf3030" transform="matrix(.116667 0 0 .116667 -3.5 -4)"/><path d="m150.714 60v100c0 11.039 8.961 20 20 20h148.572c11.039 0 20-8.961 20-20v-100z" fill="#b3c2ca" transform="matrix(.116667 0 0 .116667 -3.58333 -4)"/><path d="m26 5h5v10h-5z" fill="#23323a" stroke-width=".125"/></g></svg>