<svg clip-rule="evenodd" fill-rule="evenodd" stroke-linejoin="round" stroke-miterlimit="2" viewBox="0 0 48 48" xmlns="http://www.w3.org/2000/svg"><g fill-rule="nonzero"><path d="m400 450h-320v-420h220l100 100z" fill="#91c7f9" transform="scale(.1)"/><path d="m380 140h-90v-90z" fill="#e1f4fe" transform="scale(.1)"/><path d="m.268-.708c-.086 0-.172.033-.239.082l.068.114c.053-.033.112-.054.16-.054.051 0 .085.022.085.062 0 .103-.302.209-.302.398v.106h.477v-.144h-.306c0-.094.295-.179.295-.366 0-.124-.091-.198-.238-.198z" fill="#1d76d5" transform="matrix(31.1923 0 0 31.1923 15.4845 40.0019)"/></g></svg>