<svg clip-rule="evenodd" fill-rule="evenodd" stroke-linejoin="round" stroke-miterlimit="2" viewBox="0 0 48 48" xmlns="http://www.w3.org/2000/svg"><path d="m19 3h-16l26 42h16z" fill="#0ca4d5"/><g fill-rule="nonzero" transform="matrix(.102389 -.0089579 .0089579 .102389 -.619876 1.42052)"><path d="m425.828 90.672-36.508-36.5c-5.55-5.563-14.59-5.563-20.148 0l-17.184 17.199 56.641 56.641 17.199-17.184c5.563-5.566 5.563-14.578 0-20.156" fill="#e57373"/><path d="m380.32 156.32-254.605 254.606-56.645-56.649 254.606-254.605z" fill="#ff9800"/><path d="m323.648 99.691 28.317-28.339 56.683 56.644-28.316 28.34z" fill="#b0bec5"/><path d="m69.051 354.301-19.051 75.699 75.711-19.059z" fill="#ffc107"/><path d="m59.648 391.719-9.648 38.281 38.27-9.648z" fill="#37474f"/></g></svg>