<svg clip-rule="evenodd" fill-rule="evenodd" stroke-linejoin="round" stroke-miterlimit="2" viewBox="0 0 48 48" xmlns="http://www.w3.org/2000/svg"><g fill-rule="nonzero"><path d="m381.472 121.29h-160.693l-40.779-41.29h-100c-21.992 0-40 18.008-40 40v240c0 21.992 18.008 40 40 40h310c16.992 0 31.645-13.976 31.645-30.968v-206.451c0-21.993-18.181-41.291-40.173-41.291z" fill="#ff9d1b" transform="matrix(.0995691 0 0 .09687498785 -.982763 .25000034789)"/><path d="m421.992 180h-268.984c-19.024 0-36.016 13.984-39.024 33.008l-33.984 186.992h316.992c19.024 0 36.016-13.984 39.024-33.008l25-140c5-23.984-14.024-46.992-39.024-46.992z" fill="#ffc630" transform="matrix(.0995239952 0 0 .09545458963 -.96191402701 .81818266973)"/></g></svg>