<svg clip-rule="evenodd" fill-rule="evenodd" stroke-linejoin="round" stroke-miterlimit="2" viewBox="0 0 48 48" xmlns="http://www.w3.org/2000/svg"><g fill-rule="nonzero"><path d="m320 60h-80c0 11.039-10 30-30 30s-30-18.961-30-30h-80c-22.09 0-40 17.91-40 40v300c0 22.09 17.91 40 40 40h220c22.09 0 40-17.91 40-40v-300c0-22.09-17.91-40-40-40" fill="#425a66" transform="matrix(.1 0 0 .1 0 -1)"/><path d="m320 410h-220c-5.52 0-10-4.48-10-10v-300c0-5.52 4.48-10 10-10h220c5.52 0 10 4.48 10 10v300c0 5.52-4.48 10-10 10z" fill="#fff" transform="matrix(.1 0 0 .1 0 -1)"/><path d="m230 60c0 11.051-8.949 20-20 20s-20-8.949-20-20h-70v40c0 11.051 8.949 20 20 20h140c11.051 0 20-8.949 20-20v-40z" fill="#93aab5" transform="matrix(.1 0 0 .1 0 -1)"/><path d="m210 20c-22.059 0-40 17.941-40 40s17.941 40 40 40 40-17.941 40-40-17.941-40-40-40m0 60c-11.031 0-20-8.961-20-20s8.969-20 20-20 20 8.961 20 20-8.969 20-20 20" fill="#93aab5" transform="matrix(.1 0 0 .1 0 -1)"/><g stroke-width=".1"><path d="m17 16h25v30h-25z" fill="#a1c5f7"/><path d="m21 36h12v2h-12z" fill="#4875d1"/><path d="m21 32h17v2h-17z" fill="#4875d1"/><path d="m21 28h12v2h-12z" fill="#4875d1"/><path d="m21 24h17v2h-17z" fill="#4875d1"/></g></g></svg>