<svg clip-rule="evenodd" fill-rule="evenodd" stroke-linejoin="round" stroke-miterlimit="2" viewBox="0 0 48 48" xmlns="http://www.w3.org/2000/svg"><path d="m6 17.0323h26v4h-26z" fill="#0097f6"/><path d="m6 7h26v4h-26z" fill="#0097f6"/><g fill="#1665c0"><path d="m36 6h6v6h-6z"/><path d="m36 16h6v6h-6z"/><path d="m36 36h6v6h-6z"/><path d="m36 26h6v6h-6z"/></g><path d="m66.774 352.232-15.249 76.243 70.144-21.348z" fill="#ffc107" fill-rule="nonzero" transform="matrix(-.163949 -.163949 .163949 -.163949 -28.8005 112.695)"/><path d="m58.63 392.884-7.105 35.591 32.731-9.965z" fill="#717171" fill-rule="nonzero" transform="matrix(-.163949 -.163949 .163949 -.163949 -28.8005 112.695)"/><path d="m-9.5 5.5h4v6h-4z" fill="#ff9800" transform="matrix(-3 0 0 3 -10.5 9.5)"/></svg>