<svg clip-rule="evenodd" fill-rule="evenodd" stroke-linejoin="round" stroke-miterlimit="2" viewBox="0 0 48 48" xmlns="http://www.w3.org/2000/svg"><path d="m29 30h5v4h-5z" fill="#8ac4ea" transform="matrix(.654594 -.654594 .53033 .53033 -8.6865 32.8814)"/><g fill="#3498db"><path d="m45.395 36.607c0-1.176-.955-2.131-2.131-2.131h-15.133c-1.176 0-2.131.955-2.131 2.131v4.262c0 1.176.955 2.131 2.131 2.131h15.133c1.176 0 2.131-.955 2.131-2.131z" transform="matrix(.707107 .707107 -.707107 .707107 38.1621 -16.2823)"/><path d="m18 3c8.279 0 15 6.721 15 15s-6.721 15-15 15-15-6.721-15-15 6.721-15 15-15zm0 3c6.623 0 12 5.377 12 12s-5.377 12-12 12-12-5.377-12-12 5.377-12 12-12z"/></g></svg>