<svg clip-rule="evenodd" fill-rule="evenodd" stroke-linejoin="round" stroke-miterlimit="2" viewBox="0 0 48 48" xmlns="http://www.w3.org/2000/svg"><g fill-rule="nonzero"><g fill="#b5c3c9"><path d="m85.714 120h-25.714v-60h60v25.714h-34.286z" transform="matrix(.116667 0 0 .116667 -4 -4)"/><path d="m85.714 360h-25.714v60h60v-25.714h-34.286z" transform="matrix(.116667 0 0 .116667 -4 -4)"/><path d="m60 160h30v60h-30z" transform="matrix(.1 0 0 .116667 -3 -3.66667)"/><path d="m60 260h30v60h-30z" transform="matrix(.1 0 0 .116667 -3 -4.33333)"/><path d="m160 60h60v30h-60z" transform="matrix(.116667 0 0 .1 -3.66667 -3)"/><path d="m160 390h60v30h-60z" transform="matrix(.116667 0 0 .1 -3.66667 3)"/><path d="m85.714 120h-25.714v-60h60v25.714h-34.286z" transform="matrix(-.116667 0 0 .116667 52 -4)"/><path d="m85.714 360h-25.714v60h60v-25.714h-34.286z" transform="matrix(-.116667 0 0 .116667 52 -4)"/><path d="m60 160h30v60h-30z" transform="matrix(-.1 0 0 .116667 51 -3.66667)"/><path d="m60 260h30v60h-30z" transform="matrix(-.1 0 0 .116667 51 -4.33333)"/><path d="m160 60h60v30h-60z" transform="matrix(-.116667 0 0 .1 51.6667 -3)"/><path d="m160 390h60v30h-60z" transform="matrix(-.116667 0 0 .1 51.6667 3)"/></g><path d="m130 140h230v20h-230z" fill="#259df3" transform="matrix(.117391 0 0 .15 -4.26087 -9)"/><path d="m130 200h200v20h-200z" fill="#259df3" transform="matrix(.115 0 0 .15 -3.95 -11)"/><path d="m130 260h230v20h-230z" fill="#259df3" transform="matrix(.117391 0 0 .15 -4.26087 -13)"/><path d="m130 320h200v20h-200z" fill="#259df3" transform="matrix(.115 0 0 .15 -3.95 -15)"/></g></svg>