<svg clip-rule="evenodd" fill-rule="evenodd" stroke-linejoin="round" stroke-miterlimit="2" viewBox="0 0 48 48" xmlns="http://www.w3.org/2000/svg"><g fill-rule="nonzero"><path d="m310 360h-250v-330h173.077l76.923 77.647z" fill="#3d99f5" transform="matrix(.104 0 0 .10303 -1.24 -.090909)"/><path d="m298.947 120h-73.026v-75z" fill="#e6f6fe" transform="matrix(.0958559 0 0 .0933333 .344144 .8)"/><g fill="#1466b8"><path d="m110 160h160v20h-160z" transform="matrix(.05 0 0 .1 4.5 1)"/><path d="m110 200h120v20h-120z" transform="matrix(.0666667 0 0 .1 2.66667 1)"/><path d="m110 240h160v20h-160z" transform="matrix(.05 0 0 .1 4.5 1)"/><path d="m110 280h120v20h-120z" transform="matrix(.0666667 0 0 .1 2.66667 1)"/></g><path d="m420 440h-250v-330h173.077l76.923 77.647z" fill="#a1c5f7" transform="matrix(.104 0 0 .10303 -.68 -.333333)"/><path d="m400.541 195.405h-65.804v-69.388z" fill="#e6f4fe" transform="matrix(.106377 0 0 .100881 -1.6083 .287236)"/><path d="m22 25h15v2h-15z" fill="#4775d1" stroke-width=".1"/><path d="m22 29h11v2h-11z" fill="#4775d1" stroke-width=".1"/><path d="m22 33h15v2h-15z" fill="#4775d1" stroke-width=".1"/><path d="m22 37h11v2h-11z" fill="#4775d1" stroke-width=".1"/></g></svg>