<svg clip-rule="evenodd" fill-rule="evenodd" stroke-linejoin="round" stroke-miterlimit="2" viewBox="0 0 48 48" xmlns="http://www.w3.org/2000/svg"><g fill-rule="nonzero" transform="matrix(.105 0 0 .105 -1.2 -1.2)"><path d="m223.449 201.328s-57.179-34.797-70.301-41.867c-2.457-1.34-3.968-2.32-4.898-3.031 10.449-9.231 15.91-26.328 15.91-38.711 0-18.61-15.84-57.719-62.898-57.719-44.953 0-61.262 32.809-61.262 56.012 0 18.207 6.891 43 39.699 57.609 5.563 2.481 11.371 4.789 17.301 7.141 27.969 11.058 56.898 22.519 81.801 60.476zm-98.89-60.476c-5.231 5.91-12.368 9.16-20.098 9.16-16.731 0-31.973-13.461-33.961-29.981-.988-8.222 1.398-16.043 6.719-22.051 5.39-6.089 13.32-9.57 21.761-9.57 17.211 0 31.09 11.75 33.051 27.949 1.078 9-1.652 17.93-7.472 24.493z" fill="#404fbd"/><path d="m438.539 359.73-137.367-101.14-53.543 39.488 92.371 65.922c.961.719 23.359 16.621 50.871 16.621h.008c15.019 0 28.641-4.101 40.512-13.812 1.91-1.559 7.148-7.079 7.148-7.079z" fill="#404fbd"/><path d="m433.16 112.289c-11.879-9.711-25.488-12.129-40.531-12.129-27.52 0-49.918 14.231-50.68 14.801l-153.508 107.34c-.98.687-1.781 1.597-2.371 2.66-26.269 47.75-58.172 60.398-89.039 72.617-5.961 2.352-11.761 4.672-17.32 7.152-32.82 14.61-39.711 39.391-39.711 57.59 0 23.192 16.309 57.68 61.25 57.68 47.059 0 62.898-40.781 62.898-59.391 0-12.379-5.457-29.461-15.91-38.711.934-.687 2.442-1.679 4.903-3.027 13.129-7.07 67.98-40.461 70.89-42.281l215.969-156.59zm-301.14 249.68c-1.95 16.191-15.86 27.953-33.051 27.953-8.438 0-16.367-3.5-21.758-9.563-5.32-6.007-7.711-13.839-6.723-22.05 1.992-16.528 17.242-29.969 33.981-29.969 7.722 0 14.851 3.238 20.082 9.148 5.828 6.551 8.558 15.481 7.469 24.481z" fill="#00a7f5"/><path d="m224.031 276.59c-.383.23-1.691 1.039-3.64 2.23l27.25 19.289 53.539-39.507-25.95-19.122z" fill="#2b399d"/><path d="m234.852 234.859c0 5.524-4.481 10-10 10-5.524 0-10-4.476-10-10 0-5.523 4.476-10 10-10 5.519 0 10 4.477 10 10z" fill="#283593"/></g></svg>