<svg clip-rule="evenodd" fill-rule="evenodd" stroke-linejoin="round" stroke-miterlimit="2" viewBox="0 0 16 16" xmlns="http://www.w3.org/2000/svg"><g fill="#3498db"><path d="m15 39.5c0-.828-.602-1.5-1.343-1.5h-8.314c-.741 0-1.343.672-1.343 1.5v3c0 .828.602 1.5 1.343 1.5h8.314c.741 0 1.343-.672 1.343-1.5z" transform="matrix(.426295 .426114 -.381797 .381635 24.4495 -6.85517)"/><path d="m6.479 0c3.577 0 6.48 2.902 6.48 6.477 0 3.574-2.903 6.476-6.48 6.476-3.576 0-6.479-2.902-6.479-6.476 0-3.575 2.903-6.477 6.479-6.477zm0 1.977c2.484 0 4.5 2.016 4.5 4.5 0 2.483-2.016 4.5-4.5 4.5-2.483 0-4.5-2.017-4.5-4.5 0-2.484 2.017-4.5 4.5-4.5z"/></g></svg>