<svg clip-rule="evenodd" fill-rule="evenodd" stroke-linejoin="round" stroke-miterlimit="2" viewBox="0 0 48 48" xmlns="http://www.w3.org/2000/svg"><path d="m15.687 36.243h8.891c2.687 0 4.809-.597 6.367-1.789 1.557-1.193 2.336-2.826 2.336-4.899 0-1.396-.318-2.531-.953-3.406-.636-.875-1.662-1.5-3.078-1.875v-.156c1.072-.261 1.937-.844 2.593-1.75.657-.907.985-2 .985-3.282 0-1.947-.753-3.382-2.258-4.304-1.506-.922-3.81-1.383-6.914-1.383h-7.969zm6.172-18.172h1.734c1.938 0 2.907.64 2.907 1.922 0 .718-.243 1.26-.727 1.625-.484.364-1.169.547-2.055.547h-1.859zm2.047 8.609c.979 0 1.726.203 2.242.61.516.406.773.989.773 1.75 0 1.625-.963 2.437-2.89 2.437h-2.172v-4.797z" fill="#0ca4d5" fill-rule="nonzero"/></svg>