<svg clip-rule="evenodd" fill-rule="evenodd" stroke-linejoin="round" stroke-miterlimit="2" viewBox="0 0 48 48" xmlns="http://www.w3.org/2000/svg"><path d="m33 22v-6l10 8-10 8v-6h-8v-4z" fill="#00bd9c"/><g fill="#0ca4d5" fill-rule="nonzero" transform="matrix(.1 0 0 .1 -11 0)"><path d="m160 450v-40c29.711 0 39.32-6.262 51.07-18.109 8.18-8.219 8.93-12.43 8.93-12.512v-273.988c-.25-2.801 7.711-35.391-60-35.391v-40c109.391 0 99.98 74.199 100 74.949v274.289c.02 2.391-.41 20.571-20.539 40.84-19.711 19.852-38.281 29.922-79.461 29.922z"/><path d="m320 450v-40c-29.711 0-39.32-6.262-51.07-18.109-8.18-8.219-8.93-12.43-8.93-12.512v-273.988c.25-2.801-7.711-35.391 60-35.391v-40c-109.391 0-99.98 74.199-100 74.949v274.289c-.02 2.391.41 20.571 20.539 40.84 19.711 19.852 38.281 29.922 79.461 29.922z"/></g></svg>