<?xml version="1.0" encoding="UTF-8" standalone="no"?>
<!DOCTYPE svg PUBLIC "-//W3C//DTD SVG 1.1//EN" "http://www.w3.org/Graphics/SVG/1.1/DTD/svg11.dtd">
<svg width="100%" height="100%" viewBox="0 0 48 48" version="1.1" xmlns="http://www.w3.org/2000/svg" xmlns:xlink="http://www.w3.org/1999/xlink" xml:space="preserve" xmlns:serif="http://www.serif.com/" style="fill-rule:evenodd;clip-rule:evenodd;stroke-linejoin:round;stroke-miterlimit:2;">
    <path d="M21.011,35.478L21.011,24.564C21.011,22.641 20.486,21.23 19.437,20.331C18.387,19.433 16.831,18.983 14.771,18.983C13.843,18.983 12.857,19.103 11.812,19.342C10.767,19.582 9.805,19.931 8.926,20.39L10.04,22.851C10.743,22.519 11.475,22.231 12.237,21.986C12.999,21.742 13.794,21.62 14.625,21.62C15.64,21.62 16.39,21.876 16.873,22.389C17.356,22.902 17.598,23.676 17.598,24.711L17.598,25.575L14.8,25.663C12.261,25.741 10.371,26.205 9.131,27.055C7.891,27.904 7.271,29.164 7.271,30.834C7.271,32.406 7.718,33.622 8.611,34.481C9.505,35.341 10.747,35.771 12.339,35.771C13.579,35.771 14.595,35.592 15.386,35.236C16.177,34.879 16.963,34.208 17.745,33.222L17.862,33.222L18.55,35.478L21.011,35.478ZM11.49,32.541C11.06,32.145 10.845,31.586 10.845,30.863C10.845,29.867 11.214,29.127 11.951,28.644C12.688,28.161 13.868,27.89 15.489,27.831L17.569,27.743L17.569,29.149C17.569,30.409 17.19,31.388 16.434,32.086C15.677,32.785 14.673,33.134 13.423,33.134C12.564,33.134 11.919,32.936 11.49,32.541ZM29.258,21.4L29.112,21.4C29.131,21.186 29.161,20.683 29.2,19.892C29.239,19.101 29.258,18.505 29.258,18.105L29.258,12.685L25.816,12.685L25.816,35.478L28.394,35.478L29.024,33.559L29.258,33.559C30.391,35.033 31.983,35.771 34.034,35.771C36.065,35.771 37.652,35.031 38.794,33.551C39.937,32.072 40.508,30.004 40.508,27.348C40.508,24.701 39.944,22.646 38.816,21.181C37.688,19.716 36.114,18.983 34.092,18.983C31.963,18.983 30.352,19.789 29.258,21.4ZM36.978,27.318C36.978,29.145 36.663,30.541 36.033,31.508C35.403,32.475 34.478,32.958 33.257,32.958C31.841,32.958 30.821,32.516 30.196,31.632C29.571,30.749 29.258,29.32 29.258,27.348L29.258,27.113C29.278,25.199 29.593,23.835 30.203,23.019C30.813,22.204 31.812,21.796 33.199,21.796C35.718,21.796 36.978,23.637 36.978,27.318Z" style="fill:rgb(12,164,213);fill-rule:nonzero;"/>
</svg>
