<svg clip-rule="evenodd" fill-rule="evenodd" stroke-linejoin="round" stroke-miterlimit="2" viewBox="0 0 48 48" xmlns="http://www.w3.org/2000/svg"><g fill-rule="nonzero"><path d="m30.405 17.555 1.187-3.047c-2.166-.958-4.344-1.437-6.531-1.437-2.281 0-4.099.547-5.453 1.64-1.354 1.094-2.031 2.594-2.031 4.5 0 1.469.407 2.729 1.204 3.789h6.375c-1.044-.452-1.809-.832-2.267-1.132-.573-.375-.984-.774-1.234-1.196s-.375-.929-.375-1.523c0-.865.312-1.56.937-2.086s1.542-.789 2.75-.789c1.594 0 3.406.427 5.438 1.281zm-9.773 15.422c-1.172-.281-2.279-.667-3.321-1.156v3.531c1.646.802 3.76 1.203 6.344 1.203 2.583 0 4.609-.578 6.078-1.734 1.469-1.157 2.203-2.75 2.203-4.782 0-.762-.134-1.424-.333-2.039h-4.499c.047.038.12.081.16.118.646.593.969 1.317.969 2.171 0 .948-.352 1.704-1.055 2.266-.703.563-1.794.844-3.273.844-1.011 0-2.102-.141-3.273-.422z" fill="#0ca4d5"/><path d="m10.5 24h28v3h-28z" fill="#1abc9c"/></g></svg>