<svg clip-rule="evenodd" fill-rule="evenodd" stroke-linejoin="round" stroke-miterlimit="2" viewBox="0 0 16 16" xmlns="http://www.w3.org/2000/svg"><path d="m22.461 35.478-8.013-21.504h-3.808l-8.013 21.504h3.691l2.095-5.948h8.189l2.138 5.948zm-13.022-8.965 1.933-5.581c.508-1.426.894-2.74 1.157-3.941.098.391.276 1.006.535 1.846s.461 1.455.608 1.846l2.007 5.83zm18.925-5.113h-.146c.019-.214.049-.717.088-1.508s.058-1.387.058-1.787v-5.42h-3.442v22.793h2.578l.63-1.919h.234c1.133 1.474 2.725 2.212 4.776 2.212 2.031 0 3.618-.74 4.76-2.22 1.143-1.479 1.714-3.547 1.714-6.203 0-2.647-.564-4.702-1.692-6.167-1.127-1.465-2.702-2.198-4.724-2.198-2.129 0-3.74.806-4.834 2.417zm7.72 5.918c0 1.827-.315 3.223-.945 4.19s-1.555 1.45-2.776 1.45c-1.416 0-2.436-.442-3.061-1.326-.625-.883-.938-2.312-.938-4.284v-.235c.02-1.914.335-3.278.945-4.094.61-.815 1.609-1.223 2.996-1.223 2.519 0 3.779 1.841 3.779 5.522zm5.173 7.984c.371.4.909.6 1.612.6s1.242-.202 1.618-.608c.376-.405.564-.954.564-1.648 0-.683-.185-1.223-.556-1.618-.372-.396-.914-.593-1.626-.593-.703 0-1.241.19-1.612.571s-.556.928-.556 1.64c0 .704.185 1.255.556 1.656z" fill="#0ca4d5" fill-rule="nonzero" transform="matrix(.377145 0 0 .377145 -.99076 -1.39026)"/></svg>