<svg clip-rule="evenodd" fill-rule="evenodd" stroke-linejoin="round" stroke-miterlimit="2" viewBox="0 0 16 16" xmlns="http://www.w3.org/2000/svg"><path d="m21.011 35.478v-10.914c0-1.923-.525-3.334-1.574-4.233-1.05-.898-2.606-1.348-4.666-1.348-.928 0-1.914.12-2.959.359-1.045.24-2.007.589-2.886 1.048l1.114 2.461c.703-.332 1.435-.62 2.197-.865.762-.244 1.557-.366 2.388-.366 1.015 0 1.765.256 2.248.769s.725 1.287.725 2.322v.864l-2.798.088c-2.539.078-4.429.542-5.669 1.392-1.24.849-1.86 2.109-1.86 3.779 0 1.572.447 2.788 1.34 3.647.894.86 2.136 1.29 3.728 1.29 1.24 0 2.256-.179 3.047-.535.791-.357 1.577-1.028 2.359-2.014h.117l.688 2.256zm-9.521-2.937c-.43-.396-.645-.955-.645-1.678 0-.996.369-1.736 1.106-2.219s1.917-.754 3.538-.813l2.08-.088v1.406c0 1.26-.379 2.239-1.135 2.937-.757.699-1.761 1.048-3.011 1.048-.859 0-1.504-.198-1.933-.593zm17.768-11.141h-.146c.019-.214.049-.717.088-1.508s.058-1.387.058-1.787v-5.42h-3.442v22.793h2.578l.63-1.919h.234c1.133 1.474 2.725 2.212 4.776 2.212 2.031 0 3.618-.74 4.76-2.22 1.143-1.479 1.714-3.547 1.714-6.203 0-2.647-.564-4.702-1.692-6.167s-2.702-2.198-4.724-2.198c-2.129 0-3.74.806-4.834 2.417zm7.72 5.918c0 1.827-.315 3.223-.945 4.19s-1.555 1.45-2.776 1.45c-1.416 0-2.436-.442-3.061-1.326-.625-.883-.938-2.312-.938-4.284v-.235c.02-1.914.335-3.278.945-4.094.61-.815 1.609-1.223 2.996-1.223 2.519 0 3.779 1.841 3.779 5.522z" fill="#0ca4d5" fill-rule="nonzero" transform="matrix(.381183 0 0 .381183 -1.10628 -1.53531)"/></svg>