<svg clip-rule="evenodd" fill-rule="evenodd" stroke-linejoin="round" stroke-miterlimit="2" viewBox="0 0 48 48" xmlns="http://www.w3.org/2000/svg"><g fill-rule="nonzero"><path d="m39.333 41.929h-5.038v-.091c1.476-1.324 2.44-2.223 2.892-2.696.453-.474.816-.925 1.089-1.353s.475-.864.606-1.307c.13-.444.196-.926.196-1.449 0-.698-.187-1.328-.561-1.89-.373-.562-.898-.994-1.575-1.298-.678-.304-1.447-.456-2.31-.456-.686 0-1.304.07-1.853.21-.55.14-1.059.342-1.526.606-.468.264-1.045.703-1.731 1.316l1.977 2.314c.54-.468 1.024-.821 1.453-1.061.428-.24.851-.36 1.27-.36.407 0 .723.1.948.3.224.201.337.474.337.82 0 .28-.056.547-.169.802-.112.255-.311.56-.596.915-.286.356-.893 1.019-1.822 1.991l-3.252 3.288v2.369h9.665z" fill="#1abc9c"/><path d="m29.112 36.243-8.547-22.938h-4.062l-8.547 22.938h3.937l2.235-6.344h8.734l2.281 6.344zm-13.891-9.563 2.063-5.953c.541-1.521.953-2.922 1.234-4.203.104.417.294 1.073.571 1.969.275.896.492 1.552.648 1.968l2.141 6.219z" fill="#0ca4d5"/></g></svg>