<svg clip-rule="evenodd" fill-rule="evenodd" stroke-linejoin="round" stroke-miterlimit="2" viewBox="0 0 16 16" xmlns="http://www.w3.org/2000/svg"><path d="m24.014 35.478-8.013-21.504h-3.808l-8.013 21.504h3.692l2.094-5.948h8.189l2.138 5.948zm-13.022-8.965 1.933-5.581c.508-1.426.894-2.74 1.158-3.941.097.391.275 1.006.534 1.846s.462 1.455.608 1.846l2.007 5.83zm15.849 8.965h7.735c2.392 0 4.26-.545 5.603-1.634 1.342-1.089 2.014-2.595 2.014-4.519 0-1.425-.354-2.556-1.062-3.391s-1.814-1.394-3.318-1.677v-.147c1.211-.214 2.139-.737 2.783-1.567.645-.83.967-1.87.967-3.12 0-1.855-.657-3.213-1.97-4.072-1.314-.86-3.445-1.289-6.394-1.289h-6.358zm3.501-18.487h3.033c1.582 0 2.736.225 3.464.674.727.449 1.091 1.177 1.091 2.183 0 1.113-.337 1.902-1.011 2.365-.673.464-1.743.696-3.208.696h-3.369zm3.545 8.76c1.553 0 2.71.269 3.472.806s1.142 1.362 1.142 2.475c0 1.211-.373 2.097-1.12 2.659s-1.853.842-3.318.842h-3.721v-6.782z" fill="#0ca4d5" fill-rule="nonzero" transform="matrix(.38431 0 0 .38431 -.910805 -1.63455)"/></svg>