<svg clip-rule="evenodd" fill-rule="evenodd" stroke-linejoin="round" stroke-miterlimit="2" viewBox="0 0 16 16" xmlns="http://www.w3.org/2000/svg"><g fill="#0ca4d5" fill-rule="nonzero"><path d="m24.571 35.478-8.013-21.504h-3.808l-8.013 21.504h3.691l2.095-5.948h8.188l2.139 5.948zm-13.023-8.965 1.934-5.581c.508-1.426.893-2.74 1.157-3.941.098.391.276 1.006.535 1.846.258.84.461 1.455.608 1.846l2.007 5.83zm18.926-5.113h-.146c.019-.214.048-.717.088-1.508.038-.791.058-1.387.058-1.787v-5.42h-3.442v22.793h2.578l.63-1.919h.234c1.133 1.474 2.725 2.212 4.776 2.212 2.031 0 3.618-.74 4.76-2.22 1.143-1.479 1.714-3.547 1.714-6.203 0-2.647-.564-4.702-1.692-6.167s-2.702-2.198-4.724-2.198c-2.129 0-3.74.806-4.834 2.417zm7.72 5.918c0 1.827-.315 3.223-.945 4.19s-1.555 1.45-2.776 1.45c-1.416 0-2.437-.442-3.061-1.326-.625-.883-.938-2.312-.938-4.284v-.235c.02-1.914.335-3.278.945-4.094.61-.815 1.609-1.223 2.996-1.223 2.519 0 3.779 1.841 3.779 5.522z" transform="matrix(.378511 0 0 .378511 -.793 -1.419)"/><path d="m1.00492725 12.98334355h7.4945178v1.11660745h-7.4945178z" stroke-width=".378511"/></g></svg>