<svg clip-rule="evenodd" fill-rule="evenodd" stroke-linejoin="round" stroke-miterlimit="2" viewBox="0 0 48 48" xmlns="http://www.w3.org/2000/svg"><path d="m160 450v-40c29.711 0 39.32-6.262 51.07-18.109 8.18-8.219 8.93-12.43 8.93-12.512v-273.988c-.25-2.801 7.711-35.391-60-35.391v-40c109.391 0 99.98 74.199 100 74.949v274.289c.02 2.391-.41 20.571-20.539 40.84-19.711 19.852-38.281 29.922-79.461 29.922z" fill="#0ca4d5" fill-rule="nonzero" transform="scale(.1)"/><path d="m320 450v-40c-29.711 0-39.32-6.262-51.07-18.109-8.18-8.219-8.93-12.43-8.93-12.512v-273.988c.25-2.801-7.711-35.391 60-35.391v-40c-109.391 0-99.98 74.199-100 74.949v274.289c-.02 2.391.41 20.571 20.539 40.84 19.711 19.852 38.281 29.922 79.461 29.922z" fill="#0ca4d5" fill-rule="nonzero" transform="scale(.1)"/><g fill="#00bd9c"><path d="m10.5 20 3.5 4h-7z" transform="matrix(0 2.28571 2.5 0 -46 0)"/><path d="m10.5 20 3.5 4h-7z" transform="matrix(0 2.28571 -2.5 0 94 0)"/></g></svg>