<svg clip-rule="evenodd" fill-rule="evenodd" stroke-linejoin="round" stroke-miterlimit="2" viewBox="0 0 48 48" xmlns="http://www.w3.org/2000/svg"><path d="m419 153c1-5 1-9 1-13s0-8-1-13l25-18c3-2 3-5 2-8l-25-43c-2-3-5-4-8-2l-29 13c-7-5-14-9-22-13l-3-31c1-3-1-5-4-5h-49c-3 0-6 2-6 5l-3 31c-8 3-15 7-22 13l-29-13c-3-1-6 0-8 2l-25 43c-2 3-1 6 2 8l25 18v13c0 4 0 8 1 13l-25 18c-3 2-3 5-2 8l25 43c2 3 5 4 8 2l29-13c7 5 14 9 22 13l3 31c0 3 3 5 6 5h49c3 0 6-2 6-5l3-31c8-3 15-7 22-13l29 13c3 1 6 0 8-2l25-43c2-3 1-6-2-8zm-89 37c-28 0-50-22-50-50s22-50 50-50 50 22 50 50-22 50-50 50z" fill="#a78bda" fill-rule="nonzero" transform="matrix(.158346 0 0 .158333 -28.4125 1.83333)"/></svg>