<svg clip-rule="evenodd" fill-rule="evenodd" stroke-linejoin="round" stroke-miterlimit="2" viewBox="0 0 16 16" xmlns="http://www.w3.org/2000/svg"><path d="m22.63 24.916c0-3.955-1.963-5.933-5.889-5.933-1.113 0-2.087.215-2.922.645s-1.487 1.035-1.956 1.816h-.219c.117-1.054.175-2.045.175-2.973v-5.786h-3.442v22.793h3.442v-8.042c0-2.032.34-3.479 1.018-4.344.679-.864 1.741-1.296 3.186-1.296 1.094 0 1.892.308 2.395.923s.755 1.548.755 2.798v9.961h3.457zm15.542-9.77c-1.211-.928-2.896-1.392-5.054-1.392-2.598 0-4.878.723-6.841 2.168l1.685 2.402c1.025-.664 1.914-1.111 2.666-1.34s1.533-.344 2.344-.344c1.162 0 2.041.249 2.636.747.596.498.894 1.206.894 2.124 0 2.363-1.709 3.545-5.127 3.545h-1.89v2.798h1.861c1.943 0 3.369.268 4.277.805s1.362 1.377 1.362 2.52c0 1.289-.41 2.241-1.23 2.856s-2.061.923-3.721.923c-.937 0-1.914-.122-2.93-.366-1.015-.244-1.977-.591-2.885-1.04v3.061c1.631.772 3.633 1.158 6.006 1.158 2.685 0 4.755-.559 6.211-1.678 1.455-1.118 2.182-2.707 2.182-4.768 0-1.416-.43-2.551-1.289-3.406-.859-.854-2.148-1.389-3.867-1.604v-.117c1.435-.312 2.549-.92 3.34-1.823.791-.904 1.186-2.034 1.186-3.392 0-1.63-.605-2.91-1.816-3.837z" fill="#0ca4d5" fill-rule="nonzero" transform="matrix(.476479 0 0 .476479 -3.67255 -3.54414)"/></svg>