<svg clip-rule="evenodd" fill-rule="evenodd" stroke-linejoin="round" stroke-miterlimit="2" viewBox="0 0 16 16" xmlns="http://www.w3.org/2000/svg"><path d="m22.63 24.916c0-3.955-1.963-5.933-5.889-5.933-1.113 0-2.087.215-2.922.645s-1.487 1.035-1.956 1.816h-.219c.117-1.054.175-2.045.175-2.973v-5.786h-3.442v22.793h3.442v-8.042c0-2.032.34-3.479 1.018-4.344.679-.864 1.741-1.296 3.186-1.296 1.094 0 1.892.308 2.395.923s.755 1.548.755 2.798v9.961h3.457zm18.926 3.032h-2.886v-13.945h-3.355l-9.785 14.15v2.652h9.785v4.673h3.355v-4.673h2.886zm-12.818 0 5.318-7.734c.586-.918 1.015-1.699 1.289-2.344h.117c-.098 1.221-.147 2.788-.147 4.702v5.376z" fill="#0ca4d5" fill-rule="nonzero" transform="matrix(.482604 0 0 .482604 -4.04894 -3.62184)"/></svg>