<svg clip-rule="evenodd" fill-rule="evenodd" stroke-linejoin="round" stroke-miterlimit="2" viewBox="0 0 16 16" xmlns="http://www.w3.org/2000/svg"><path d="m22.63 24.916c0-3.955-1.963-5.933-5.889-5.933-1.113 0-2.087.215-2.922.645s-1.487 1.035-1.956 1.816h-.219c.117-1.054.175-2.045.175-2.973v-5.786h-3.442v22.793h3.442v-8.042c0-2.032.34-3.479 1.018-4.344.679-.864 1.741-1.296 3.186-1.296 1.094 0 1.892.308 2.395.923s.755 1.548.755 2.798v9.961h3.457zm4.621 6.526c.611 1.411 1.482 2.485 2.615 3.223 1.133.737 2.466 1.106 3.999 1.106 2.168 0 3.88-.652 5.135-1.956 1.254-1.304 1.882-3.079 1.882-5.325 0-2.041-.542-3.657-1.626-4.848-1.084-1.192-2.598-1.787-4.541-1.787-1.123 0-2.1.217-2.93.651-.83.435-1.475 1.048-1.933 1.839h-.176c.097-2.715.722-4.688 1.875-5.918 1.152-1.231 2.876-1.846 5.171-1.846.976 0 1.836.108 2.578.322v-2.871c-.742-.166-1.651-.249-2.725-.249-6.826 0-10.239 4.19-10.239 12.569 0 1.982.305 3.679.915 5.09zm3.692.073c-.747-.942-1.121-2.102-1.121-3.479 0-.576.181-1.14.542-1.692.361-.551.855-.986 1.48-1.303.625-.318 1.308-.477 2.051-.477 1.201 0 2.102.352 2.702 1.055.601.703.901 1.67.901 2.901 0 1.416-.32 2.504-.959 3.266-.64.762-1.551 1.143-2.732 1.143-1.163 0-2.117-.471-2.864-1.414z" fill="#0ca4d5" fill-rule="nonzero" transform="matrix(.476479 0 0 .476479 -3.73545 -3.54414)"/></svg>