<svg clip-rule="evenodd" fill-rule="evenodd" stroke-linejoin="round" stroke-miterlimit="2" viewBox="0 0 16 16" xmlns="http://www.w3.org/2000/svg"><path d="m30.086 33.544c1.147-1.484 1.721-3.55 1.721-6.196 0-2.647-.564-4.702-1.692-6.167s-2.702-2.198-4.724-2.198c-2.148 0-3.76.821-4.834 2.461h-.176c-.244-1.142-.405-1.865-.483-2.168h-2.783v23.409h3.442v-6.636c0-.293-.068-1.123-.205-2.49h.205c1.133 1.474 2.725 2.212 4.776 2.212 2.021 0 3.605-.743 4.753-2.227zm-2.769-10.349c.64.933.96 2.307.96 4.123 0 1.807-.322 3.199-.967 4.175-.644.977-1.563 1.465-2.754 1.465-1.416 0-2.437-.442-3.061-1.326-.625-.883-.938-2.312-.938-4.284v-.513c0-1.758.315-3.037.945-3.838s1.628-1.201 2.996-1.201c1.24 0 2.18.466 2.819 1.399z" fill="#0ca4d5" fill-rule="nonzero" transform="matrix(.499958 0 0 .499958 -4.22947 -5.4157)"/></svg>