<svg clip-rule="evenodd" fill-rule="evenodd" stroke-linejoin="round" stroke-miterlimit="2" viewBox="0 0 16 16" xmlns="http://www.w3.org/2000/svg"><path d="m22.63 24.916c0-3.955-1.963-5.933-5.889-5.933-1.113 0-2.087.215-2.922.645s-1.487 1.035-1.956 1.816h-.219c.117-1.054.175-2.045.175-2.973v-5.786h-3.442v22.793h3.442v-8.042c0-2.032.34-3.479 1.018-4.344.679-.864 1.741-1.296 3.186-1.296 1.094 0 1.892.308 2.395.923s.755 1.548.755 2.798v9.961h3.457zm9.104-2.695c-.493.078-.911.146-1.253.205l.484-5.303h8.1v-3.061h-11.132l-.821 10.459 1.538.908c.508-.117 1.099-.222 1.773-.315s1.24-.139 1.699-.139c3.262 0 4.893 1.279 4.893 3.838 0 1.338-.406 2.353-1.216 3.046-.811.694-1.992 1.04-3.545 1.04-.879 0-1.831-.122-2.857-.366-1.025-.244-1.933-.591-2.724-1.04v3.12c1.367.772 3.247 1.158 5.639 1.158 2.637 0 4.671-.642 6.102-1.927 1.43-1.284 2.146-3.069 2.146-5.354 0-1.972-.63-3.53-1.89-4.673-1.26-1.142-2.969-1.713-5.127-1.713-.713 0-1.316.039-1.809.117z" fill="#0ca4d5" fill-rule="nonzero" transform="matrix(.476479 0 0 .476479 -3.65873 -3.54414)"/></svg>