<svg clip-rule="evenodd" fill-rule="evenodd" stroke-linejoin="round" stroke-miterlimit="2" viewBox="0 0 48 48" xmlns="http://www.w3.org/2000/svg"><path d="m22.974 24.916c0-3.955-1.963-5.933-5.889-5.933-1.113 0-2.087.215-2.922.645s-1.487 1.035-1.955 1.816h-.22c.117-1.054.176-2.045.176-2.973v-5.786h-3.443v22.793h3.443v-8.042c0-2.032.339-3.479 1.018-4.344.678-.864 1.74-1.296 3.186-1.296 1.093 0 1.892.308 2.395.923s.754 1.548.754 2.798v9.961h3.457zm8.833-12.231.601 5.595-5.508-1.582-.513 3.179 5.244.425-3.383 4.555 3.002 1.568 2.183-4.951 2.432 4.951 2.915-1.568-3.457-4.555 5.273-.425-.41-3.179-5.64 1.582.601-5.595z" fill="#0ca4d5" fill-rule="nonzero"/></svg>