<svg clip-rule="evenodd" fill-rule="evenodd" stroke-linejoin="round" stroke-miterlimit="2" viewBox="0 0 16 16" xmlns="http://www.w3.org/2000/svg"><path d="m22.63 24.916c0-3.955-1.963-5.933-5.889-5.933-1.113 0-2.087.215-2.922.645s-1.487 1.035-1.956 1.816h-.219c.117-1.054.175-2.045.175-2.973v-5.786h-3.442v22.793h3.442v-8.042c0-2.032.34-3.479 1.018-4.344.679-.864 1.741-1.296 3.186-1.296 1.094 0 1.892.308 2.395.923s.755 1.548.755 2.798v9.961h3.457zm18.164 7.529h-10.166v-.146l3.721-3.604c1.67-1.572 2.863-2.82 3.581-3.742.718-.923 1.25-1.819 1.597-2.688.346-.869.52-1.787.52-2.754 0-1.758-.601-3.157-1.802-4.197s-2.798-1.56-4.79-1.56c-1.27 0-2.466.21-3.589.63s-2.28 1.133-3.471 2.138l1.86 2.271c1.006-.791 1.892-1.338 2.659-1.641.766-.302 1.56-.454 2.38-.454 1.025 0 1.828.279 2.41.835.581.557.871 1.319.871 2.285 0 .703-.122 1.363-.366 1.978s-.632 1.272-1.165 1.97c-.532.698-1.613 1.882-3.244 3.552l-5.523 5.552v2.608h14.517z" fill="#0ca4d5" fill-rule="nonzero" transform="matrix(.482604 0 0 .482604 -3.86507 -3.62184)"/></svg>