<svg clip-rule="evenodd" fill-rule="evenodd" stroke-linejoin="round" stroke-miterlimit="2" viewBox="0 0 48 48" xmlns="http://www.w3.org/2000/svg"><g fill-rule="nonzero"><path d="m440 240c0 110.45-89.55 200-200 200s-200-89.55-200-200 89.55-200 200-200 200 89.55 200 200z" fill="#1c9bf5" transform="matrix(.105 0 0 .105 -1.2 -1.2)"/><path d="m.14-.212h.137v-.031c0-.084.132-.096.132-.252 0-.116-.078-.187-.193-.187-.12 0-.196.074-.196.184v.034h.141v-.036c0-.035.02-.057.053-.057s.053.025.053.064c0 .096-.127.094-.127.238zm.071.221c.051 0 .083-.033.083-.082s-.032-.082-.083-.082c-.05 0-.083.033-.083.082s.033.082.083.082z" fill="#fff" transform="matrix(40.5283 0 0 40.5283 15.3067 37.6378)"/></g></svg>