<svg clip-rule="evenodd" fill-rule="evenodd" stroke-linejoin="round" stroke-miterlimit="2" viewBox="0 0 48 48" xmlns="http://www.w3.org/2000/svg"><g fill-rule="nonzero"><path d="m440 260-200-98.182-200 98.182v-80l200-100 200 100z" fill="#0097f6" transform="matrix(0 .045 -.0611111 0 46.8889 25.2)"/><path d="m440 400-200-98.182-200 98.182v-81.818l200-98.182 200 98.182z" fill="#0045a5" transform="matrix(0 .045 -.0611111 0 39.4444 25.2)"/><path d="m440 400-200-98.182-200 98.182v-81.818l200-98.182 200 98.182z" fill="#0065c4" transform="matrix(0 .045 -.0611111 0 47.4444 25.2)"/></g><path d="m6 7h26v4h-26z" fill="#5bb433" transform="matrix(-1.38462 0 0 1 50.3077 10)"/><path d="m36 6h6v6h-6z" fill="#2e7d32" transform="matrix(-1.33333 0 0 1.33333 62 -2)"/></svg>