<svg clip-rule="evenodd" fill-rule="evenodd" stroke-linejoin="round" stroke-miterlimit="2" viewBox="0 0 48 48" xmlns="http://www.w3.org/2000/svg"><path d="m12.667 14.561-6.6-8.561h18.624c1.588 0 2.968.047 4.14.142 1.172.094 2.212.246 3.12.454.907.207 1.711.482 2.41.822.7.34 1.371.775 2.014 1.304 1.474 1.21 2.627 2.732 3.459 4.566s1.248 2.772 1.248 4.813c0 1.929-.359 2.715-1.078 4.36-.718 1.645-1.739 3.053-3.062 4.226-.832.68-1.626 1.191-2.382 1.531-.757.34-1.74.624-2.95.851l10.323 12.931h-11.117l-8.847-12.307v12.307h-9.302v-19h13.93c1.482-.151 2.662-.605 3.539-1.361 1.096-.945 1.645-1.269 1.645-2.97 0-1.626-.624-1.95-1.872-2.97-.567-.416-1.172-.709-1.815-.88-.643-.17-1.512-.255-2.609-.255h-2.695v-.003h-10.123z" fill="#ea7660"/></svg>