<svg clip-rule="evenodd" fill-rule="evenodd" stroke-linejoin="round" stroke-miterlimit="2" viewBox="0 0 48 48" xmlns="http://www.w3.org/2000/svg"><g fill="#ff7100" fill-rule="nonzero"><path d="m-.019-.72v.18h.09v.54h.18v-.72z" transform="matrix(11.1124 0 0 11.1124 7.21147 14.0003)"/><path d="m.05-.72v.18h.27l-.27.27v.27h.45v-.18h-.27l.27-.27v-.18l-.09-.09z" transform="matrix(11.1123 0 0 11.1123 5.43907 27.0002)"/><path d="m.14-.714v.178l.178.002h.089v.088h-.178v.175l.094.003h.084v.089h-.267v.179h.267l.179-.089v-.179l-.089-.089.089-.089v-.177l-.179-.091z" transform="matrix(11.2063 0 0 11.2063 4.4339 40.0012)"/></g><path d="m16 9h26v4h-26z" fill="#0ca4d5" transform="matrix(1 0 0 .99974 0 .002865)"/><path d="m16 9h26v4h-26z" fill="#0ca4d5" transform="matrix(1 0 0 .99974 0 13.0023)"/><path d="m16 9h26v4h-26z" fill="#0ca4d5" transform="matrix(1 0 0 .99974 0 26.0034)"/></svg>