<svg clip-rule="evenodd" fill-rule="evenodd" stroke-linejoin="round" stroke-miterlimit="2" viewBox="0 0 48 48" xmlns="http://www.w3.org/2000/svg"><g fill-rule="nonzero"><path d="m400 410h-320c-22 0-40-18-40-40v-260c0-22 18-40 40-40h320c22 0 40 18 40 40v260c0 22-18 40-40 40z" fill="#ff8000" transform="matrix(.105 0 0 .105882 -1.2 -1.41176)"/><path d="m380 160c0 16.57-13.43 30-30 30s-30-13.43-30-30 13.43-30 30-30 30 13.43 30 30z" fill="#fffacc" transform="matrix(.105 0 0 .105 -1.2 -1.35)"/><path d="m197.143 165.238-109.524 152.381h219.048z" fill="#9b2b08" transform="matrix(.109565 0 0 .105 -1.6 -1.35)"/><path d="m311.429 222.381-80.953 95.238h161.905z" fill="#ce3c0f" transform="matrix(.111176 0 0 .105 -3.62353 -1.35)"/></g></svg>