<svg clip-rule="evenodd" fill-rule="evenodd" stroke-linejoin="round" stroke-miterlimit="2" viewBox="0 0 48 48" xmlns="http://www.w3.org/2000/svg"><g fill="#cb0c58" fill-rule="nonzero"><path d="m77.1 31.7h-9.2c-2.9 0-5.3 2.4-5.3 5.3 0 1.4.5 2.8 1.5 3.8s2.3 1.6 3.8 1.6h9.2c4.1 0 5.6 3.7 5.6 6.8 0 1.8-.7 3.5-1.9 4.7-1.3 1.3-2.9 1.9-4.7 1.9l-19.5-.1c-7.9 0-7.9-3.3-7.9-5 0-2.9-2.4-5.3-5.3-5.3-1.4 0-2.8.6-3.8 1.6s-1.5 2.3-1.5 3.8c0 4.3 1.4 7.9 4.1 10.6 3.2 3.2 8.2 5 14.4 5l19.5.1h-.1c4.6 0 9-1.8 12.2-5.1 3.3-3.3 5.1-7.6 5.1-12.3-.1-10-6.9-17.4-16.2-17.4z" transform="matrix(.554273 0 0 .574713 -3.71363 -5.16356)"/><path d="m32.2 55.7h-8c-3.8 0-6.8-3.1-6.8-6.8 0-1.8.7-3.5 1.9-4.7 1.3-1.3 2.9-1.9 4.7-1.9l18.3.1c3.4 0 9.1.7 9.2 5 0 2.9 2.4 5.3 5.3 5.3 1.4 0 2.8-.6 3.8-1.6s1.5-2.3 1.5-3.8c0-9.4-7.8-15.5-19.7-15.6l-18.4-.2c-4.6 0-9 1.8-12.2 5.1-3.3 3.3-5.1 7.6-5.1 12.3 0 4.6 1.8 9 5.1 12.3s7.7 5.1 12.3 5.1h8c2.9 0 5.3-2.4 5.3-5.3 0-1.4-.5-2.8-1.5-3.8s-2.3-1.5-3.7-1.5z" transform="matrix(.554273 0 0 .574713 -3.71363 -5.1629)"/></g></svg>