<svg clip-rule="evenodd" fill-rule="evenodd" stroke-linejoin="round" stroke-miterlimit="2" viewBox="0 0 48 48" xmlns="http://www.w3.org/2000/svg"><path d="m664.533 406.107h-121.869v-46.214c45.013-34.56 68.551-80.424 68.551-131.624 0-55.196-39.965-100.269-99.019-100.269-59.267 0-99.019 44.86-99.019 100.269 0 50.774 23.538 97.278 68.552 131.624v46.214h-121.87v-46.393l76.168.179c-50.56-33.066-76.168-75.517-76.168-131.624 0-44.8 10.137-82.349 38.084-107.949 27.947-25.813 68.813-38.96 114.253-38.96 46.507 0 86.52 13.573 114.253 38.96 27.947 25.387 38.084 63.576 38.084 107.949 0 56.107-24.968 98.344-76.168 131.624h76.168z" fill="#ffc500" fill-rule="nonzero" transform="matrix(.131288 0 0 .129332 -43.245 -7.52244)"/></svg>