<svg clip-rule="evenodd" fill-rule="evenodd" stroke-linejoin="round" stroke-miterlimit="2" viewBox="0 0 48 48" xmlns="http://www.w3.org/2000/svg"><circle cx="24" cy="24" fill="#34518d" r="22"/><g fill-rule="nonzero"><path d="m24 13c-1.646 0-3 1.354-3 3s1.354 3 3 3 3-1.354 3-3-1.354-3-3-3z" fill="#fff"/><path d="m33.551 18.984c-.157.001-.314.026-.463.075l-6.799 1.941h-4.578l-6.799-1.941c-.144-.044-.293-.066-.443-.065-.818.008-1.486.683-1.486 1.5 0 .674.454 1.27 1.105 1.447l6.912 1.977v4.311l-2.904 7.744c-.068.173-.102.357-.102.543 0 .823.677 1.501 1.5 1.501.63 0 1.196-.397 1.41-.99l3.096-8.256 3.096 8.256c.214.593.78.99 1.41.99.823 0 1.5-.678 1.5-1.501 0-.186-.034-.37-.102-.543l-2.904-7.744v-4.311l6.912-1.977c.669-.164 1.143-.768 1.143-1.456 0-.823-.678-1.501-1.501-1.501z" fill="#fff"/><path d="m37 34-3-2.5 6.8-7.5-6.8-7.5 3-2.5 9 10z" fill="#ffc500"/><path d="m11 34-9-10 9-10 3 2.5-6.9 7.5 6.9 7.5z" fill="#ffc500"/></g></svg>