<svg clip-rule="evenodd" fill-rule="evenodd" stroke-linejoin="round" stroke-miterlimit="2" viewBox="0 0 48 48" xmlns="http://www.w3.org/2000/svg"><path d="m24 3c3.394 0 6.15 2.756 6.15 6.15s-2.756 6.15-6.15 6.15-6.15-2.756-6.15-6.15 2.756-6.15 6.15-6.15zm0 3.15c1.656 0 3 1.344 3 3s-1.344 3-3 3-3-1.344-3-3 1.344-3 3-3z" fill="#0097a8"/><g fill-rule="nonzero" transform="matrix(1.50588 0 0 1.48673 -88.9484 1.88496)"><path d="m76.333 14.875.664 10.089c4.529-.643 6.217-3.766 6.974-5.316l2.052.55-.045.173c-.077.292-.236.77-.494 1.373-.427.996-.987 1.99-1.701 2.923-2.062 2.696-4.964 4.333-8.773 4.333h-.01c-3.809 0-6.711-1.637-8.773-4.333-.714-.933-1.274-1.927-1.701-2.923-.258-.603-.417-1.081-.494-1.373l-.045-.173 2.052-.55c.757 1.55 2.445 4.673 6.974 5.316l.664-10.089h-3.985v-2.69h3.985v-3.364l1.333-1.883 1.323 1.883v3.364h3.985v2.69z" fill="#00bdd6"/><path d="m66.039 19.648-2.052.55-2.927.731 2.656-4.709 5.28 2.691z" fill="#0097a8"/><path d="m86.023 20.198-2.052-.55-2.989-.737 5.312-2.691 2.656 4.709z" fill="#0097a8"/></g></svg>