<svg clip-rule="evenodd" fill-rule="evenodd" stroke-linejoin="round" stroke-miterlimit="2" viewBox="0 0 48 48" xmlns="http://www.w3.org/2000/svg"><g fill-rule="nonzero"><path d="m139.084 238.605s45.846-58.605 100.955-58.605c55.121 0 100.967 58.605 100.967 58.605s-45.858 61.395-100.967 61.395c-55.117 0-100.955-61.395-100.955-61.395z" fill="#fff" transform="matrix(.168381 0 0 .179167 -16.4191 -18.75)"/><path d="m240.039 182.857c55.121 0 100.967 57.143 100.967 57.143s-45.852 57.143-100.961 57.143c-55.117 0-100.961-57.143-100.961-57.143s45.838-57.143 100.955-57.143m0-22.857c-64.379 0-113.73 65.27-115.801 68.051l-8.91 11.949 8.91 11.949c2.071 2.781 51.41 68.051 115.801 68.051s113.742-65.27 115.801-68.051l8.922-11.949-8.922-11.949c-2.059-2.781-51.418-68.051-115.801-68.051z" fill="#93aab5" transform="matrix(.168381 0 0 .175 -16.4191 -18)"/><path d="m289.941 240c0-27.613-22.343-50-49.902-50s-49.898 22.387-49.898 50 22.339 50 49.898 50 49.902-22.387 49.902-50z" fill="#00bb93" transform="matrix(.160319 0 0 .16 -14.4839 -14.4)"/><path d="m260 240c0 11.023-8.937 19.961-19.961 19.961-11.023 0-19.961-8.938-19.961-19.961s8.938-19.961 19.961-19.961c11.024 0 19.961 8.938 19.961 19.961z" fill="#255c48" transform="matrix(.150294 0 0 .150294 -12.0773 -12.0705)"/></g></svg>