<svg clip-rule="evenodd" fill-rule="evenodd" stroke-linejoin="round" stroke-miterlimit="2" viewBox="0 0 48 48" xmlns="http://www.w3.org/2000/svg"><g fill-rule="nonzero"><path d="m41.951 33.402c-2.819 0-5.104-2.67-5.104-5.963s2.285-5.963 5.104-5.963c1.143 0 2.198.439 3.049 1.18v-11.636h-11.687c.748-.836 1.19-1.872 1.19-2.993 0-2.776-2.711-5.027-6.055-5.027-3.345 0-6.056 2.251-6.056 5.027 0 1.121.442 2.157 1.19 2.993h-12.966v11.308c-.741-.491-1.598-.773-2.512-.773-2.819 0-5.104 2.669-5.104 5.963 0 3.293 2.285 5.963 5.104 5.963.914 0 1.771-.282 2.512-.773v12.292h34.384v-12.778c-.851.741-1.906 1.18-3.049 1.18z" fill="#e35917"/><path d="m21.61 28.62h2.02c1.84 0 2.84.761 2.84 2.36 0 1.32-.42 2.56-2.98 2.56-1.24 0-2.32-.44-3.32-.92l-.68 1.32c1.2.76 2.58 1.22 4.02 1.22 3.46 0 4.62-2.02 4.62-4.16 0-1.619-.76-2.94-2.04-3.34 1.3-.58 1.68-1.8 1.68-3.08 0-2.26-1.42-3.74-4.2-3.74-1.24 0-2.46.38-3.72 1.18l.7 1.3c.96-.48 1.9-.86 3-.86 1.72 0 2.52.86 2.52 2.38 0 1.62-1.18 2.26-2.44 2.26h-2.02z" fill="#fff"/></g></svg>