<svg clip-rule="evenodd" fill-rule="evenodd" stroke-linejoin="round" stroke-miterlimit="2" viewBox="0 0 48 48" xmlns="http://www.w3.org/2000/svg"><g fill-rule="nonzero"><path d="m41.951 33.402c-2.819 0-5.104-2.67-5.104-5.963s2.285-5.963 5.104-5.963c1.143 0 2.198.439 3.049 1.18v-11.636h-11.687c.748-.836 1.19-1.872 1.19-2.993 0-2.776-2.711-5.027-6.055-5.027-3.345 0-6.056 2.251-6.056 5.027 0 1.121.442 2.157 1.19 2.993h-12.966v11.308c-.741-.491-1.598-.773-2.512-.773-2.819 0-5.104 2.669-5.104 5.963 0 3.293 2.285 5.963 5.104 5.963.914 0 1.771-.282 2.512-.773v12.292h34.384v-12.778c-.851.741-1.906 1.18-3.049 1.18z" fill="#6c513c"/><path d="m23.77 33.54c-1.14 0-2.26-.4-3.06-.84l-.68 1.38c1.12.7 2.34 1.08 3.66 1.08 3.36 0 4.84-2.34 4.84-5.56v-4c0-2.8-1.78-4.76-4.52-4.76-3 0-4.54 1.98-4.54 4.72 0 2.821 1.64 4.56 4.3 4.56 1.56 0 2.56-.8 3.06-1.32v1.28c0 2.12-1.04 3.46-3.06 3.46zm.24-11.08c1.7 0 2.82 1.02 2.82 3.14v1.621c-.58.739-1.64 1.399-2.82 1.399-1.68 0-2.84-.96-2.84-3.06 0-2.12 1.16-3.1 2.84-3.1z" fill="#fff"/></g></svg>