<svg clip-rule="evenodd" fill-rule="evenodd" stroke-linejoin="round" stroke-miterlimit="2" viewBox="0 0 48 48" xmlns="http://www.w3.org/2000/svg"><g fill-rule="nonzero"><path d="m41.951 33.402c-2.819 0-5.104-2.67-5.104-5.963s2.285-5.963 5.104-5.963c1.143 0 2.198.439 3.049 1.18v-11.636h-11.687c.748-.836 1.19-1.872 1.19-2.993 0-2.776-2.711-5.027-6.055-5.027-3.345 0-6.056 2.251-6.056 5.027 0 1.121.442 2.157 1.19 2.993h-12.966v11.308c-.741-.491-1.598-.773-2.512-.773-2.819 0-5.104 2.669-5.104 5.963 0 3.293 2.285 5.963 5.104 5.963.914 0 1.771-.282 2.512-.773v12.292h34.384v-12.778c-.851.741-1.906 1.18-3.049 1.18z" fill="#566351"/><path d="m24 33.6c-1.72 0-2.92-.88-2.92-2.36 0-1.26.74-2.18 2.92-2.8 2.18.62 2.92 1.54 2.92 2.8 0 1.48-1.2 2.36-2.92 2.36zm0-6.42c-1.32-.6-2.56-1.24-2.56-2.7 0-1.22.86-2.1 2.56-2.1s2.56.88 2.56 2.1c0 1.46-1.24 2.1-2.56 2.7zm0-6.34c-2.62 0-4.24 1.58-4.24 3.64 0 1.44.88 2.5 2.32 3.22-1.64.74-2.66 1.76-2.66 3.62 0 2.42 1.74 3.84 4.58 3.84s4.58-1.42 4.58-3.84c0-1.86-1.02-2.88-2.66-3.62 1.44-.72 2.32-1.78 2.32-3.22 0-2.06-1.62-3.64-4.24-3.64z" fill="#fff"/></g></svg>