<svg clip-rule="evenodd" fill-rule="evenodd" stroke-linejoin="round" stroke-miterlimit="2" viewBox="0 0 48 48" xmlns="http://www.w3.org/2000/svg"><g fill-rule="nonzero"><path d="m41.951 33.402c-2.819 0-5.104-2.67-5.104-5.963s2.285-5.963 5.104-5.963c1.143 0 2.198.439 3.049 1.18v-11.636h-11.687c.748-.836 1.19-1.872 1.19-2.993 0-2.776-2.711-5.027-6.055-5.027-3.345 0-6.056 2.251-6.056 5.027 0 1.121.442 2.157 1.19 2.993h-12.966v11.308c-.741-.491-1.598-.773-2.512-.773-2.819 0-5.104 2.669-5.104 5.963 0 3.293 2.285 5.963 5.104 5.963.914 0 1.771-.282 2.512-.773v12.292h34.384v-12.778c-.851.741-1.906 1.18-3.049 1.18z" fill="#b92b51"/><path d="m28.07 35v-1.66h-6.4c0-3.2 6.44-4.78 6.44-8.7 0-2.48-1.82-3.8-4.42-3.8-1.7 0-3.12.72-3.88 1.2l.72 1.36c.98-.52 2.02-.94 3.14-.94 1.66 0 2.74.62 2.74 2.3 0 2.66-6.52 4.78-6.52 8.8v1.44z" fill="#fff"/></g></svg>