<svg clip-rule="evenodd" fill-rule="evenodd" stroke-linejoin="round" stroke-miterlimit="2" viewBox="0 0 48 48" xmlns="http://www.w3.org/2000/svg"><g fill="#ff7100"><path d="m308.388 65.441 132.707 23.4-116.519 106.514z" fill-rule="nonzero" transform="matrix(-.0180408 -.102314 .102314 -.0180408 3.86796 52.7332)"/><path d="m178.521 413.946-142.186-25.071 116.519-106.514z" fill-rule="nonzero" transform="matrix(-.0180408 -.102314 .102314 -.0180408 3.86796 52.7332)"/><path d="m8 24c0 8.831 7.169 16 16 16 4.798 0 9.105-2.116 12.039-5.466l3.762 3.292c-3.85 4.396-9.504 7.174-15.801 7.174-11.59 0-21-9.41-21-21zm.199-13.826c3.85-4.396 9.504-7.174 15.801-7.174 11.59 0 21 9.41 21 21h-5c0-8.831-7.169-16-16-16-4.798 0-9.105 2.116-12.039 5.466z"/></g></svg>