<svg clip-rule="evenodd" fill-rule="evenodd" stroke-linejoin="round" stroke-miterlimit="2" viewBox="0 0 16 16" xmlns="http://www.w3.org/2000/svg"><g fill="#1b9af8"><path d="m15.959 8c-.008 2.598-1.26 4.905-3.192 6.356l-1.167-1.557c1.457-1.095 2.4-2.838 2.4-4.799z"/><path d="m3.195 1.594 1.205 1.607c-1.457 1.095-2.4 2.838-2.4 4.799h-2v-.023c0-2.609 1.256-4.927 3.195-6.383z"/><path d="m2.333 14h3.334v-3.333z" fill-rule="nonzero" transform="matrix(-1.3 0 0 1.3 17.7 -3.2)"/><path d="m13.667 2h-3.334v3.333z" fill-rule="nonzero" transform="matrix(-1.3 0 0 1.3 19.1 -1.6)"/></g><path d="m2.333 14h3.334v-3.333z" fill="#ea4b4b" fill-rule="nonzero" transform="matrix(0 1.3 1.3 0 -3.19657 -1.70343)"/><path d="m13.667 2h-3.334v3.333z" fill="#ea4b4b" fill-rule="nonzero" transform="matrix(0 1.3 1.3 0 -1.59657 -3.10343)"/><path d="m3.201 11.6c1.095 1.457 2.838 2.4 4.799 2.4v1.953h-.021c-2.597 0-4.906-1.243-6.363-3.165z" fill="#ea4b4b"/><path d="m8 0c2.611.007 4.929 1.269 6.38 3.215l-1.581 1.185c-1.095-1.457-2.838-2.4-4.799-2.4z" fill="#ea4b4b"/></svg>