<svg clip-rule="evenodd" fill-rule="evenodd" stroke-linejoin="round" stroke-miterlimit="2" viewBox="0 0 16 16" xmlns="http://www.w3.org/2000/svg"><g fill="#ff7e00"><path d="m15 39.5c0-.828-.602-1.5-1.343-1.5h-8.314c-.741 0-1.343.672-1.343 1.5v3c0 .828.602 1.5 1.343 1.5h8.314c.741 0 1.343-.672 1.343-1.5z" transform="matrix(.426295 .426114 -.381797 .381635 24.4495 -6.85517)"/><path d="m12.959 6.477c0 3.574-2.903 6.476-6.48 6.476-1.695 0-3.24-.652-4.396-1.72l1.348-1.447c.802.739 1.873 1.191 3.048 1.191 2.484 0 4.5-2.017 4.5-4.5zm-12.959 0c0-3.575 2.903-6.477 6.479-6.477 1.714 0 3.274.667 4.433 1.755l-1.348 1.447c-.805-.76-1.891-1.225-3.085-1.225-2.483 0-4.5 2.016-4.5 4.5z"/><g fill-rule="nonzero"><path d="m12.49 9.84-2.69 12.706h13.912z" transform="matrix(-.356421 0 0 .311113 16.4516 -3.06131)"/><path d="m12.186 9.325-2.806 12.858h14.028z" transform="matrix(.356421 0 0 -.311113 -3.34327 15.9013)"/></g></g></svg>