<svg clip-rule="evenodd" fill-rule="evenodd" stroke-linejoin="round" stroke-miterlimit="2" viewBox="0 0 16 16" xmlns="http://www.w3.org/2000/svg"><g fill="#ea4b4b"><path d="m2.333 14h3.334v-3.333z" fill-rule="nonzero" transform="matrix(0 -1.3 -1.3 0 19.1966 17.6966)"/><path d="m13.667 2h-3.334v3.333z" fill-rule="nonzero" transform="matrix(0 -1.3 -1.3 0 17.5966 19.0966)"/><path d="m13.121 1.855c1.759 1.468 2.879 3.677 2.879 6.145 0 4.304-3.405 7.818-7.667 7.993l-.041-2c3.176-.152 5.708-2.779 5.708-5.993 0-1.851-.84-3.508-2.159-4.609zm-5.121-1.855.042 2c-.014 0-.028 0-.042 0-3.312 0-6 2.688-6 6 0 1.851.84 3.508 2.159 4.609l-1.28 1.536c-1.759-1.468-2.879-3.677-2.879-6.145 0-4.416 3.584-8 8-8z" transform="matrix(0 -1 -1 0 15.9966 15.9966)"/></g></svg>