<svg clip-rule="evenodd" fill-rule="evenodd" stroke-linejoin="round" stroke-miterlimit="2" viewBox="0 0 48 48" xmlns="http://www.w3.org/2000/svg"><path d="m42 12h-3v-3h-3v-3h6zm-33 0h-3v-6h6v3h-3zm33 24h-3v3h-3v3h6zm-36-20h3v6h-3zm33 0h3v6h-3zm0 10h3v6h-3zm-13-20h6v3h-6zm-10 0h6v3h-6zm10 33h6v3h-6z" fill="#b5c3c9" fill-rule="nonzero"/><path d="m28.122 17.122-4.122-4.122h11v11l-4.05-4.05-2.95 2.878-2.828-2.828z" fill="#2196f0"/><path d="m6 24h18v18h-18z" fill="#1566c0" fill-rule="nonzero"/></svg>