<svg clip-rule="evenodd" fill-rule="evenodd" stroke-linejoin="round" stroke-miterlimit="2" viewBox="0 0 48 48" xmlns="http://www.w3.org/2000/svg"><path d="m34.794 12.206c-2.844-2.61-6.63-4.206-10.794-4.206-8.837 0-16 7.163-16 16 0 .449.031.89.067 1.329l-3.985.328c-.045-.543-.082-1.098-.082-1.657 0-11.028 8.972-20 20-20 5.262 0 10.047 2.048 13.617 5.383l3.383-3.383v10h-10zm-20.384 24.58c1.144.859 2.402 1.569 3.754 2.099l-1.454 3.712c-1.686-.67-3.265-1.546-4.692-2.623zm-5.3-6.96c.552 1.408 1.297 2.715 2.203 3.896l-3.16 2.424c-1.135-1.476-2.072-3.108-2.763-4.864zm14.89 10.174c.34 0 .673-.03 1.008-.051l.25 3.985c-.415.029-.834.066-1.258.066-.81 0-1.599-.066-2.38-.157l.476-3.967c.625.075 1.258.124 1.904.124zm4.834-.747c.811-.257 1.588-.588 2.337-.964l1.801 3.582c-.938.468-1.916.871-2.932 1.192zm9.385-7.938c.396-.768.736-1.568 1.005-2.402l3.798 1.226c-.333 1.036-.753 2.039-1.246 2.993zm5.711-8.627c.033.436.07.868.07 1.312 0 .567-.033 1.131-.078 1.69l-3.99-.344c.037-.445.068-.892.068-1.346 0-.356-.03-.704-.053-1.054zm-9.518 13.445c.643-.552 1.244-1.152 1.792-1.799l3.055 2.569c-.686.81-1.439 1.566-2.249 2.257z" fill="#2196f3"/></svg>