<svg clip-rule="evenodd" fill-rule="evenodd" stroke-linejoin="round" stroke-miterlimit="2" viewBox="0 0 48 48" xmlns="http://www.w3.org/2000/svg"><path d="m13.206 12.206 3.794 3.794h-10v-10l3.383 3.383c3.57-3.335 8.355-5.383 13.617-5.383 11.028 0 20 8.972 20 20 0 .559-.037 1.114-.082 1.657l-3.985-.328c.036-.439.067-.88.067-1.329 0-8.837-7.163-16-16-16-4.164 0-7.95 1.596-10.794 4.206zm20.384 24.58 2.392 3.188c-1.427 1.077-3.006 1.953-4.692 2.623l-1.454-3.712c1.352-.53 2.61-1.24 3.754-2.099zm5.3-6.96 3.72 1.456c-.691 1.756-1.628 3.388-2.763 4.864l-3.16-2.424c.906-1.181 1.651-2.488 2.203-3.896zm-14.89 10.174c.646 0 1.279-.049 1.904-.124l.476 3.967c-.781.091-1.57.157-2.38.157-.424 0-.843-.037-1.258-.066l.25-3.985c.335.021.668.051 1.008.051zm-4.834-.747-1.206 3.81c-1.016-.321-1.994-.724-2.932-1.192l1.801-3.582c.749.376 1.526.707 2.337.964zm-9.385-7.938-3.557 1.817c-.493-.954-.913-1.957-1.246-2.993l3.798-1.226c.269.834.609 1.634 1.005 2.402zm-5.711-8.627 3.983.258c-.023.35-.053.698-.053 1.054 0 .454.031.901.068 1.346l-3.99.344c-.045-.559-.078-1.123-.078-1.69 0-.444.037-.876.07-1.312zm9.518 13.445-2.598 3.027c-.81-.691-1.563-1.447-2.249-2.257l3.055-2.569c.548.647 1.149 1.247 1.792 1.799z" fill="#2196f0"/></svg>