<svg clip-rule="evenodd" fill-rule="evenodd" stroke-linejoin="round" stroke-miterlimit="2" viewBox="0 0 48 48" xmlns="http://www.w3.org/2000/svg"><g fill="#3498db"><path d="m15 39.5c0-.828-.602-1.5-1.343-1.5h-8.314c-.741 0-1.343.672-1.343 1.5v3c0 .828.602 1.5 1.343 1.5h8.314c.741 0 1.343-.672 1.343-1.5z" transform="matrix(1.11848 1.11848 -1.00173 1.00173 67.1486 -14.9937)"/><path d="m20 3c9.383 0 17 7.617 17 17s-7.617 17-17 17-17-7.617-17-17 7.617-17 17-17zm0 4c7.175 0 13 5.825 13 13s-5.825 13-13 13-13-5.825-13-13 5.825-13 13-13z"/><path d="m340 60c-41.762 0-78.52 17.652-100 50-21.488-32.348-58.238-50-100-50-66.27 0-120 43.73-120 120 0 119.43 220 240 220 240s220-119.551 220-240c0-76.27-53.73-120-120-120" fill-rule="nonzero" transform="matrix(.0454545 0 0 .0454545 9.09091 10.2727)"/></g></svg>