<svg clip-rule="evenodd" fill-rule="evenodd" stroke-linejoin="round" stroke-miterlimit="2" viewBox="0 0 48 48" xmlns="http://www.w3.org/2000/svg"><g fill-rule="nonzero"><path d="m80 79.412h320v370.588h-320z" fill="#91c7f9" transform="matrix(.1 0 0 .0431746 3 25.5714)"/><path d="m80 79.412h320v370.588h-320z" fill="#91c7f9" transform="matrix(.1 0 0 .0431746 3 -.428571)"/><path d="m150 290h180v20h-180z" fill="#1e76d5" transform="matrix(.0888889 0 0 .1 5.66667 10)"/><path d="m19 35h14v2h-14z" fill="#1e76d5" stroke-width=".1"/><path d="m150 290h180v20h-180z" fill="#1e76d5" transform="matrix(.0722222 0 0 .1 8.16667 -18)"/><path d="m150 290h180v20h-180z" fill="#00bd9c" transform="matrix(.0333333 0 0 .2 10 -36)"/><path d="m150 290h180v20h-180z" fill="#00bd9c" transform="matrix(.0333333 0 0 .2 22 -36)"/><path d="m150 290h180v20h-180z" fill="#00bd9c" transform="matrix(.0333333 0 0 .2 34 -36)"/><path d="m150 330h140v20h-140z" fill="#1e76d5" transform="matrix(.121429 0 0 .1 .785714 -26)"/></g><path d="m10.5 20 3.5 4h-7z" fill="#00bd9c" transform="matrix(0 2 -2.25 0 57 3)"/></svg>