<svg clip-rule="evenodd" fill-rule="evenodd" stroke-linejoin="round" stroke-miterlimit="2" viewBox="0 0 48 48" xmlns="http://www.w3.org/2000/svg"><path d="m35.5 34-3-2.5 6.8-7.5-6.8-7.5 3-2.5 9 10z" fill="#0ca4d5" fill-rule="nonzero" transform="translate(.5)"/><path d="m12.5 34-9-10 9-10 3 2.5-6.9 7.5 6.9 7.5z" fill="#0ca4d5" fill-rule="nonzero" transform="translate(-.5)"/><g fill="#f74d3f"><path d="m45 12c0-1.104-.976-2-2.178-2h-32.644c-1.202 0-2.178.896-2.178 2v4c0 1.104.976 2 2.178 2h32.644c1.202 0 2.178-.896 2.178-2z" transform="matrix(.372728 -.372728 .405869 .405869 8.39729 28.1519)"/><path d="m45 12c0-1.104-.976-2-2.178-2h-32.644c-1.202 0-2.178.896-2.178 2v4c0 1.104.976 2 2.178 2h32.644c1.202 0 2.178-.896 2.178-2z" transform="matrix(-.372728 -.372728 -.405869 .405869 39.5162 28.1519)"/></g></svg>