<svg clip-rule="evenodd" fill-rule="evenodd" stroke-linejoin="round" stroke-miterlimit="2" viewBox="0 0 48 48" xmlns="http://www.w3.org/2000/svg"><path d="m18 22h-5v-4h5v-5h4v5h5v4h-5v5h-4z" fill="#2196f0"/><path d="m29.811 32.64c-2.709 2.106-6.114 3.36-9.811 3.36-8.837 0-16-7.163-16-16s7.163-16 16-16 16 7.163 16 16c0 3.698-1.254 7.103-3.361 9.812l2.667 2.667 8.694 8.693-2.829 2.829-8.693-8.693zm-22.811-12.64c0 7.18 5.82 13 13 13s13-5.82 13-13-5.82-13-13-13-13 5.82-13 13z" fill="#808080"/></svg>