<svg clip-rule="evenodd" fill-rule="evenodd" stroke-linejoin="round" stroke-miterlimit="2" viewBox="0 0 24 24" xmlns="http://www.w3.org/2000/svg"><g fill="#1abc9c" fill-rule="nonzero"><path d="m15.986 3-2.002 2.002c-.732.006-1.363.407-1.707.998h-5.451c-.399-1.181-1.482-2-2.826-2-1.7 0-3 1.3-3 3 0 1.473.977 2.643 2.344 2.93l1.219 7.07h-1.563c-1.1 0-2 .9-2 2v4h10v-4c0-1.1-.9-2-2-2h-1.437l-1.528-7.779c.359-.328.63-.744.791-1.221h5.451c.344.591.975.992 1.707.998l2.002 2.002h5.014v-2h-4.186l-2-2 2-2h4.186v-2zm-11.986 3c.598 0 1 .402 1 1s-.402 1-1 1-1-.402-1-1 .402-1 1-1zm-1 13h6v2h-6z" transform="translate(1 -1)"/><path d="m16 14h-4v-2h2c1.1 0 2-.89 2-2v-2c0-1.11-.9-2-2-2h-4v2h4v2h-2c-1.1 0-2 .89-2 2v4h6z" transform="translate(6 6)"/></g></svg>