<svg clip-rule="evenodd" fill-rule="evenodd" stroke-linejoin="round" stroke-miterlimit="2" viewBox="0 0 24 24" xmlns="http://www.w3.org/2000/svg"><g fill-rule="nonzero"><path d="m16 14h-4v-2h2c1.1 0 2-.89 2-2v-2c0-1.11-.9-2-2-2h-4v2h4v2h-2c-1.1 0-2 .89-2 2v4h6z" fill="#1abc9c" transform="translate(-8 6)"/><path d="m15.083 10.864-.738-.517c-.621.287-1.368.254-1.971-.161l-2.788.491-4.107-2.876 1.147-1.638 3.429 2.401 2.785-.491-.491-2.786-3.429-2.401 1.147-1.638 4.108 2.876.491 2.788c.596.425.883 1.116.826 1.797l.817.572c.473-.307 1.037-.486 1.643-.486 1.669 0 3.024 1.355 3.024 3.023 0 .344-.058.675-.164.983-.313.973-1.097 1.703-2.106 1.946-.029.007-.059.015-.089.021l-.18 1.232h1.563c1.1 0 2 .9 2 2v4h-10v-4c0-1.1.9-2 2-2h1.437l.488-1.939c-.611-.554-.996-1.354-.996-2.243 0-.333.054-.654.154-.954zm4.917 7.136h-6v2h6zm-1.952-7.16-.192.001c-.458.047-.824.403-.887.856-.005.045-.008.092-.008.14 0 .044.002.088.007.13.064.49.484.869.991.869.552 0 1-.448 1-1 0-.522-.401-.951-.911-.996z" fill="#1dbc9c"/></g></svg>