<svg clip-rule="evenodd" fill-rule="evenodd" stroke-linejoin="round" stroke-miterlimit="2" viewBox="0 0 24 24" xmlns="http://www.w3.org/2000/svg"><path d="m0 0h24v24h-24z" fill="none"/><g fill="#1abc9c" fill-rule="nonzero"><path d="m.493-.318c0-.119-.076-.184-.213-.184-.094 0-.165.029-.213.087l.08.069c.031-.037.072-.056.123-.056.07 0 .105.03.105.089v.017h-.141c-.119 0-.185.055-.185.152s.066.156.175.156c.077 0 .132-.032.159-.092v.08h.11zm-.119.11c-.007.077-.052.122-.127.122-.049 0-.078-.022-.078-.061s.026-.061.071-.061z" transform="matrix(17.0418 0 0 17.0418 12.0992 17.9949)"/><path d="m.412 0h.122l-.191-.66h-.126l-.191.66h.115l.039-.141h.193zm-.204-.245.069-.273.068.273z" transform="matrix(17.0418 0 0 17.0418 2.5558 17.9949)"/></g></svg>