<svg clip-rule="evenodd" fill-rule="evenodd" stroke-linejoin="round" stroke-miterlimit="2" viewBox="0 0 24 24" xmlns="http://www.w3.org/2000/svg"><path d="m0 0h24v24h-24z" fill="none"/><g fill="#1abc9c" fill-rule="nonzero"><path d="m2 4v8h2v-6h18l-4-5.001v3.001z"/><path d="m2 4v8h2v-6h18l-4-5.001v3.001z" transform="matrix(-1 0 0 -1 24 24)"/><g transform="matrix(.665949 0 0 .665949 -5.16114 -2.56828)"><path d="m21.826 25.403c-.34.137-.669.239-.987.305-.319.066-.65.1-.993.1-.551 0-1.038-.081-1.462-.244-.424-.162-.782-.403-1.073-.723-.291-.321-.511-.718-.662-1.193-.15-.474-.225-1.026-.225-1.655 0-.644.082-1.218.246-1.72s.398-.925.703-1.271.675-.609 1.11-.791c.436-.182.925-.273 1.468-.273.176 0 .341.004.495.012s.306.023.454.044c.149.022.299.05.451.085.153.035.311.08.475.135v1.43c-.332-.157-.648-.268-.949-.334-.301-.067-.574-.1-.82-.1-.364 0-.674.065-.932.196s-.47.315-.636.551-.288.518-.366.844-.117.684-.117 1.075c0 .414.04.784.12 1.11s.204.603.372.829c.168.227.383.4.644.519.262.119.573.179.932.179.129 0 .269-.013.419-.038.15-.026.303-.059.457-.1s.307-.09.457-.147c.151-.056.29-.114.419-.172z"/><path d="m28.517 23.388c0 .418-.077.781-.231 1.09-.154.308-.37.563-.647.764-.278.201-.608.351-.991.448-.382.098-.8.147-1.254.147-.402 0-.791-.024-1.166-.07-.375-.047-.746-.125-1.113-.235v-1.424c.18.063.367.121.563.176.195.055.391.103.589.144.197.041.393.073.588.096.196.024.385.036.569.036.273 0 .506-.024.697-.071s.348-.111.469-.193.209-.18.263-.293c.055-.113.082-.238.082-.375 0-.188-.053-.345-.161-.472-.107-.127-.249-.239-.424-.337-.176-.097-.376-.185-.601-.263s-.453-.162-.686-.252c-.232-.09-.461-.192-.685-.305-.225-.113-.425-.254-.601-.422s-.317-.368-.425-.6c-.107-.233-.161-.513-.161-.841 0-.301.055-.586.164-.856.11-.269.282-.505.516-.706s.535-.361.902-.48c.368-.119.811-.179 1.33-.179.153 0 .312.007.478.021.166.013.33.031.492.052.162.022.319.047.469.076.15.03.288.06.413.091v1.319c-.125-.047-.262-.09-.41-.129-.149-.039-.302-.074-.46-.103s-.318-.052-.478-.067c-.16-.016-.312-.024-.457-.024-.254 0-.468.021-.644.062s-.321.098-.434.17-.195.161-.246.266c-.051.106-.076.223-.076.352 0 .16.054.298.161.413s.25.219.428.311c.178.091.379.177.603.257.225.08.455.166.692.258.236.092.466.197.691.314s.426.259.604.427c.177.168.32.367.427.595.108.229.161.499.161.812z"/><path d="m35.115 23.388c0 .418-.077.781-.231 1.09-.155.308-.37.563-.648.764-.277.201-.607.351-.99.448-.383.098-.801.147-1.254.147-.402 0-.791-.024-1.166-.07-.375-.047-.746-.125-1.113-.235v-1.424c.179.063.367.121.562.176.196.055.392.103.589.144s.394.073.589.096c.195.024.385.036.568.036.274 0 .506-.024.698-.071.191-.047.347-.111.468-.193s.209-.18.264-.293.082-.238.082-.375c0-.188-.054-.345-.161-.472s-.249-.239-.425-.337c-.176-.097-.376-.185-.6-.263-.225-.078-.454-.162-.686-.252s-.461-.192-.686-.305c-.224-.113-.424-.254-.6-.422s-.317-.368-.425-.6c-.107-.233-.161-.513-.161-.841 0-.301.055-.586.164-.856.109-.269.281-.505.516-.706.234-.201.535-.361.902-.48s.811-.179 1.33-.179c.152 0 .312.007.478.021.166.013.33.031.492.052.162.022.318.047.469.076.15.03.288.06.413.091v1.319c-.125-.047-.262-.09-.411-.129-.148-.039-.301-.074-.459-.103-.159-.029-.318-.052-.478-.067-.16-.016-.313-.024-.457-.024-.254 0-.469.021-.645.062-.175.041-.32.098-.433.17s-.195.161-.246.266c-.051.106-.076.223-.076.352 0 .16.053.298.161.413.107.115.25.219.427.311.178.091.379.177.604.257s.455.166.691.258c.237.092.467.197.692.314.224.117.426.259.603.427.178.168.321.367.428.595.107.229.161.499.161.812z"/></g></g></svg>