<svg clip-rule="evenodd" fill-rule="evenodd" viewBox="0 0 24 24" xmlns="http://www.w3.org/2000/svg"><path d="m0 0h24v24h-24z" fill="none"/><path d="m15 18.667c0 .733-.6 1.333-1.333 1.333h-4.667v-2h4v-1.333h-2.667v-1.334h2.667v-1.333h-4v-2h4.667c.733 0 1.333.6 1.333 1.333z" fill="#1abc9c" fill-rule="nonzero" transform="translate(0 -2)"/><path d="m19 20c0 .551-.449 1-1 1h-12c-.551 0-1-.449-1-1v-16c0-.551.449-1 1-1h7.586l5.414 5.414z" fill="none" stroke="#1abc9c" stroke-width="2"/><path d="m18.5 9h-5.5v-5.5z" fill="#1abc9c" fill-rule="nonzero"/></svg>