<svg clip-rule="evenodd" fill-rule="evenodd" stroke-linejoin="round" stroke-miterlimit="2" viewBox="0 0 24 24" xmlns="http://www.w3.org/2000/svg"><path d="m0 0h24v24h-24z" fill="none"/><g fill="#1abc9c"><path d="m3 17.25v3.75h3.75l11.06-11.06-3.75-3.75zm17.71-10.21c.39-.39.39-1.02 0-1.41l-2.34-2.34c-.39-.39-1.02-.39-1.41 0l-1.83 1.83 3.75 3.75z" fill-rule="nonzero"/><path d="m16.4 13.471 4.602 7.529-.006-.002.004.002h-7l-1.945-3.184 1.539-1.539 1.713 2.723h2.155l-2.483-4.108zm-8.799-2.943-4.598-7.526-.003-.002h.002l-.002-.002.004.002h6.996l1.946 3.183-1.391 1.39-1.555-2.573h-2.5l2.56 4.069z"/></g></svg>