<svg clip-rule="evenodd" fill-rule="evenodd" stroke-linejoin="round" stroke-miterlimit="2" viewBox="0 0 24 24" xmlns="http://www.w3.org/2000/svg"><path d="m0 0h24v24h-24z" fill="none"/><g fill="#1abc9c" fill-rule="nonzero"><path d="m21 16.5c.83 0 1.5.68 1.5 1.5s-.68 1.5-1.5 1.5-1.5-.68-1.5-1.5.67-1.5 1.5-1.5z" transform="translate(0 -9)"/><path d="m4 17h14v2h-14z" transform="matrix(1.07143 0 0 1 -2.28571 -9)"/><path d="m21 10.5c.83 0 1.5.67 1.5 1.5s-.67 1.5-1.5 1.5-1.5-.67-1.5-1.5.67-1.5 1.5-1.5z" transform="translate(0 -8)"/><path d="m4 11h14v2h-14z" transform="matrix(1.07143 0 0 1 -2.28571 -8)"/><path d="m13.171 4.829 2 2-6.171 6.171h-2v-2zm1.708-1.708-1 1 2 2 1-1c.195-.195.195-.512 0-.707l-1.293-1.293c-.196-.195-.512-.195-.707 0z" transform="matrix(1 0 0 -1 5 25)"/></g></svg>