<svg clip-rule="evenodd" fill-rule="evenodd" stroke-linejoin="round" stroke-miterlimit="2" viewBox="0 0 24 24" xmlns="http://www.w3.org/2000/svg"><path d="m0 0h24v24h-24z" fill="none"/><g fill="#1abc9c"><path d="m7 5h-2v2h-2v-2c0-1.104.896-2 2-2h2z"/><path d="m5 11v-2h-2v2z"/><path d="m5 15v-2h-2v2z"/><path d="m5 19h2v2h-2c-1.104 0-2-.896-2-2v-2h2z"/><path d="m11 19h-2v2h2z"/><path d="m15 19h-2v2h2z"/><path d="m21 17v2c0 1.104-.896 2-2 2h-2v-2h2v-2z"/><path d="m18.99 12.894.01 2.111 2-.01-.01-2.111z"/><path d="m19 9v2h2v-2z"/><path d="m17 3h2c1.104 0 2 .896 2 2v2h-2v-2h-2z"/><path d="m13 5h2v-2h-2z"/><path d="m9 5h2v-2h-2z"/><path d="m7 9h10v-2h-10z"/><path d="m7 17h10v-2h-10z"/><path d="m7 13h7v-2h-7z"/></g></svg>