<svg clip-rule="evenodd" fill-rule="evenodd" stroke-linejoin="round" stroke-miterlimit="2" viewBox="0 0 16 16" xmlns="http://www.w3.org/2000/svg"><path d="m9.854 11.161c-.919.662-2.045 1.052-3.261 1.052-3.087 0-5.593-2.512-5.593-5.606 0-3.095 2.506-5.607 5.593-5.607 3.086 0 5.592 2.512 5.592 5.607 0 1.208-.382 2.328-1.032 3.244l.012.001c-.016.022-.031.043-.047.065l3.882 3.89-1.193 1.193-3.89-3.882c-.021.015-.042.031-.063.046zm-3.261-8.554c2.207 0 4 1.792 4 4 0 2.207-1.793 4-4 4-2.208 0-4-1.793-4-4 0-2.208 1.792-4 4-4z" fill="#1abc9c"/></svg>