<svg enable-background="new 0 0 24 24" viewBox="0 0 24 24" xmlns="http://www.w3.org/2000/svg"><path d="m0 0h24v24h-24z" fill="none"/><path d="m6.85 7.08c0-2.71 2.6-4.08 5.39-4.08 1.64 0 3 .49 3.9 1.28.77.65 1.46 1.73 1.46 3.24h-3.01c0-.31-.05-.59-.15-.85-.29-.86-1.2-1.28-2.25-1.28-1.86 0-2.34 1.02-2.34 1.7 0 .48.25.88.74 1.21.38.25.77.48 1.41.7h-4.61c-.21-.34-.54-.89-.54-1.92zm14.15 4.92v-2h-18v2h9.62c1.15.45 1.96.75 1.96 1.97 0 1-.81 1.67-2.28 1.67-1.54 0-2.93-.54-2.93-2.51h-2.97c0 .55.08 1.13.24 1.58.81 2.29 3.29 3.3 5.67 3.3 2.27 0 5.3-.89 5.3-4.05 0-.3-.01-1.16-.48-1.94h3.87z" fill="#1abc9c"/></svg>