<svg clip-rule="evenodd" fill-rule="evenodd" stroke-linejoin="round" stroke-miterlimit="2" viewBox="0 0 16 16" xmlns="http://www.w3.org/2000/svg"><path d="m0 0h16.000008v16.000008h-16.000008z" fill="none" stroke-width=".666667"/><g fill="#1abc9c" fill-rule="nonzero"><path d="m.193-.075c0 .049.038.087.087.087.051 0 .087-.038.087-.087 0-.051-.036-.087-.087-.087-.049 0-.087.036-.087.087z" transform="matrix(13.2049580226 0 0 13.2049580226 11.1537766179 12.9983042763)"/><path d="m.523-.245c0-.159-.077-.257-.204-.257-.065 0-.112.025-.139.075v-.288h-.118v.715h.11v-.08c.027.061.076.092.147.092.127 0 .204-.098.204-.257zm-.12 0c0 .095-.042.151-.111.151-.068 0-.112-.055-.112-.14v-.022c0-.085.044-.14.112-.14.069 0 .111.056.111.151z" transform="matrix(13.2049580226 0 0 13.2049580226 6.6813020139 12.9983042763)"/><path d="m.412 0h.122l-.191-.66h-.126l-.191.66h.115l.039-.141h.193zm-.204-.245.069-.273.068.273z" transform="matrix(13.2049580226 0 0 13.2049580226 -.34332683957 12.9871463355)"/></g></svg>