<svg clip-rule="evenodd" fill-rule="evenodd" stroke-linejoin="round" stroke-miterlimit="2" viewBox="0 0 24 24" xmlns="http://www.w3.org/2000/svg"><path d="m0 0h24v24h-24z" fill="none"/><g fill="#1abc9c"><path d="m15 15v-8l5 4z" transform="matrix(-1 0 0 1 23 1)"/><path d="m15 15v-8l5 4z" transform="translate(1 1)"/><path d="m11 4.502c-.353-.209-1.022-.502-2-.502h-1v-2h1c1.396 0 2.394.408 3 .766.606-.358 1.604-.766 3-.766h1v2h-1c-.978 0-1.647.293-2 .502v14.996c.353.209 1.022.502 2 .502h1v2h-1c-1.396 0-2.394-.408-3-.766-.606.358-1.604.766-3 .766h-1v-2h1c.978 0 1.647-.293 2-.502z" transform="matrix(-1 0 0 1 24 0)"/></g></svg>