<svg clip-rule="evenodd" fill-rule="evenodd" stroke-linejoin="round" stroke-miterlimit="2" viewBox="0 0 16 16" xmlns="http://www.w3.org/2000/svg"><path d="m0 0h16.000008v16.000008h-16.000008z" fill="none" stroke-width=".666667"/><g fill="#1abc9c" fill-rule="nonzero"><path d="m.523-.245c0-.159-.077-.257-.204-.257-.065 0-.112.025-.139.075v-.288h-.118v.715h.11v-.08c.027.061.076.092.147.092.127 0 .204-.098.204-.257zm-.12 0c0 .095-.042.151-.111.151-.068 0-.112-.055-.112-.14v-.022c0-.085.044-.14.112-.14.069 0 .111.056.111.151z" transform="matrix(13.2049580226 0 0 13.2049580226 7.9207698144 12.9915349141)"/><path d="m.493-.318c0-.119-.076-.184-.213-.184-.094 0-.165.029-.213.087l.08.069c.031-.037.072-.056.123-.056.07 0 .105.03.105.089v.017h-.141c-.119 0-.185.055-.185.152s.066.156.175.156c.077 0 .132-.032.159-.092v.08h.11zm-.119.11c-.007.077-.052.122-.127.122-.049 0-.078-.022-.078-.061s.026-.061.071-.061z" transform="matrix(13.2049580226 0 0 13.2049580226 .5259995206 12.9915349141)"/></g></svg>