<svg clip-rule="evenodd" fill-rule="evenodd" stroke-linejoin="round" stroke-miterlimit="2" viewBox="0 0 16 16" xmlns="http://www.w3.org/2000/svg"><path d="m0 0h16.000008v16.000008h-16.000008z" fill="none" stroke-width=".666667"/><g fill="#1abc9c" fill-rule="nonzero"><path d="m.525-.18c0-.089-.04-.146-.119-.167.066-.022.099-.071.099-.147 0-.111-.069-.166-.206-.166h-.233v.66h.245c.143 0 .214-.06.214-.18zm-.341-.376h.11c.064 0 .093.024.093.079 0 .061-.034.086-.117.086h-.086zm.221.364c0 .059-.033.088-.1.088h-.121v-.183h.099c.084 0 .122.03.122.095z" transform="matrix(13.22 0 0 13.22 8.0595 13)"/><path d="m.412 0h.122l-.191-.66h-.126l-.191.66h.115l.039-.141h.193zm-.204-.245.069-.273.068.273z" transform="matrix(13.22 0 0 13.22 .65628 13)"/></g></svg>