<svg clip-rule="evenodd" fill-rule="evenodd" stroke-linejoin="round" stroke-miterlimit="2" viewBox="0 0 16 16" xmlns="http://www.w3.org/2000/svg"><path d="m1.77265 2.22849h12.444456v12.444456h-12.444456z" fill="none" stroke-width=".518519"/><g fill="#1abc9c"><path d="m3 20.269h9.006v1.731h-9.006z" transform="matrix(.777778 0 0 .866551 -1.34312 -3.064125)"/><path d="m.523-.245c0-.159-.077-.257-.204-.257-.065 0-.112.025-.139.075v-.288h-.118v.715h.11v-.08c.027.061.076.092.147.092.127 0 .204-.098.204-.257zm-.12 0c0 .095-.042.151-.111.151-.068 0-.112-.055-.112-.14v-.022c0-.085.044-.14.112-.14.069 0 .111.056.111.151z" fill-rule="nonzero" transform="matrix(13.2547 0 0 13.2547 8.0729 12.9947)"/><path d="m.412 0h.122l-.191-.66h-.126l-.191.66h.115l.039-.141h.193zm-.204-.245.069-.273.068.273z" fill-rule="nonzero" transform="matrix(13.2547 0 0 13.2547 .65025 12.9947)"/></g></svg>