<svg clip-rule="evenodd" fill-rule="evenodd" stroke-linejoin="round" stroke-miterlimit="2" viewBox="0 0 24 24" xmlns="http://www.w3.org/2000/svg"><path d="m15.296 11.255h-2.092c.126-.741.243-1.437.333-1.978.309-1.853.759-3.715 1.19-4.353.482-.714 1.435-.371 1.802.616.205.548.817.868 1.438.83.828-.051 1.458-.764 1.407-1.591-.025-.415-.342-.967-.846-1.237-.714-.391-1.541-.573-2.414-.538-2.205.089-3.867 1.967-4.501 4.04-.24.782-.592 2.513-.918 4.211h-2.393l-.376 1.456h2.493c-.2 1.067-.37 1.99-.468 2.478-.288 1.428-.695 3.993-2.047 4.171-.53-.203-.728-.429-.927-.648-.267-.294-.659-.468-1.085-.442-.745.046-1.312.688-1.266 1.433.045.745.713 1.155 1.432 1.266 4.107.367 5.687-2.622 6.288-5.081.138-.564.371-1.831.607-3.177h1.967z" fill="#878787" fill-rule="nonzero"/></svg>