<svg clip-rule="evenodd" fill-rule="evenodd" stroke-linejoin="round" stroke-miterlimit="2" viewBox="0 0 24 24" xmlns="http://www.w3.org/2000/svg"><path d="m0 0h24v24h-24z" fill="none"/><g fill="#1abc9c" fill-rule="nonzero"><path d="m21 10.5c.83 0 1.5.67 1.5 1.5s-.67 1.5-1.5 1.5-1.5-.67-1.5-1.5.67-1.5 1.5-1.5z" transform="translate(0 -3)"/><path d="m21 4.5c.83 0 1.5.67 1.5 1.5s-.67 1.5-1.5 1.5-1.5-.67-1.5-1.5.67-1.5 1.5-1.5z" transform="translate(0 -2)"/><path d="m21 16.5c.83 0 1.5.68 1.5 1.5s-.68 1.5-1.5 1.5-1.5-.68-1.5-1.5.67-1.5 1.5-1.5z" transform="translate(0 1)"/><path d="m4 17h14v2h-14z" transform="matrix(1.07143 0 0 1 -2.28571 1)"/><path d="m4 11h14v2h-14z" transform="matrix(1.07143 0 0 1 -2.28571 -3)"/><path d="m21 10.5c.83 0 1.5.67 1.5 1.5s-.67 1.5-1.5 1.5-1.5-.67-1.5-1.5.67-1.5 1.5-1.5z" transform="translate(0 2)"/><path d="m4 11h14v2h-14z" transform="matrix(1.07143 0 0 1 -2.28571 2)"/><path d="m4 5h14v2h-14z" transform="matrix(1.07143 0 0 1 -2.28571 -2)"/></g></svg>