<svg clip-rule="evenodd" fill-rule="evenodd" viewBox="0 0 24 24" xmlns="http://www.w3.org/2000/svg"><g fill="none"><path d="m0 0h24v24h-24z"/><g stroke="#1abc9c" stroke-width="2"><path d="m12 15c-1.654 0-3-1.346-3-3s1.346-3 3-3 3 1.346 3 3-1.346 3-3 3z"/><path d="m18.899 10.868c.068.417.101.787.101 1.132s-.033.715-.101 1.132l-.089.549s.925.805 1.425 1.24c.182.158.226.423.106.631-.289.499-.807 1.397-1.096 1.896-.12.208-.371.302-.599.224-.626-.215-1.78-.613-1.78-.613l-.432.354c-.577.474-1.238.854-1.965 1.128l-.521.197s-.234 1.203-.36 1.855c-.046.236-.253.407-.494.407h-2.188c-.241 0-.448-.171-.494-.407-.127-.651-.361-1.854-.361-1.854l-.521-.197c-.727-.274-1.388-.654-1.965-1.128l-.432-.354s-1.154.398-1.78.613c-.228.078-.479-.016-.599-.224-.289-.499-.807-1.397-1.096-1.896-.12-.208-.076-.473.106-.631.5-.435 1.425-1.24 1.425-1.24l-.089-.549c-.067-.418-.1-.788-.1-1.133s.033-.715.101-1.132l.089-.549s-.925-.805-1.426-1.24c-.182-.158-.226-.423-.106-.631.289-.499.807-1.397 1.096-1.896.12-.208.371-.302.599-.224.626.215 1.78.613 1.78.613l.432-.354c.577-.474 1.238-.854 1.965-1.128l.521-.197s.234-1.204.361-1.855c.046-.236.253-.407.494-.407h2.188c.241 0 .448.171.494.407.127.651.361 1.854.361 1.854l.521.197c.727.274 1.388.654 1.965 1.128l.432.354s1.154-.398 1.78-.613c.228-.078.479.016.599.224.289.499.807 1.397 1.096 1.896.12.208.076.473-.106.631-.5.435-1.425 1.24-1.425 1.24z"/></g></g></svg>