<svg clip-rule="evenodd" fill-rule="evenodd" stroke-linejoin="round" stroke-miterlimit="2" viewBox="0 0 24 24" xmlns="http://www.w3.org/2000/svg"><path d="m0 0h24v24h-24z" fill="none"/><g fill="#1abc9c"><path d="m7 17h14v2h-14z" transform="matrix(.714286 0 0 1 7 -1)"/><path d="m7 11h14v2h-14z" transform="matrix(0 -.714286 1 0 5 27)"/><path d="m7 15h-2c-1.103 0-2 .897-2 2v2c0 1.103.897 2 2 2h2c1.103 0 2-.897 2-2v-2c0-1.103-.897-2-2-2z" fill-rule="nonzero" transform="translate(-1 -12)"/><path d="m12 17h10c.552 0 1-.448 1-1s-.448-1-1-1h-10c-.552 0-1 .448-1 1s.448 1 1 1z" transform="translate(-1 -12)"/><path d="m12 21h6c.552 0 1-.448 1-1s-.448-1-1-1h-6c-.552 0-1 .448-1 1s.448 1 1 1z" transform="translate(-1 -12)"/></g></svg>