<svg clip-rule="evenodd" fill-rule="evenodd" stroke-linejoin="round" stroke-miterlimit="2" viewBox="0 0 24 24" xmlns="http://www.w3.org/2000/svg"><path d="m0 0h24v24h-24z" fill="none"/><path d="m8 17.167c-2.973-1.317-5-4.051-5-7.167 0-4.376 3.998-8 9-8s9 3.624 9 8c0 3.116-2.027 5.85-5 7.167v2.83l4.37-.014.601-.021c.552-.02 1.015.412 1.035.963.02.552-.412 1.016-.963 1.036l-.651.022-5.389.017c-.266.001-.521-.104-.709-.292-.188-.187-.294-.442-.294-.708v-4.533c0-.423.271-.799.673-.933 2.528-.884 4.327-3.01 4.327-5.534 0-3.351-3.171-6-7-6s-7 2.649-7 6c0 2.524 1.799 4.65 4.323 5.545.396.133.664.505.664.923.003.136.005.281.007.422.004.036.006.073.006.11v4c0 .266-.106.521-.294.708-.188.188-.443.293-.709.292l-5.389-.017-.651-.022c-.551-.02-.983-.484-.963-1.036.02-.551.483-.983 1.035-.963l.601.021 4.37.014z" fill="#1abc9c"/></svg>