<svg clip-rule="evenodd" fill-rule="evenodd" stroke-linejoin="round" stroke-miterlimit="2" viewBox="0 0 24 24" xmlns="http://www.w3.org/2000/svg"><path d="m0 0h24v24h-24z" fill="none"/><path d="m20.5 11h-1.5v-4c0-1.1-.9-2-2-2h-4v-1.5c0-1.38-1.12-2.5-2.5-2.5s-2.5 1.12-2.5 2.5v1.5h-4c-1.1 0-1.99.9-1.99 2v3.8h1.49c1.49 0 2.7 1.21 2.7 2.7s-1.21 2.7-2.7 2.7h-1.5v3.8c0 1.1.9 2 2 2h3.8v-1.5c0-1.49 1.21-2.7 2.7-2.7s2.7 1.21 2.7 2.7v1.5h3.8c1.1 0 2-.9 2-2v-4h1.5c1.38 0 2.5-1.12 2.5-2.5s-1.12-2.5-2.5-2.5zm-5.5 3.6h-1v2h-1.8v-2h-3.8l-.1-1.2 3.9-6.1h1.8v5.8h1zm-2.9-1.5v-3.2l-2 3.2z" fill="#1abc9c" fill-rule="nonzero"/></svg>