<svg clip-rule="evenodd" fill-rule="evenodd" stroke-linejoin="round" stroke-miterlimit="2" viewBox="0 0 24 24" xmlns="http://www.w3.org/2000/svg"><path d="m0 0h24v24h-24z" fill="none"/><path d="m20.5 11h-1.5v-4c0-1.1-.9-2-2-2h-4v-1.5c0-1.38-1.12-2.5-2.5-2.5s-2.5 1.12-2.5 2.5v1.5h-4c-1.1 0-1.99.9-1.99 2v3.8h1.49c1.49 0 2.7 1.21 2.7 2.7s-1.21 2.7-2.7 2.7h-1.5v3.8c0 1.1.9 2 2 2h3.8v-1.5c0-1.49 1.21-2.7 2.7-2.7s2.7 1.21 2.7 2.7v1.5h3.8c1.1 0 2-.9 2-2v-4h1.5c1.38 0 2.5-1.12 2.5-2.5s-1.12-2.5-2.5-2.5zm-8.55 5.991c-2.497 0-3.33-1.769-3.226-2.81h1.873c-.104.312.208 1.249 1.457 1.249 1.353 0 1.457-1.145 1.457-1.353 0-1.457-1.353-1.457-1.561-1.457h-1.04v-1.457h1.04c.521 0 1.457-.104 1.457-1.353 0-1.145-1.04-1.249-1.353-1.249-1.04 0-1.249.833-1.249 1.041h-1.977c0-1.873 1.873-2.602 3.122-2.602 2.914 0 3.227 1.977 3.227 2.706 0 1.353-1.249 1.977-1.458 2.081.521.208 1.562.729 1.562 2.29.104 2.29-1.874 2.914-3.331 2.914z" fill="#1abc9c" fill-rule="nonzero"/></svg>