<svg clip-rule="evenodd" fill-rule="evenodd" stroke-linejoin="round" stroke-miterlimit="2" viewBox="0 0 24 24" xmlns="http://www.w3.org/2000/svg"><path d="m0 0h24v24h-24z" fill="none"/><path d="m20.5 11h-1.5v-4c0-1.1-.9-2-2-2h-4v-1.5c0-1.38-1.12-2.5-2.5-2.5s-2.5 1.12-2.5 2.5v1.5h-4c-1.1 0-1.99.9-1.99 2v3.8h1.49c1.49 0 2.7 1.21 2.7 2.7s-1.21 2.7-2.7 2.7h-1.5v3.8c0 1.1.9 2 2 2h3.8v-1.5c0-1.49 1.21-2.7 2.7-2.7s2.7 1.21 2.7 2.7v1.5h3.8c1.1 0 2-.9 2-2v-4h1.5c1.38 0 2.5-1.12 2.5-2.5s-1.12-2.5-2.5-2.5zm-8.5 5.7c-2.4 0-3.2-1.8-3.1-2.7h1.8c0 .4.3 1.2 1.3 1.2 1.3 0 1.3-1.5 1.3-1.7 0-1.6-1.2-1.6-1.5-1.6-.8 0-1.2.4-1.2.5l-1.5-.4.5-4.7h5.2v1.5h-3.7l-.2 2c.1 0 .6-.3 1.4-.3 2.7 0 2.8 2.6 2.8 3.1 0 1.6-1 3.1-3.1 3.1z" fill="#1abc9c" fill-rule="nonzero"/></svg>