<svg clip-rule="evenodd" fill-rule="evenodd" stroke-linejoin="round" stroke-miterlimit="2" viewBox="0 0 16 16" xmlns="http://www.w3.org/2000/svg"><path d="m11 6c1.38 0 2.63.56 3.54 1.46l-2.54 2.54h6v-6l-2.05 2.05c-1.27-1.27-3.02-2.05-4.95-2.05-3.53 0-6.43 2.61-6.92 6h2.02c.46-2.28 2.48-4 4.9-4zm5.64 9.14c.66-.9 1.12-1.97 1.28-3.14h-2.02c-.46 2.28-2.48 4-4.9 4-1.38 0-2.63-.56-3.54-1.46l2.54-2.54h-6v6l2.05-2.05c1.27 1.27 3.02 2.05 4.95 2.05 1.55 0 2.98-.51 4.14-1.36l4.86 4.85 1.49-1.49z" fill="#1abc9c" fill-rule="nonzero" transform="matrix(.800457 0 0 .800457 -2.20183 -2.20183)"/></svg>