<svg clip-rule="evenodd" fill-rule="evenodd" stroke-linejoin="round" stroke-miterlimit="2" viewBox="0 0 16 16" xmlns="http://www.w3.org/2000/svg"><g fill="#1abc9c" fill-rule="nonzero" transform="matrix(1.20299 0 0 1.20299 -1.6239 -1.6239)"><path d="m4.914 11.086 1.543-1.543h-4.114v4.114l1.543-1.543c2.273 2.273 5.955 2.273 8.228 0 .807-.807 1.322-1.795 1.553-2.828h-1.501c-.196.658-.561 1.28-1.08 1.8-1.703 1.702-4.469 1.702-6.172 0z"/><path d="m2.333 6.714h1.501c.206-.658.561-1.28 1.08-1.8 1.703-1.702 4.469-1.702 6.172 0l-1.543 1.543h4.114v-4.114l-1.543 1.543c-2.273-2.273-5.955-2.273-8.228 0-.807.807-1.322 1.795-1.553 2.828z"/></g></svg>