<svg clip-rule="evenodd" fill-rule="evenodd" stroke-linejoin="round" stroke-miterlimit="2" viewBox="0 0 16 16" xmlns="http://www.w3.org/2000/svg"><g fill="#1abc9c" fill-rule="nonzero"><path d="m9.547 1.172v1.817c.791.247 1.54.674 2.165 1.299l-1.856 1.856h4.949v-4.949l-1.856 1.856c-.971-.971-2.156-1.597-3.402-1.879z"/><path d="m9.547 1.172v1.817c.791.247 1.54.674 2.165 1.299l-1.856 1.856h4.949v-4.949l-1.856 1.856c-.971-.971-2.156-1.597-3.402-1.879z" transform="matrix(0 1 -1 0 15.9581 .024127)"/><path d="m9.547 1.172v1.817c.791.247 1.54.674 2.165 1.299l-1.856 1.856h4.949v-4.949l-1.856 1.856c-.971-.971-2.156-1.597-3.402-1.879z" transform="matrix(-1 0 0 -1 15.9759 15.9581)"/><path d="m9.547 1.172v1.817c.791.247 1.54.674 2.165 1.299l-1.856 1.856h4.949v-4.949l-1.856 1.856c-.971-.971-2.156-1.597-3.402-1.879z" transform="matrix(0 -1 1 0 .041868 15.9759)"/></g></svg>