<svg clip-rule="evenodd" fill-rule="evenodd" stroke-linejoin="round" stroke-miterlimit="2" viewBox="0 0 24 24" xmlns="http://www.w3.org/2000/svg"><path d="m4 2v5h5l-1.563-1.563c1.295-.902 2.861-1.437 4.563-1.437 4.431 0 8 3.569 8 8s-3.569 8-8 8c-.595 0-1.188-.092-1.764-.223l-.437 1.977c.718.164 1.458.246 2.201.246 5.511 0 10-4.489 10-10s-4.489-10-10-10c-2.247 0-4.328.745-6 2zm-1.998 10c.012.753.104 1.537.277 2.26l1.946-.477c-.138-.579-.215-1.178-.225-1.783zm2.828 3.471-1.791.9c.328.67.732 1.307 1.199 1.889l1.551-1.28c-.374-.466-.696-.972-.959-1.509zm2.225 2.771-1.237 1.59c.583.465 1.216.866 1.883 1.188l.86-1.831c-.532-.257-1.039-.575-1.506-.947z" fill="#1abc9c" fill-rule="nonzero"/></svg>