<svg clip-rule="evenodd" fill-rule="evenodd" stroke-linejoin="round" stroke-miterlimit="2" viewBox="0 0 24 24" xmlns="http://www.w3.org/2000/svg"><path d="m12.002 2c-5.511 0-10 4.489-10 10s4.489 10 10 10c.743 0 1.483-.082 2.201-.246l-.437-1.977c-.576.131-1.169.223-1.764.223-4.431 0-8-3.569-8-8s3.569-8 8-8c1.703 0 3.268.535 4.562 1.438l-1.562 1.562h5v-5l-2 2c-1.672-1.255-3.753-2-6-2zm8 10c-.01.605-.087 1.204-.225 1.783l1.944.477c.173-.723.267-1.507.279-2.26zm-.83 3.471c-.263.536-.587 1.043-.961 1.509l1.553 1.28c.467-.582.871-1.219 1.199-1.889zm-2.227 2.771c-.466.372-.973.69-1.506.947l.862 1.831c.666-.322 1.3-.723 1.883-1.188z" fill="#1abc9c" fill-rule="nonzero"/></svg>